<?xml version="1.0" encoding="utf-8"?>
<!-- Generator: Adobe Illustrator 22.1.0, SVG Export Plug-In . SVG Version: 6.00 Build 0)  -->
<svg version="1.1" id="chargement" xmlns="http://www.w3.org/2000/svg" xmlns:xlink="http://www.w3.org/1999/xlink" x="0px" y="0px"
	 viewBox="0 0 449.8 233.7" style="enable-background:new 0 0 449.8 233.7;" xml:space="preserve">

<g>
	
		<rect x="211.7" y="110.8" transform="matrix(-1 -1.224647e-16 1.224647e-16 -1 426.6759 234.7237)" fill="#C6E9F5" width="3.3" height="13"/>
	<g>
		<polygon stroke="#8ED5EC" stroke-width="1.5" fill="none" points="235.2,110.8 211.7,110.8 211.7,123.9 235.2,124 235.2,120.7 237.2,120.7 237.2,114.5 235.2,114.5 		
			"/>
	</g>
</g>
<g>
	
		<rect x="0.7" y="2.3" transform="matrix(-1 -1.224647e-16 1.224647e-16 -1 58.7444 233.6995)" fill="#C6E9F5" width="57.3" height="229.2"/>
	<g>
		<polygon stroke="#8ED5EC" fill="none"  points="413.1,1.8 1.3,0.8 0.8,231.9 412.6,232.9 412.7,175.2 448.8,175.2 449.1,66.9 413,66.8 		"/>
	</g>
</g>
<path fill="#8ED5EC" d="M167.6,124.6l65.1-83.8c0,0,4.7-4.7,7-2.3c2.3,2.3,0,7,0,7l-18.6,58.2h32.6c0,0,4.7,0,4.7,2.3
	c0,2.3-2.3,4.7-2.3,4.7s-56.5,82.1-58.2,83.8c-2.3,2.3-2.3,2.3-4.7,2.3s-2.3-4.7-2.3-4.7l16.3-58.2h-34.9c0,0-2.3,0-4.7-2.3
	C165.2,129.2,167.6,124.6,167.6,124.6z"/>
</svg>
