<svg id="euro" xmlns="http://www.w3.org/2000/svg" x="0px" y="0px"
width="24" height="24"
viewBox="0 0 172 172"
style=" fill:#000000;">
    <g fill="none" fill-rule="nonzero" stroke="none" stroke-width="1" stroke-linecap="butt" stroke-linejoin="miter" stroke-miterlimit="10" stroke-dasharray="" stroke-dashoffset="0" font-family="none" font-weight="none" font-size="none" text-anchor="none" style="mix-blend-mode: normal"><path d="M0,172v-172h172v172z" fill="none"></path><g fill="#f1c40f"><path d="M107.61467,136.96217c-9.89,0 -17.5225,-3.01 -22.919,-9.03c-5.08833,-5.68317 -7.79733,-13.74567 -8.299,-24.02267h38.27v-12.54167h-38.52083v-12.5345h38.52083v-12.54167h-38.06933c0.70233,-9.546 3.36833,-17.114 8.22733,-22.47467c5.30333,-5.85517 12.86417,-8.77917 22.68967,-8.77917c6.58617,0 13.15083,1.0105 19.67967,3.02433l1.806,-13.90333c-8.09117,-1.77017 -15.308,-2.65883 -21.65767,-2.65883c-14.5555,0 -26.10817,4.128 -34.64367,12.37683c-8.02667,7.75433 -12.39833,18.64767 -13.40883,32.41483h-16.28983v12.54167h16.125v12.54167h-16.125v12.54167h16.16083c0.6665,14.49817 4.988,25.87883 13.1795,33.95567c8.5355,8.42083 20.2315,12.62767 35.088,12.62767c7.18817,0 14.37633,-0.86717 21.57167,-2.6015l-1.79883,-13.8675c-6.106,1.9565 -12.642,2.93117 -19.5865,2.93117z"></path></g></g>
</svg>