<svg xmlns="http://www.w3.org/2000/svg" width="26.183" height="17.714" viewBox="0 0 26.183 17.714">
  <g id="Composant_216" data-name="Composant 216" transform="translate(0.5 0.505)">
    <path id="Tracé_2618" data-name="Tracé 2618" d="M384.612,748.9l-.161.164a1.438,1.438,0,0,0,.048,2.065c.952.879,1.776,1.617,2.581,2.338-7.173.739-15.359-.148-18.8-2.1a.95.95,0,1,1,0-1.849A16.615,16.615,0,0,1,373,747.952a1.449,1.449,0,0,0,1.165-1.419h0a1.446,1.446,0,0,0-1.761-1.414c-3.444.784-5.577,1.983-5.671,3.268l0,2.049,0,2.051c.2,2.658,9.125,4.962,20.343,3.949-1,1.1-1.853,1.978-2.644,2.782a1.435,1.435,0,0,0,.05,2.062l.018.017a1.437,1.437,0,0,0,2.025-.079,46.663,46.663,0,0,0,5.13-6.33,1.227,1.227,0,0,0-.148-1.543c-.659-.667-1.556-1.483-4.9-4.506A1.439,1.439,0,0,0,384.612,748.9Z" transform="translate(-366.73 -745.083)" fill="none" stroke="#4ea9ee" stroke-width="1"/>
  </g>
</svg>
