<svg id="Calque_1" data-name="Calque 1" xmlns="http://www.w3.org/2000/svg" xmlns:xlink="http://www.w3.org/1999/xlink" viewBox="0 0 152 31.31">
  <defs>
    <clipPath id="clip-path">
      <rect width="151.98" height="31.18" fill="none"/>
    </clipPath>
    <symbol id="logo_assistant_BT" data-name="logo assistant BT" viewBox="0 0 151.9 29.82">
      <path d="M10.19,21.69l3.62,3.62a3.34,3.34,0,0,0,2.21,1,3.16,3.16,0,0,0,2.41-.95L23,20.85h4.87l-7,7a6.63,6.63,0,0,1-5.47,1.92,7,7,0,0,1-4.05-2l-1.15-1.21Z" fill="#004b80"/>
      <path d="M22.9,8.86,18.51,4.47a3.32,3.32,0,0,0-2.22-1,3.19,3.19,0,0,0-2.41.94l-9,9H0L11.45,2a6.66,6.66,0,0,1,9.4,0l0,0,6.9,6.9Z" fill="#004b80"/>
      <polygon points="28.85 15.88 26.28 15.88 26.28 18.45 24.52 18.45 24.52 15.88 21.94 15.88 21.94 14.11 24.52 14.11 24.52 11.54 26.28 11.54 26.28 14.11 28.85 14.11 28.85 15.88" fill="#e1913f"/>
      <g style="isolation:isolate">
        <g style="isolation:isolate">
          <path d="M41.24,12.12,42,8.8h3.88L41.24,24.26H36.8L32.14,8.8h3.79l.78,3.32Zm-.64,2.66H37.34L39,21.61Z" fill="#004b80"/>
          <path d="M51.15,21a6.31,6.31,0,0,1-2.55-.48,4,4,0,0,1-1.7-1.3,3.06,3.06,0,0,1-.59-1.84,3.14,3.14,0,0,1,.87-2.27,5.8,5.8,0,0,1,2.63-1.43,15.75,15.75,0,0,0,1.63-.53,1.48,1.48,0,0,0,.69-.47,1.14,1.14,0,0,0,.18-.68.89.89,0,0,0-.46-.8,2.4,2.4,0,0,0-1.28-.29,4.45,4.45,0,0,0-1.63.31,5.48,5.48,0,0,0-1.47.87l-1.74-1.94a6.27,6.27,0,0,1,2.18-1.29,8.05,8.05,0,0,1,2.77-.47,7.39,7.39,0,0,1,2.68.47,4.33,4.33,0,0,1,1.9,1.35A3.28,3.28,0,0,1,56,12.32,3.09,3.09,0,0,1,55,14.7a6.59,6.59,0,0,1-2.75,1.39,15.54,15.54,0,0,0-1.59.54,1.8,1.8,0,0,0-.68.44.85.85,0,0,0-.16.54.73.73,0,0,0,.38.66,2.22,2.22,0,0,0,1.16.23,5.14,5.14,0,0,0,2.81-.93l1.29,2a6.4,6.4,0,0,1-2,1.07A7.48,7.48,0,0,1,51.15,21Z" fill="#004b80"/>
          <path d="M61.93,21a6.39,6.39,0,0,1-2.56-.48,4,4,0,0,1-1.69-1.3,3,3,0,0,1-.59-1.84A3.14,3.14,0,0,1,58,15.14a5.75,5.75,0,0,1,2.63-1.43,16.63,16.63,0,0,0,1.63-.53,1.48,1.48,0,0,0,.69-.47,1.14,1.14,0,0,0,.18-.68.89.89,0,0,0-.46-.8,2.4,2.4,0,0,0-1.28-.29,4.41,4.41,0,0,0-1.63.31,5.19,5.19,0,0,0-1.47.87l-1.74-1.94a6.32,6.32,0,0,1,2.17-1.29,8.11,8.11,0,0,1,2.78-.47,7.43,7.43,0,0,1,2.68.47A4.3,4.3,0,0,1,66,10.24a3.29,3.29,0,0,1,.7,2.08,3.13,3.13,0,0,1-.91,2.38,6.59,6.59,0,0,1-2.75,1.39,14,14,0,0,0-1.59.54,1.72,1.72,0,0,0-.68.44.85.85,0,0,0-.17.54.75.75,0,0,0,.38.66,2.24,2.24,0,0,0,1.16.23A5.17,5.17,0,0,0,65,17.57l1.29,2a6.51,6.51,0,0,1-2,1.07A7.48,7.48,0,0,1,61.93,21Z" fill="#004b80"/>
          <path d="M70.27,26.89a2.05,2.05,0,0,1-1.49-.56,2.08,2.08,0,0,1,0-2.88,2,2,0,0,1,1.49-.57,2.1,2.1,0,0,1,1.51.57,2.05,2.05,0,0,1,0,2.88A2.14,2.14,0,0,1,70.27,26.89ZM72.06,8.8V20.65H68.53V8.8Z" fill="#004b80"/>
          <path d="M79,21a6.39,6.39,0,0,1-2.56-.48,4,4,0,0,1-1.69-1.3,3,3,0,0,1-.59-1.84A3.14,3.14,0,0,1,75,15.14a5.75,5.75,0,0,1,2.63-1.43,16.63,16.63,0,0,0,1.63-.53,1.48,1.48,0,0,0,.69-.47,1.14,1.14,0,0,0,.18-.68.91.91,0,0,0-.46-.8,2.4,2.4,0,0,0-1.28-.29,4.41,4.41,0,0,0-1.63.31,5.19,5.19,0,0,0-1.47.87l-1.74-1.94a6.32,6.32,0,0,1,2.17-1.29,8.11,8.11,0,0,1,2.78-.47,7.43,7.43,0,0,1,2.68.47,4.3,4.3,0,0,1,1.89,1.35,3.28,3.28,0,0,1,.69,2.08,3.12,3.12,0,0,1-.9,2.38,6.59,6.59,0,0,1-2.75,1.39,14,14,0,0,0-1.59.54,1.72,1.72,0,0,0-.68.44.85.85,0,0,0-.17.54.75.75,0,0,0,.38.66,2.22,2.22,0,0,0,1.16.23,5.14,5.14,0,0,0,2.81-.93l1.3,2a6.45,6.45,0,0,1-2,1.07A7.37,7.37,0,0,1,79,21Z" fill="#004b80"/>
          <path d="M93,9.36l-1.18,2.25a2.39,2.39,0,0,0-1.27-.4,1,1,0,0,0-.85.36,2,2,0,0,0-.27,1.18v5.44H91.8l.38,2.46H89.46v3l-3.52-.4V20.65H84.26V18.19h1.68V12.7q0-4.26,3.88-4.28a6.41,6.41,0,0,1,1.71.24A5.19,5.19,0,0,1,93,9.36Z" fill="#004b80"/>
          <path d="M103.63,12.23v4.6A4,4,0,0,1,102.45,20,5.52,5.52,0,0,1,98.72,21a11.54,11.54,0,0,1-2.17-.23,13.89,13.89,0,0,1-2.29-.64l.8-2.32a14.8,14.8,0,0,0,1.7.45,7.42,7.42,0,0,0,1.4.17,2.42,2.42,0,0,0,1.57-.39,1.89,1.89,0,0,0,.44-1.44v-.51H99a7.05,7.05,0,0,1-4.13-1,3.43,3.43,0,0,1-1.43-3,3.55,3.55,0,0,1,1-2.67,3.83,3.83,0,0,1,2.81-1,4,4,0,0,1,3.57,1.76A2.74,2.74,0,0,1,101.92,9a4.49,4.49,0,0,1,1.78-.46l.73,2.29a1.19,1.19,0,0,0-.61.47A1.93,1.93,0,0,0,103.63,12.23ZM98.3,10.94a1.35,1.35,0,0,0-1,.39,1.58,1.58,0,0,0-.37,1.11,1.49,1.49,0,0,0,.6,1.31,3.08,3.08,0,0,0,1.79.43h.87V12.06a2.39,2.39,0,0,0-.81-.83A2.06,2.06,0,0,0,98.3,10.94Z" fill="#004b80"/>
          <path d="M113.38,21a4.24,4.24,0,0,1-1.95-.45,5.51,5.51,0,0,1-1.66-1.34l-.25,1.41h-3.08V8.8H110v8.1c.65,1,1.34,1.54,2,1.54a1,1,0,0,0,.84-.35,2.08,2.08,0,0,0,.27-1.24v-8h3.53v8.66a3.73,3.73,0,0,1-.87,2.63A3.14,3.14,0,0,1,113.38,21Z" fill="#004b80"/>
          <path d="M126.75,9.36l-1.19,2.25a2.36,2.36,0,0,0-1.27-.4,1,1,0,0,0-.85.36,2.06,2.06,0,0,0-.26,1.18v5.44h2.34l.38,2.46h-2.72v3l-3.53-.4V20.65H118V18.19h1.67V12.7c0-2.84,1.3-4.27,3.88-4.28a6.3,6.3,0,0,1,1.71.24A5.38,5.38,0,0,1,126.75,9.36Z" fill="#004b80"/>
        </g>
        <g style="isolation:isolate">
          <path d="M136.23,17a4.07,4.07,0,0,1,2,1.12,3,3,0,0,1,.82,2.2,3.2,3.2,0,0,1-1.72,3,10.82,10.82,0,0,1-5,.92H128V8.8h5a10.14,10.14,0,0,1,5,1,3.7,3.7,0,0,1,1.78,3.5,3.19,3.19,0,0,1-1,2.54A5.26,5.26,0,0,1,136.23,17ZM133,11.45h-1.34v4.2h1.61c1.78,0,2.67-.72,2.67-2.14a1.71,1.71,0,0,0-.74-1.62A4.45,4.45,0,0,0,133,11.45Zm-1.34,10.22h1.07a3.89,3.89,0,0,0,2-.39,1.45,1.45,0,0,0,.62-1.33c0-1.24-.77-1.87-2.32-1.87h-1.36Z" fill="#e1913f"/>
        </g>
        <g style="isolation:isolate">
          <path d="M151.55,21.45l.35,2.81H140.08V21.45h4V8.8h3.66V21.45Z" fill="#e1913f"/>
        </g>
      </g>
      <g style="isolation:isolate">
        <path d="M17.65,15.33a2.44,2.44,0,0,1,1.2.68,1.77,1.77,0,0,1,.49,1.31,1.9,1.9,0,0,1-1,1.8,6.36,6.36,0,0,1-3,.55H12.73V10.45h3a6,6,0,0,1,3,.6,2.21,2.21,0,0,1,1.06,2.09,1.87,1.87,0,0,1-.58,1.51A3,3,0,0,1,17.65,15.33ZM15.71,12h-.79v2.5h.95c1.07,0,1.6-.42,1.6-1.27a1,1,0,0,0-.44-1A2.72,2.72,0,0,0,15.71,12Zm-.79,6.1h.63a2.37,2.37,0,0,0,1.19-.23.87.87,0,0,0,.37-.8q0-1.11-1.38-1.11h-.81Z" fill="#e1913f"/>
      </g>
    </symbol>
  </defs>
  <title>testlogo</title>
  <g id="Calque_1-2" data-name="Calque 1-2">
    <g clip-path="url(#clip-path)">
      <use width="151.9" height="29.81" transform="matrix(1, 0, 0, -0.97, 0.02, 28.7)" xlink:href="#logo_assistant_BT"/>
    </g>
  </g>
</svg>