<svg id="svg" version="1.1" xmlns="http://www.w3.org/2000/svg" xmlns:xlink="http://www.w3.org/1999/xlink" width="400" height="239.96613039796782" viewBox="0, 0, 400,239.96613039796782">
  <g id="svgg">
    <path id="path0" d="M46.232 5.942 C 32.840 7.666,22.535 18.074,21.006 31.421 C 20.765 33.525,20.765 155.298,21.006 157.402 C 22.553 170.900,33.040 181.355,46.578 182.898 C 49.502 183.231,353.847 183.031,355.553 182.695 C 368.898 180.065,378.161 170.130,379.499 157.010 C 379.749 154.560,379.749 34.263,379.499 31.813 C 378.089 17.995,367.441 7.347,353.623 5.937 C 351.482 5.718,47.930 5.724,46.232 5.942 M356.312 7.567 C 367.449 10.045,375.878 18.620,377.922 29.551 C 378.417 32.197,378.417 156.626,377.922 159.272 C 375.879 170.201,367.449 178.781,356.326 181.254 L 354.699 181.615 266.469 181.658 L 178.239 181.701 180.038 180.970 C 190.062 176.899,196.856 167.816,197.958 157.010 C 198.208 154.560,198.208 34.263,197.958 31.813 C 196.849 20.939,189.793 11.590,179.829 7.792 L 178.069 7.122 266.384 7.165 L 354.699 7.208 356.312 7.567 M116.475 22.786 C 117.196 23.087,118.124 23.923,118.471 24.584 C 118.601 24.833,119.169 27.994,119.733 31.610 C 120.298 35.227,120.813 38.233,120.879 38.291 C 120.945 38.349,121.609 38.558,122.354 38.755 C 126.578 39.872,131.225 41.770,135.201 44.002 L 137.040 45.034 142.733 40.897 C 151.088 34.826,149.670 34.632,158.028 42.989 L 164.236 49.196 164.442 50.142 C 164.803 51.802,164.628 52.132,160.064 58.384 L 155.978 63.980 156.847 65.479 C 158.872 68.972,160.816 73.575,161.979 77.630 C 162.381 79.030,162.774 80.196,162.853 80.222 C 162.933 80.248,165.926 80.728,169.505 81.288 C 176.932 82.450,177.099 82.504,177.984 84.047 L 178.490 84.928 178.491 93.443 C 178.493 105.314,179.245 104.273,169.602 105.746 C 162.105 106.892,162.699 106.695,162.332 108.156 C 161.967 109.613,160.766 113.294,160.546 113.633 C 160.413 113.835,159.173 112.678,154.375 107.875 L 148.369 101.863 148.720 99.661 C 152.013 78.983,138.465 58.509,117.967 53.187 C 88.676 45.581,61.312 70.814,66.394 100.741 C 70.047 122.248,90.828 137.721,112.271 134.897 L 114.380 134.619 120.442 140.679 C 123.776 144.012,126.480 146.810,126.451 146.897 C 126.388 147.084,124.305 147.800,122.227 148.348 C 121.412 148.563,120.745 148.801,120.745 148.876 C 120.745 148.952,120.288 151.916,119.729 155.462 C 118.164 165.393,119.199 164.634,107.309 164.568 L 98.788 164.522 97.959 164.009 C 96.439 163.069,96.325 162.738,95.346 156.393 C 94.872 153.319,94.404 150.334,94.306 149.759 L 94.127 148.714 93.253 148.510 C 89.251 147.574,82.173 144.637,78.689 142.465 C 77.825 141.926,78.697 141.397,70.307 147.547 C 64.250 151.987,64.867 152.143,56.854 144.149 C 50.708 138.017,50.466 137.712,50.466 136.113 C 50.466 134.722,50.458 134.735,54.880 128.675 L 58.947 123.102 58.116 121.627 C 55.696 117.332,53.605 112.234,52.564 108.092 C 52.296 107.028,52.201 106.859,51.827 106.784 C 51.415 106.701,46.292 105.897,41.499 105.162 C 38.906 104.764,38.044 104.444,37.352 103.624 C 36.395 102.488,36.410 102.651,36.410 93.565 C 36.410 84.313,36.393 84.477,37.477 83.347 C 38.367 82.419,38.680 82.338,45.510 81.272 C 49.121 80.708,52.123 80.195,52.182 80.132 C 52.241 80.069,52.526 79.162,52.814 78.118 C 53.927 74.086,56.416 68.197,58.360 64.998 L 58.975 63.984 58.578 63.449 C 50.905 53.088,50.466 52.411,50.466 50.954 C 50.466 49.425,50.565 49.300,56.790 43.045 C 65.126 34.669,63.899 34.838,72.238 40.919 L 77.917 45.061 78.882 44.475 C 82.519 42.270,89.097 39.559,93.141 38.598 C 93.654 38.476,94.090 38.368,94.111 38.357 C 94.147 38.339,94.547 35.836,95.688 28.480 C 96.320 24.405,96.749 23.505,98.391 22.793 C 99.290 22.404,115.543 22.397,116.475 22.786 M112.362 68.668 C 126.187 71.171,135.638 84.474,133.530 98.462 C 133.305 99.953,133.305 100.174,133.530 100.422 C 133.669 100.576,139.542 106.450,146.582 113.475 C 161.430 128.295,161.775 128.664,162.923 130.991 C 169.310 143.936,154.473 156.884,142.465 148.843 C 142.022 148.547,135.296 141.953,127.519 134.191 L 113.378 120.078 112.024 120.321 C 93.204 123.696,77.319 106.037,82.334 87.316 C 83.215 84.029,82.875 83.822,92.712 93.632 C 102.113 103.007,101.738 102.708,104.149 102.709 C 106.465 102.710,106.703 102.549,111.390 97.823 C 115.823 93.353,115.922 93.200,115.914 90.855 C 115.905 88.546,116.055 88.731,106.752 79.509 C 96.711 69.556,96.969 70.053,101.303 69.011 C 104.676 68.200,109.032 68.065,112.362 68.668 " stroke="none" fill="#fccc34" fill-rule="evenodd"></path>
    <path id="path1" d="M323.537 140.940 C 323.494 141.056,321.570 148.544,319.260 157.578 L 315.061 174.005 316.824 174.053 C 317.794 174.080,318.628 174.062,318.677 174.013 C 318.767 173.923,327.180 141.133,327.180 140.871 C 327.180 140.629,323.625 140.695,323.537 140.940 M355.954 147.674 C 350.426 148.538,347.276 153.547,347.276 161.473 C 347.276 170.134,351.045 175.292,357.409 175.340 C 363.915 175.388,367.711 170.280,367.711 161.473 C 367.711 152.082,363.014 146.570,355.954 147.674 M332.599 150.400 C 330.411 151.610,328.447 152.694,328.235 152.810 C 327.852 153.018,327.856 153.026,328.888 154.410 C 330.142 156.091,329.596 156.128,333.305 154.114 L 336.410 152.429 336.453 163.598 L 336.497 174.767 338.613 174.767 L 340.728 174.767 340.728 161.473 L 340.728 148.180 338.654 148.190 L 336.579 148.201 332.599 150.400 M359.960 151.995 C 364.892 155.046,364.546 168.917,359.480 171.217 C 357.747 172.004,355.425 171.544,354.065 170.145 C 350.681 166.664,350.718 156.140,354.127 152.732 C 355.622 151.237,358.206 150.911,359.960 151.995 M205.706 193.819 L 204.068 195.766 205.552 195.766 L 207.037 195.766 208.135 194.623 C 208.739 193.994,209.572 193.118,209.986 192.676 L 210.739 191.871 209.042 191.871 L 207.344 191.871 205.706 193.819 M370.651 193.819 L 369.013 195.766 370.497 195.766 L 371.982 195.766 373.080 194.623 C 373.684 193.994,374.517 193.118,374.931 192.676 L 375.684 191.871 373.987 191.871 L 372.289 191.871 370.651 193.819 M95.174 197.049 C 90.419 197.860,87.468 200.328,86.178 204.572 C 83.042 214.892,95.857 222.746,103.763 215.351 C 105.062 214.136,105.077 214.323,103.580 213.171 L 102.335 212.212 101.367 213.148 C 96.737 217.634,89.093 214.279,89.079 207.756 C 89.065 200.999,96.636 197.510,101.367 202.093 L 102.335 203.030 103.580 202.070 C 105.077 200.918,105.062 201.106,103.763 199.891 C 101.586 197.854,97.800 196.601,95.174 197.049 M21.169 207.621 L 21.169 217.782 22.777 217.782 L 24.386 217.782 24.386 207.621 L 24.386 197.460 22.777 197.460 L 21.169 197.460 21.169 207.621 M30.652 207.621 L 30.652 217.782 32.259 217.782 L 33.866 217.782 33.910 209.782 L 33.954 201.782 39.119 209.773 L 44.285 217.764 46.444 217.773 L 48.603 217.782 48.603 207.621 L 48.603 197.460 46.994 197.460 L 45.385 197.460 45.385 205.419 C 45.385 209.797,45.326 213.378,45.255 213.378 C 45.183 213.378,42.801 209.797,39.962 205.420 L 34.801 197.461 32.727 197.460 L 30.652 197.460 30.652 207.621 M54.869 207.621 L 54.869 217.812 59.738 217.739 C 65.115 217.658,65.665 217.576,67.824 216.519 C 75.026 212.994,75.026 202.247,67.824 198.722 C 65.665 197.666,65.115 197.583,59.738 197.502 L 54.869 197.429 54.869 207.621 M78.069 207.621 L 78.069 217.782 79.678 217.782 L 81.287 217.782 81.287 207.621 L 81.287 197.460 79.678 197.460 L 78.069 197.460 78.069 207.621 M109.229 207.621 L 109.229 217.782 114.818 217.782 L 120.406 217.782 120.406 216.427 L 120.406 215.072 116.427 215.072 L 112.447 215.072 112.447 211.939 L 112.447 208.806 115.834 208.806 L 119.221 208.806 119.221 207.451 L 119.221 206.097 115.834 206.097 L 112.447 206.097 112.447 203.133 L 112.447 200.169 116.427 200.169 L 120.406 200.169 120.406 198.815 L 120.406 197.460 114.818 197.460 L 109.229 197.460 109.229 207.621 M133.616 207.621 L 133.616 217.812 138.484 217.739 C 143.862 217.658,144.412 217.576,146.571 216.519 C 153.773 212.994,153.773 202.247,146.571 198.722 C 144.412 197.666,143.862 197.583,138.484 197.502 L 133.616 197.429 133.616 207.621 M156.816 207.621 L 156.816 217.782 162.405 217.782 L 167.993 217.782 167.993 216.427 L 167.993 215.072 164.014 215.072 L 160.034 215.072 160.034 211.939 L 160.034 208.806 163.421 208.806 L 166.808 208.806 166.808 207.451 L 166.808 206.097 163.421 206.097 L 160.034 206.097 160.034 203.133 L 160.034 200.169 164.014 200.169 L 167.993 200.169 167.993 198.815 L 167.993 197.460 162.405 197.460 L 156.816 197.460 156.816 207.621 M181.202 207.621 L 181.202 217.782 182.811 217.782 L 184.420 217.782 184.420 213.463 L 184.420 209.145 185.841 209.145 L 187.262 209.145 190.095 213.463 L 192.927 217.782 194.859 217.782 L 196.790 217.782 195.873 216.469 C 195.369 215.747,193.922 213.671,192.658 211.856 L 190.359 208.555 190.819 208.318 C 194.623 206.355,194.649 200.472,190.863 198.412 C 189.596 197.722,187.862 197.473,184.293 197.466 L 181.202 197.460 181.202 207.621 M200.000 207.621 L 200.000 217.782 205.588 217.782 L 211.177 217.782 211.177 216.427 L 211.177 215.072 207.197 215.072 L 203.218 215.072 203.218 211.939 L 203.218 208.806 206.605 208.806 L 209.992 208.806 209.992 207.451 L 209.992 206.097 206.605 206.097 L 203.218 206.097 203.218 203.133 L 203.218 200.169 207.197 200.169 L 211.177 200.169 211.177 198.815 L 211.177 197.460 205.588 197.460 L 200.000 197.460 200.000 207.621 M216.596 207.621 L 216.596 217.782 218.205 217.782 L 219.814 217.782 219.814 213.463 L 219.814 209.145 221.980 209.145 C 227.031 209.145,229.525 207.272,229.535 203.472 C 229.547 198.986,227.138 197.478,219.941 197.466 L 216.596 197.460 216.596 207.621 M233.287 207.070 C 231.244 212.356,229.471 216.928,229.348 217.231 L 229.123 217.782 230.904 217.782 C 231.883 217.782,232.684 217.711,232.684 217.626 C 232.684 217.540,233.151 216.243,233.722 214.744 L 234.760 212.018 239.181 212.063 L 243.602 212.108 244.689 214.945 L 245.777 217.782 247.506 217.782 L 249.235 217.782 245.299 207.663 L 241.363 197.544 239.183 197.502 L 237.003 197.459 233.287 207.070 M253.175 207.621 L 253.175 217.782 254.784 217.782 L 256.393 217.782 256.393 213.463 L 256.393 209.145 257.814 209.145 L 259.235 209.145 262.068 213.463 L 264.900 217.782 266.832 217.782 L 268.763 217.782 267.846 216.469 C 267.342 215.747,265.895 213.671,264.631 211.856 L 262.332 208.555 262.792 208.318 C 266.595 206.355,266.622 200.472,262.836 198.412 C 261.569 197.722,259.835 197.473,256.266 197.466 L 253.175 197.460 253.175 207.621 M274.439 207.070 C 272.396 212.356,270.623 216.928,270.499 217.231 L 270.275 217.782 272.055 217.782 C 273.035 217.782,273.836 217.711,273.836 217.626 C 273.836 217.540,274.303 216.243,274.874 214.744 L 275.912 212.018 280.332 212.063 L 284.753 212.108 285.841 214.945 L 286.929 217.782 288.658 217.782 L 290.387 217.782 286.451 207.663 L 282.515 197.544 280.334 197.502 L 278.154 197.459 274.439 207.070 M294.327 207.641 L 294.327 217.821 298.180 217.740 C 303.209 217.635,304.986 217.093,306.236 215.282 C 308.323 212.260,307.450 209.020,304.004 206.999 C 303.971 206.980,304.224 206.719,304.565 206.419 C 306.680 204.562,306.602 200.892,304.407 198.932 C 303.206 197.858,301.280 197.468,297.163 197.463 L 294.327 197.460 294.327 207.641 M312.108 207.621 L 312.108 217.782 313.717 217.782 L 315.326 217.782 315.326 207.621 L 315.326 197.460 313.717 197.460 L 312.108 197.460 312.108 207.621 M321.592 207.621 L 321.592 217.782 327.180 217.782 L 332.769 217.782 332.769 216.257 L 332.769 214.733 328.789 214.733 L 324.809 214.733 324.809 206.097 L 324.809 197.460 323.201 197.460 L 321.592 197.460 321.592 207.621 M337.003 207.621 L 337.003 217.782 338.611 217.782 L 340.220 217.782 340.220 207.621 L 340.220 197.460 338.611 197.460 L 337.003 197.460 337.003 207.621 M344.454 198.984 L 344.454 200.508 347.671 200.508 L 350.889 200.508 350.889 209.145 L 350.889 217.782 352.498 217.782 L 354.107 217.782 354.107 209.145 L 354.107 200.508 357.409 200.508 L 360.711 200.508 360.711 198.984 L 360.711 197.460 352.583 197.460 L 344.454 197.460 344.454 198.984 M364.945 207.621 L 364.945 217.782 370.533 217.782 L 376.122 217.782 376.122 216.427 L 376.122 215.072 372.142 215.072 L 368.163 215.072 368.163 211.939 L 368.163 208.806 371.550 208.806 L 374.936 208.806 374.936 207.451 L 374.936 206.097 371.550 206.097 L 368.163 206.097 368.163 203.133 L 368.163 200.169 372.142 200.169 L 376.122 200.169 376.122 198.815 L 376.122 197.460 370.533 197.460 L 364.945 197.460 364.945 207.621 M188.772 200.562 C 190.836 201.644,190.871 204.966,188.830 206.045 C 188.191 206.383,187.846 206.435,186.256 206.435 L 184.420 206.435 184.420 203.281 L 184.420 200.127 186.325 200.203 C 187.657 200.256,188.393 200.364,188.772 200.562 M224.154 200.420 C 226.810 201.209,226.999 205.105,224.434 206.202 C 224.072 206.357,223.205 206.435,221.851 206.435 L 219.814 206.435 219.814 203.302 L 219.814 200.169 221.561 200.169 C 222.612 200.169,223.645 200.269,224.154 200.420 M260.745 200.562 C 262.809 201.644,262.844 204.966,260.803 206.045 C 260.164 206.383,259.819 206.435,258.229 206.435 L 256.393 206.435 256.393 203.281 L 256.393 200.127 258.298 200.203 C 259.630 200.256,260.366 200.364,260.745 200.562 M301.426 200.597 C 302.720 201.355,303.150 202.884,302.466 204.297 C 301.929 205.406,301.119 205.758,299.100 205.758 L 297.544 205.758 297.544 202.944 L 297.544 200.130 299.200 200.196 C 300.454 200.247,300.993 200.344,301.426 200.597 M64.872 200.781 C 69.868 202.261,71.595 208.607,68.050 212.459 C 66.345 214.312,65.049 214.733,61.055 214.733 L 58.086 214.733 58.086 207.621 L 58.086 200.508 61.019 200.508 C 63.221 200.508,64.181 200.576,64.872 200.781 M143.619 200.781 C 148.615 202.261,150.342 208.607,146.797 212.459 C 145.092 214.312,143.796 214.733,139.802 214.733 L 136.833 214.733 136.833 207.621 L 136.833 200.508 139.766 200.508 C 141.967 200.508,142.928 200.576,143.619 200.781 M240.798 204.671 C 241.628 206.899,242.360 208.855,242.425 209.018 C 242.535 209.294,242.317 209.314,239.222 209.314 C 237.396 209.314,235.902 209.262,235.902 209.198 C 235.902 209.134,236.560 207.324,237.365 205.176 C 238.170 203.028,238.896 201.088,238.979 200.866 C 239.186 200.306,239.120 200.166,240.798 204.671 M281.950 204.671 C 282.779 206.899,283.511 208.855,283.576 209.018 C 283.686 209.294,283.468 209.314,280.374 209.314 C 278.548 209.314,277.053 209.262,277.053 209.198 C 277.053 209.134,277.712 207.324,278.517 205.176 C 279.322 203.028,280.048 201.088,280.130 200.866 C 280.338 200.306,280.271 200.166,281.950 204.671 M302.490 209.022 C 304.261 210.060,304.517 212.717,302.980 214.106 C 302.184 214.825,301.181 215.072,299.060 215.072 L 297.544 215.072 297.544 211.749 L 297.544 208.427 299.628 208.496 C 301.517 208.559,301.783 208.608,302.490 209.022 " stroke="none" fill="#050505" fill-rule="evenodd"></path>
    <path id="path2" d="M360.373 152.297 C 360.373 152.326,360.620 152.574,360.923 152.847 L 361.473 153.345 360.976 152.794 C 360.512 152.281,360.373 152.166,360.373 152.297 M347.206 159.610 C 347.208 159.983,347.243 160.116,347.283 159.905 C 347.324 159.694,347.322 159.389,347.280 159.227 C 347.237 159.066,347.204 159.238,347.206 159.610 M351.606 159.526 C 351.606 159.852,351.641 159.985,351.683 159.822 C 351.726 159.659,351.726 159.392,351.683 159.229 C 351.641 159.066,351.606 159.200,351.606 159.526 M363.291 159.526 C 363.291 159.852,363.326 159.985,363.368 159.822 C 363.411 159.659,363.411 159.392,363.368 159.229 C 363.326 159.066,363.291 159.200,363.291 159.526 M367.697 159.610 C 367.699 159.983,367.734 160.116,367.774 159.905 C 367.815 159.694,367.813 159.389,367.771 159.227 C 367.728 159.066,367.695 159.238,367.697 159.610 M347.206 163.336 C 347.208 163.709,347.243 163.841,347.283 163.631 C 347.324 163.420,347.322 163.115,347.280 162.953 C 347.237 162.791,347.204 162.964,347.206 163.336 M367.697 163.336 C 367.699 163.709,367.734 163.841,367.774 163.631 C 367.815 163.420,367.813 163.115,367.771 162.953 C 367.728 162.791,367.695 162.964,367.697 163.336 M351.606 163.421 C 351.606 163.747,351.641 163.880,351.683 163.717 C 351.726 163.554,351.726 163.287,351.683 163.124 C 351.641 162.961,351.606 163.095,351.606 163.421 M363.291 163.421 C 363.291 163.747,363.326 163.880,363.368 163.717 C 363.411 163.554,363.411 163.287,363.368 163.124 C 363.326 162.961,363.291 163.095,363.291 163.421 M209.992 192.633 C 209.580 193.052,209.282 193.395,209.328 193.395 C 209.375 193.395,209.750 193.052,210.161 192.633 C 210.572 192.214,210.871 191.871,210.824 191.871 C 210.778 191.871,210.403 192.214,209.992 192.633 M374.936 192.633 C 374.525 193.052,374.227 193.395,374.273 193.395 C 374.320 193.395,374.694 193.052,375.106 192.633 C 375.517 192.214,375.816 191.871,375.769 191.871 C 375.723 191.871,375.348 192.214,374.936 192.633 M21.079 207.621 C 21.079 213.256,21.100 215.561,21.126 212.743 C 21.152 209.926,21.152 205.315,21.126 202.498 C 21.100 199.680,21.079 201.986,21.079 207.621 M30.562 207.621 C 30.562 213.256,30.583 215.561,30.610 212.743 C 30.636 209.926,30.636 205.315,30.610 202.498 C 30.583 199.680,30.562 201.986,30.562 207.621 M45.257 205.302 C 45.224 211.585,45.172 213.204,45.004 213.110 C 44.836 213.015,44.836 213.037,45.001 213.215 C 45.377 213.621,45.389 213.344,45.343 205.319 L 45.297 197.375 45.257 205.302 M54.779 207.621 C 54.779 213.256,54.800 215.561,54.826 212.743 C 54.852 209.926,54.852 205.315,54.826 202.498 C 54.800 199.680,54.779 201.986,54.779 207.621 M77.980 207.621 C 77.980 213.256,78.001 215.561,78.027 212.743 C 78.053 209.926,78.053 205.315,78.027 202.498 C 78.001 199.680,77.980 201.986,77.980 207.621 M109.140 207.621 C 109.140 213.256,109.161 215.561,109.187 212.743 C 109.213 209.926,109.213 205.315,109.187 202.498 C 109.161 199.680,109.140 201.986,109.140 207.621 M133.526 207.621 C 133.526 213.256,133.547 215.561,133.573 212.743 C 133.599 209.926,133.599 205.315,133.573 202.498 C 133.547 199.680,133.526 201.986,133.526 207.621 M156.726 207.621 C 156.726 213.256,156.748 215.561,156.774 212.743 C 156.800 209.926,156.800 205.315,156.774 202.498 C 156.748 199.680,156.726 201.986,156.726 207.621 M181.113 207.621 C 181.113 213.256,181.134 215.561,181.160 212.743 C 181.186 209.926,181.186 205.315,181.160 202.498 C 181.134 199.680,181.113 201.986,181.113 207.621 M199.910 207.621 C 199.910 213.256,199.931 215.561,199.958 212.743 C 199.984 209.926,199.984 205.315,199.958 202.498 C 199.931 199.680,199.910 201.986,199.910 207.621 M216.506 207.621 C 216.506 213.256,216.528 215.561,216.554 212.743 C 216.580 209.926,216.580 205.315,216.554 202.498 C 216.528 199.680,216.506 201.986,216.506 207.621 M253.085 207.621 C 253.085 213.256,253.107 215.561,253.133 212.743 C 253.159 209.926,253.159 205.315,253.133 202.498 C 253.107 199.680,253.085 201.986,253.085 207.621 M294.237 207.621 C 294.237 213.256,294.258 215.561,294.284 212.743 C 294.310 209.926,294.310 205.315,294.284 202.498 C 294.258 199.680,294.237 201.986,294.237 207.621 M312.019 207.621 C 312.019 213.256,312.040 215.561,312.066 212.743 C 312.092 209.926,312.092 205.315,312.066 202.498 C 312.040 199.680,312.019 201.986,312.019 207.621 M321.502 207.621 C 321.502 213.256,321.523 215.561,321.549 212.743 C 321.576 209.926,321.576 205.315,321.549 202.498 C 321.523 199.680,321.502 201.986,321.502 207.621 M336.913 207.621 C 336.913 213.256,336.934 215.561,336.960 212.743 C 336.986 209.926,336.986 205.315,336.960 202.498 C 336.934 199.680,336.913 201.986,336.913 207.621 M344.346 198.984 C 344.346 199.869,344.374 200.231,344.409 199.788 C 344.444 199.346,344.444 198.622,344.409 198.180 C 344.374 197.737,344.346 198.099,344.346 198.984 M364.855 207.621 C 364.855 213.256,364.876 215.561,364.903 212.743 C 364.929 209.926,364.929 205.315,364.903 202.498 C 364.876 199.680,364.855 201.986,364.855 207.621 M103.472 199.545 C 103.472 199.574,103.719 199.822,104.022 200.095 L 104.572 200.593 104.075 200.042 C 103.611 199.529,103.472 199.414,103.472 199.545 M95.893 200.121 C 96.149 200.160,96.569 200.160,96.825 200.121 C 97.081 200.082,96.871 200.051,96.359 200.051 C 95.847 200.051,95.637 200.082,95.893 200.121 M114.447 200.296 C 115.593 200.325,117.422 200.325,118.511 200.296 C 119.600 200.266,118.662 200.242,116.427 200.242 C 114.191 200.242,113.300 200.267,114.447 200.296 M162.033 200.296 C 163.180 200.325,165.009 200.325,166.098 200.296 C 167.187 200.266,166.249 200.242,164.014 200.242 C 161.778 200.242,160.887 200.267,162.033 200.296 M185.230 200.294 C 185.722 200.329,186.484 200.328,186.924 200.294 C 187.363 200.259,186.960 200.231,186.029 200.231 C 185.097 200.232,184.738 200.260,185.230 200.294 M205.217 200.296 C 206.363 200.325,208.192 200.325,209.282 200.296 C 210.371 200.266,209.433 200.242,207.197 200.242 C 204.962 200.242,204.071 200.267,205.217 200.296 M220.703 200.294 C 221.238 200.328,222.115 200.328,222.650 200.294 C 223.186 200.261,222.748 200.233,221.677 200.233 C 220.605 200.233,220.167 200.261,220.703 200.294 M257.203 200.294 C 257.695 200.329,258.457 200.328,258.896 200.294 C 259.336 200.259,258.933 200.231,258.002 200.231 C 257.070 200.232,256.711 200.260,257.203 200.294 M298.269 200.294 C 298.715 200.329,299.400 200.329,299.793 200.293 C 300.186 200.258,299.822 200.229,298.984 200.229 C 298.146 200.230,297.824 200.259,298.269 200.294 M370.162 200.296 C 371.308 200.325,373.137 200.325,374.226 200.296 C 375.316 200.266,374.378 200.242,372.142 200.242 C 369.907 200.242,369.016 200.267,370.162 200.296 M354.185 209.145 C 354.185 213.942,354.207 215.904,354.234 213.506 C 354.260 211.107,354.260 207.182,354.234 204.784 C 354.207 202.386,354.185 204.348,354.185 209.145 M91.186 202.244 L 90.517 202.964 91.236 202.294 C 91.632 201.926,91.956 201.602,91.956 201.574 C 91.956 201.446,91.808 201.575,91.186 202.244 M101.355 202.202 C 101.719 202.574,102.054 202.879,102.101 202.879 C 102.147 202.879,101.888 202.574,101.524 202.202 C 101.160 201.829,100.825 201.524,100.778 201.524 C 100.731 201.524,100.991 201.829,101.355 202.202 M119.255 207.405 L 119.221 208.799 115.792 208.849 L 112.362 208.898 115.797 208.937 C 119.729 208.981,119.434 209.120,119.347 207.266 L 119.288 206.012 119.255 207.405 M166.841 207.405 L 166.808 208.799 163.378 208.849 L 159.949 208.898 163.384 208.937 C 167.316 208.981,167.021 209.120,166.934 207.266 L 166.875 206.012 166.841 207.405 M210.025 207.405 L 209.992 208.799 206.562 208.849 L 203.133 208.898 206.568 208.937 C 210.499 208.981,210.205 209.120,210.118 207.266 L 210.059 206.012 210.025 207.405 M374.970 207.405 L 374.936 208.799 371.507 208.849 L 368.078 208.898 371.513 208.937 C 375.444 208.981,375.150 209.120,375.063 207.266 L 375.004 206.012 374.970 207.405 M69.811 206.943 C 69.811 207.269,69.846 207.403,69.888 207.240 C 69.931 207.077,69.931 206.810,69.888 206.647 C 69.846 206.484,69.811 206.617,69.811 206.943 M148.557 206.943 C 148.557 207.269,148.592 207.403,148.635 207.240 C 148.678 207.077,148.678 206.810,148.635 206.647 C 148.592 206.484,148.557 206.617,148.557 206.943 M69.811 208.298 C 69.811 208.624,69.846 208.757,69.888 208.594 C 69.931 208.431,69.931 208.165,69.888 208.002 C 69.846 207.839,69.811 207.972,69.811 208.298 M148.557 208.298 C 148.557 208.624,148.592 208.757,148.635 208.594 C 148.678 208.431,148.678 208.165,148.635 208.002 C 148.592 207.839,148.557 207.972,148.557 208.298 M89.116 208.467 C 89.116 208.793,89.151 208.927,89.194 208.764 C 89.236 208.601,89.236 208.334,89.194 208.171 C 89.151 208.008,89.116 208.141,89.116 208.467 M298.440 208.593 C 298.979 208.626,299.817 208.626,300.303 208.592 C 300.788 208.558,300.347 208.530,299.323 208.531 C 298.298 208.531,297.901 208.559,298.440 208.593 M184.843 209.252 C 186.056 209.378,187.431 209.389,187.358 209.272 C 187.314 209.202,186.617 209.157,185.807 209.172 C 184.998 209.187,184.564 209.223,184.843 209.252 M220.794 209.270 C 221.380 209.304,222.294 209.303,222.826 209.270 C 223.358 209.236,222.879 209.209,221.761 209.209 C 220.644 209.210,220.208 209.237,220.794 209.270 M256.816 209.252 C 258.029 209.378,259.403 209.389,259.331 209.272 C 259.287 209.202,258.590 209.157,257.780 209.172 C 256.971 209.187,256.537 209.223,256.816 209.252 M236.156 212.142 C 239.932 212.263,243.653 212.267,243.581 212.151 C 243.538 212.081,241.507 212.040,239.067 212.059 C 236.628 212.078,235.318 212.116,236.156 212.142 M277.307 212.142 C 281.083 212.263,284.805 212.267,284.733 212.151 C 284.689 212.081,282.658 212.040,280.219 212.059 C 277.779 212.078,276.469 212.116,277.307 212.142 M101.347 213.082 L 100.677 213.802 101.397 213.132 C 102.066 212.510,102.195 212.362,102.067 212.362 C 102.039 212.362,101.715 212.686,101.347 213.082 M103.884 215.284 L 103.387 215.834 103.937 215.337 C 104.240 215.063,104.488 214.815,104.488 214.786 C 104.488 214.655,104.348 214.771,103.884 215.284 M114.447 215.029 C 115.593 215.059,117.422 215.058,118.511 215.029 C 119.600 215.000,118.662 214.976,116.427 214.976 C 114.191 214.976,113.300 215.000,114.447 215.029 M162.033 215.029 C 163.180 215.059,165.009 215.058,166.098 215.029 C 167.187 215.000,166.249 214.976,164.014 214.976 C 161.778 214.976,160.887 215.000,162.033 215.029 M205.217 215.029 C 206.363 215.059,208.192 215.058,209.282 215.029 C 210.371 215.000,209.433 214.976,207.197 214.976 C 204.962 214.976,204.071 215.000,205.217 215.029 M298.349 215.027 C 298.838 215.062,299.638 215.062,300.127 215.027 C 300.616 214.993,300.216 214.965,299.238 214.965 C 298.260 214.965,297.860 214.993,298.349 215.027 M370.162 215.029 C 371.308 215.059,373.137 215.058,374.226 215.029 C 375.316 215.000,374.378 214.976,372.142 214.976 C 369.907 214.976,369.016 215.000,370.162 215.029 M95.893 215.193 C 96.149 215.232,96.569 215.232,96.825 215.193 C 97.081 215.154,96.871 215.123,96.359 215.123 C 95.847 215.123,95.637 215.154,95.893 215.193 " stroke="none" fill="#a0a0a0" fill-rule="evenodd"></path>
    <path id="path3" d="M352.794 5.875 C 352.957 5.917,353.224 5.917,353.387 5.875 C 353.550 5.832,353.417 5.797,353.091 5.797 C 352.765 5.797,352.631 5.832,352.794 5.875 M352.625 7.229 C 352.788 7.272,353.055 7.272,353.218 7.229 C 353.381 7.187,353.247 7.152,352.921 7.152 C 352.595 7.152,352.462 7.187,352.625 7.229 M370.195 15.157 C 370.795 15.762,371.324 16.257,371.370 16.257 C 371.417 16.257,370.964 15.762,370.364 15.157 C 369.764 14.551,369.235 14.056,369.188 14.056 C 369.142 14.056,369.595 14.551,370.195 15.157 M198.007 32.345 C 198.007 32.671,198.042 32.805,198.085 32.642 C 198.127 32.479,198.127 32.212,198.085 32.049 C 198.042 31.886,198.007 32.019,198.007 32.345 M379.548 32.345 C 379.548 32.671,379.583 32.805,379.626 32.642 C 379.668 32.479,379.668 32.212,379.626 32.049 C 379.583 31.886,379.548 32.019,379.548 32.345 M378.193 32.515 C 378.193 32.841,378.228 32.974,378.271 32.811 C 378.313 32.648,378.313 32.381,378.271 32.218 C 378.228 32.055,378.193 32.189,378.193 32.515 M56.815 43.057 L 50.889 49.026 56.859 43.100 C 62.407 37.592,62.904 37.087,62.785 37.087 C 62.761 37.087,60.075 39.773,56.815 43.057 M164.476 50.974 C 164.476 51.300,164.511 51.433,164.554 51.270 C 164.596 51.107,164.596 50.840,164.554 50.677 C 164.511 50.514,164.476 50.648,164.476 50.974 M104.107 51.940 C 104.316 51.980,104.659 51.980,104.869 51.940 C 105.078 51.900,104.907 51.867,104.488 51.867 C 104.069 51.867,103.897 51.900,104.107 51.940 M110.034 51.940 C 110.243 51.980,110.586 51.980,110.796 51.940 C 111.006 51.900,110.834 51.867,110.415 51.867 C 109.996 51.867,109.824 51.900,110.034 51.940 M125.995 56.130 C 125.995 56.177,126.224 56.333,126.503 56.478 C 126.782 56.622,127.011 56.702,127.011 56.656 C 127.011 56.609,126.782 56.453,126.503 56.308 C 126.224 56.164,125.995 56.084,125.995 56.130 M79.668 62.362 L 79.170 62.913 79.721 62.415 C 80.023 62.142,80.271 61.894,80.271 61.865 C 80.271 61.734,80.131 61.849,79.668 62.362 M136.918 64.014 C 137.471 64.572,137.961 65.030,138.008 65.030 C 138.055 65.030,137.640 64.572,137.087 64.014 C 136.534 63.455,136.044 62.997,135.997 62.997 C 135.950 62.997,136.365 63.455,136.918 64.014 M76.111 65.919 L 75.614 66.469 76.164 65.972 C 76.677 65.508,76.792 65.368,76.662 65.368 C 76.633 65.368,76.385 65.616,76.111 65.919 M106.393 68.373 C 107.022 68.405,108.050 68.405,108.679 68.373 C 109.308 68.340,108.793 68.314,107.536 68.314 C 106.279 68.314,105.764 68.340,106.393 68.373 M101.609 74.428 C 103.237 76.058,104.607 77.392,104.653 77.392 C 104.700 77.392,103.406 76.058,101.778 74.428 C 100.150 72.798,98.780 71.465,98.734 71.465 C 98.687 71.465,99.981 72.798,101.609 74.428 M124.471 74.397 C 124.471 74.426,124.718 74.674,125.021 74.947 L 125.572 75.445 125.074 74.894 C 124.611 74.381,124.471 74.266,124.471 74.397 M126.672 76.598 C 126.672 76.627,126.920 76.875,127.223 77.149 L 127.773 77.646 127.276 77.096 C 126.812 76.583,126.672 76.467,126.672 76.598 M92.549 93.649 C 97.019 98.120,100.714 101.778,100.761 101.778 C 100.807 101.778,97.188 98.120,92.718 93.649 C 88.248 89.179,84.553 85.521,84.506 85.521 C 84.459 85.521,88.079 89.179,92.549 93.649 M149.069 90.686 C 149.071 91.058,149.106 91.191,149.146 90.980 C 149.187 90.770,149.185 90.465,149.143 90.303 C 149.100 90.141,149.067 90.313,149.069 90.686 M65.758 91.109 C 65.758 91.622,65.790 91.831,65.828 91.575 C 65.867 91.319,65.867 90.900,65.828 90.644 C 65.790 90.387,65.758 90.597,65.758 91.109 M116.046 91.025 C 116.048 91.397,116.083 91.530,116.123 91.319 C 116.164 91.108,116.162 90.803,116.120 90.642 C 116.077 90.480,116.044 90.652,116.046 91.025 M81.496 91.787 C 81.496 92.113,81.531 92.246,81.573 92.083 C 81.616 91.920,81.616 91.653,81.573 91.490 C 81.531 91.327,81.496 91.461,81.496 91.787 M133.658 92.210 C 133.660 92.583,133.695 92.715,133.735 92.504 C 133.776 92.294,133.774 91.989,133.732 91.827 C 133.690 91.665,133.656 91.837,133.658 92.210 M81.330 94.412 C 81.332 94.784,81.366 94.917,81.407 94.706 C 81.447 94.495,81.446 94.190,81.403 94.029 C 81.361 93.867,81.328 94.039,81.330 94.412 M111.177 98.052 C 109.223 100.008,107.662 101.609,107.708 101.609 C 107.755 101.609,109.392 100.008,111.346 98.052 C 113.301 96.097,114.861 94.496,114.815 94.496 C 114.768 94.496,113.131 96.097,111.177 98.052 M65.758 96.020 C 65.758 96.533,65.790 96.742,65.828 96.486 C 65.867 96.230,65.867 95.811,65.828 95.555 C 65.790 95.298,65.758 95.508,65.758 96.020 M149.069 96.444 C 149.071 96.816,149.106 96.949,149.146 96.738 C 149.187 96.527,149.185 96.223,149.143 96.061 C 149.100 95.899,149.067 96.071,149.069 96.444 M133.655 96.698 C 133.655 97.024,133.690 97.157,133.732 96.994 C 133.775 96.831,133.775 96.564,133.732 96.401 C 133.690 96.238,133.655 96.372,133.655 96.698 M81.496 97.036 C 81.496 97.362,81.531 97.496,81.573 97.333 C 81.616 97.170,81.616 96.903,81.573 96.740 C 81.531 96.577,81.496 96.710,81.496 97.036 M133.954 100.984 C 133.954 101.014,134.202 101.261,134.505 101.535 L 135.055 102.032 134.558 101.482 C 134.094 100.969,133.954 100.854,133.954 100.984 M148.360 101.610 C 148.350 101.833,160.149 113.802,160.379 113.802 C 160.428 113.802,157.811 111.154,154.563 107.917 C 151.316 104.680,148.593 101.880,148.514 101.693 C 148.418 101.468,148.367 101.440,148.360 101.610 M103.771 102.917 C 104.075 102.955,104.533 102.954,104.787 102.915 C 105.042 102.877,104.793 102.846,104.234 102.847 C 103.675 102.848,103.467 102.879,103.771 102.917 M135.817 102.847 C 135.817 102.876,136.065 103.124,136.367 103.398 L 136.918 103.895 136.420 103.345 C 135.957 102.832,135.817 102.716,135.817 102.847 M177.298 103.768 L 176.715 104.403 177.350 103.819 C 177.941 103.276,178.063 103.133,177.933 103.133 C 177.905 103.133,177.619 103.419,177.298 103.768 M37.087 103.355 C 37.087 103.384,37.335 103.632,37.638 103.906 L 38.188 104.403 37.691 103.853 C 37.227 103.340,37.087 103.224,37.087 103.355 M138.357 105.419 C 139.145 106.211,139.827 106.859,139.874 106.859 C 139.921 106.859,139.314 106.211,138.527 105.419 C 137.739 104.627,137.057 103.980,137.010 103.980 C 136.963 103.980,137.570 104.627,138.357 105.419 M140.051 107.081 C 140.051 107.110,140.298 107.358,140.601 107.631 L 141.152 108.129 140.654 107.578 C 140.191 107.065,140.051 106.950,140.051 107.081 M141.914 108.944 C 141.914 108.973,142.161 109.221,142.464 109.494 L 143.014 109.992 142.517 109.441 C 142.053 108.928,141.914 108.813,141.914 108.944 M143.099 110.129 C 143.099 110.158,143.347 110.406,143.649 110.680 L 144.200 111.177 143.702 110.627 C 143.239 110.114,143.099 109.998,143.099 110.129 M144.285 111.315 C 144.285 111.344,144.532 111.591,144.835 111.865 L 145.385 112.362 144.888 111.812 C 144.424 111.299,144.285 111.184,144.285 111.315 M87.553 111.484 C 87.553 111.513,87.801 111.761,88.103 112.034 L 88.654 112.532 88.156 111.981 C 87.693 111.468,87.553 111.353,87.553 111.484 M146.147 113.177 C 146.147 113.207,146.395 113.454,146.698 113.728 L 147.248 114.225 146.751 113.675 C 146.287 113.162,146.147 113.047,146.147 113.177 M89.924 113.887 C 90.240 114.213,90.536 114.479,90.583 114.479 C 90.630 114.479,90.409 114.213,90.093 113.887 C 89.777 113.561,89.481 113.294,89.434 113.294 C 89.387 113.294,89.608 113.561,89.924 113.887 M147.333 114.363 C 147.333 114.392,147.580 114.640,147.883 114.913 L 148.434 115.411 147.936 114.860 C 147.473 114.347,147.333 114.232,147.333 114.363 M148.518 115.548 C 148.518 115.577,148.766 115.825,149.069 116.099 L 149.619 116.596 149.122 116.046 C 148.658 115.533,148.518 115.418,148.518 115.548 M150.381 117.411 C 150.381 117.440,150.629 117.688,150.931 117.962 L 151.482 118.459 150.984 117.909 C 150.521 117.396,150.381 117.280,150.381 117.411 M152.583 119.644 C 153.183 120.250,153.712 120.745,153.758 120.745 C 153.805 120.745,153.352 120.250,152.752 119.644 C 152.152 119.039,151.623 118.544,151.576 118.544 C 151.530 118.544,151.983 119.039,152.583 119.644 M106.647 120.701 C 107.136 120.735,107.936 120.735,108.425 120.701 C 108.914 120.666,108.514 120.638,107.536 120.638 C 106.558 120.638,106.158 120.666,106.647 120.701 M77.815 122.947 C 78.743 123.878,79.541 124.640,79.587 124.640 C 79.634 124.640,78.913 123.878,77.985 122.947 C 77.057 122.015,76.260 121.253,76.213 121.253 C 76.166 121.253,76.887 122.015,77.815 122.947 M154.615 121.645 C 154.615 121.674,154.862 121.922,155.165 122.195 L 155.715 122.693 155.218 122.142 C 154.754 121.629,154.615 121.514,154.615 121.645 M155.800 122.830 C 155.800 122.859,156.048 123.107,156.351 123.381 L 156.901 123.878 156.404 123.328 C 155.940 122.815,155.800 122.699,155.800 122.830 M156.986 124.016 C 156.986 124.045,157.233 124.293,157.536 124.566 L 158.086 125.064 157.589 124.513 C 157.125 124.000,156.986 123.885,156.986 124.016 M159.272 126.334 C 159.919 126.986,160.486 127.519,160.533 127.519 C 160.579 127.519,160.088 126.986,159.441 126.334 C 158.794 125.682,158.227 125.148,158.180 125.148 C 158.134 125.148,158.625 125.682,159.272 126.334 M87.722 130.305 C 87.722 130.351,87.951 130.507,88.230 130.652 C 88.510 130.796,88.738 130.877,88.738 130.830 C 88.738 130.783,88.510 130.627,88.230 130.483 C 87.951 130.338,87.722 130.258,87.722 130.305 M120.322 140.728 C 123.674 144.081,126.455 146.825,126.501 146.825 C 126.548 146.825,123.843 144.081,120.491 140.728 C 117.139 137.375,114.358 134.632,114.312 134.632 C 114.265 134.632,116.970 137.375,120.322 140.728 M103.006 135.087 C 103.169 135.130,103.436 135.130,103.599 135.087 C 103.762 135.045,103.628 135.010,103.302 135.010 C 102.976 135.010,102.843 135.045,103.006 135.087 M106.139 135.265 C 106.814 135.298,107.919 135.298,108.594 135.265 C 109.270 135.233,108.717 135.207,107.367 135.207 C 106.016 135.207,105.464 135.233,106.139 135.265 M56.732 144.030 C 59.851 147.151,62.441 149.704,62.488 149.704 C 62.534 149.704,60.020 147.151,56.901 144.030 C 53.782 140.910,51.192 138.357,51.145 138.357 C 51.098 138.357,53.612 140.910,56.732 144.030 M162.861 143.525 C 162.706 143.849,162.614 144.115,162.657 144.115 C 162.773 144.115,163.287 143.078,163.210 143.001 C 163.173 142.964,163.016 143.200,162.861 143.525 M160.277 147.206 L 159.780 147.756 160.330 147.259 C 160.633 146.985,160.881 146.738,160.881 146.708 C 160.881 146.578,160.741 146.693,160.277 147.206 M140.559 147.216 C 140.559 147.246,140.807 147.493,141.109 147.767 L 141.660 148.264 141.162 147.714 C 140.699 147.201,140.559 147.086,140.559 147.216 M378.193 156.308 C 378.193 156.634,378.228 156.768,378.271 156.605 C 378.313 156.442,378.313 156.175,378.271 156.012 C 378.228 155.849,378.193 155.982,378.193 156.308 M198.007 156.478 C 198.007 156.804,198.042 156.937,198.085 156.774 C 198.127 156.611,198.127 156.344,198.085 156.181 C 198.042 156.018,198.007 156.152,198.007 156.478 M379.548 156.478 C 379.548 156.804,379.583 156.937,379.626 156.774 C 379.668 156.611,379.668 156.344,379.626 156.181 C 379.583 156.018,379.548 156.152,379.548 156.478 M117.602 163.463 L 117.104 164.014 117.655 163.516 C 117.957 163.243,118.205 162.995,118.205 162.966 C 118.205 162.835,118.065 162.950,117.602 163.463 M370.190 173.709 L 369.094 174.852 370.237 173.756 C 370.866 173.153,371.380 172.639,371.380 172.613 C 371.380 172.488,371.208 172.647,370.190 173.709 M352.625 181.658 C 352.788 181.700,353.055 181.700,353.218 181.658 C 353.381 181.615,353.247 181.580,352.921 181.580 C 352.595 181.580,352.462 181.615,352.625 181.658 M352.794 183.013 C 352.957 183.055,353.224 183.055,353.387 183.013 C 353.550 182.970,353.417 182.935,353.091 182.935 C 352.765 182.935,352.631 182.970,352.794 183.013 " stroke="none" fill="#fce599" fill-rule="evenodd"></path>
  </g>
</svg>