<svg id="naBatterie" data-name="Calque 1" xmlns="http://www.w3.org/2000/svg" viewBox="0 0 56 40">
  <title>icn_batterie_en_charge</title>
  <rect fill="#c0d5e2" x="1.24" y="6.26" width="44.76" height="27.49" transform="translate(47.24 40) rotate(180)"/>
  <path fill="#849fb9" d="M18.12,20.9l8-10.28s.57-.57.85-.28,0,.86,0,.86l-2.28,7.13h4s.57,0,.57.28a1,1,0,0,1-.28.57S22,29.25,21.83,29.46s-.29.28-.57.28-.29-.57-.29-.57L23,22H18.69a.87.87,0,0,1-.57-.29C17.83,21.47,18.12,20.9,18.12,20.9Z"/>
  <path fill="#849fb9" d="M51,34.43.61,34.3.68,5.57l50.39.13,0,7.8h4.34l0,14H51ZM1.62,33.3,50,33.42V26.49h4.34l0-12H50.05l0-7.79L1.68,6.58Z"/>
</svg>
