<?xml version="1.0" encoding="utf-8"?>
<!-- Generator: Adobe Illustrator 22.1.0, SVG Export Plug-In . SVG Version: 6.00 Build 0)  -->
<svg version="1.1" id="operationnel" xmlns="http://www.w3.org/2000/svg" xmlns:xlink="http://www.w3.org/1999/xlink" x="0px" y="0px"
	 viewBox="0 0 77.9 105.5" style="enable-background:new 0 0 77.9 105.5;" xml:space="preserve">
<style type="text/css">
	.st1{fill:none;stroke:#12CC97;stroke-width:2;stroke-linecap:round;stroke-linejoin:round;stroke-miterlimit:10;}
</style>
<g>
	<path fill="#12CC97" d="M69,69.4L58.4,79.8L54,75.5c-0.4-0.4-1.1-0.4-1.5,0c-0.4,0.4-0.4,1.1,0,1.5l5.1,5c0.4,0.4,1,0.4,1.5,0
		l11.3-11.2c0.4-0.4,0.4-1.1,0-1.5C70,69,69.4,69,69,69.4z"/>
	<path fill="none" stroke="#12CC97" stroke-width="2" d="M70.2,87.8c-2.5,1.7-5.5,2.7-8.8,2.7c-8.5,0-15.4-6.9-15.4-15.4c0-8.5,6.9-15.4,15.4-15.4s15.4,6.9,15.4,15.4"
		/>
	<g>
		<path fill="none" stroke="#12CC97" stroke-width="2" d="M34.6,1H12.5C6.2,1,1,6.2,1,12.5V47c0,4.7,1.3,8.8,5.4,10.6c-0.3,0.8-0.5,1.7-0.5,2.6v36.1
			c0,4.5,3.7,8.2,8.2,8.2h18.1c4.5,0,8.2-3.7,8.2-8.2V60.1c0-1-0.6-2-0.9-2.9c3.7-1.9,5.9-5.8,5.9-10.2V12.5C45.4,6.2,40.9,1,34.6,1
			z"/>
		<g>
			<path fill="none" stroke="#12CC97" stroke-width="2" d="M34.3,9.2c0,2.2-5,3.9-11.2,3.9C17,13.1,12,11.4,12,9.2H6.8v36.1h32.9V9.2H34.3z"/>
			<g>
				<g>
					<path fill="#12CC97" d="M13,66.5c1,0,1.8,0.5,1.8,1.1s-0.8,1.1-1.8,1.1c-1,0-1.8-0.5-1.8-1.1S12,66.5,13,66.5 M13,64.5
						c-2.2,0-3.8,1.3-3.8,3.1s1.7,3.1,3.8,3.1s3.8-1.3,3.8-3.1S15.2,64.5,13,64.5L13,64.5z"/>
				</g>
				<g>
					<path fill="#12CC97" d="M13,73.5c1,0,1.8,0.5,1.8,1.1s-0.8,1.1-1.8,1.1c-1,0-1.8-0.5-1.8-1.1S12,73.5,13,73.5 M13,71.5
						c-2.2,0-3.8,1.3-3.8,3.1s1.7,3.1,3.8,3.1s3.8-1.3,3.8-3.1S15.2,71.5,13,71.5L13,71.5z"/>
				</g>
				<g>
					<path fill="#12CC97" d="M13,80.5c1,0,1.8,0.5,1.8,1.1c0,0.6-0.8,1.1-1.8,1.1c-1,0-1.8-0.5-1.8-1.1C11.2,81,12,80.5,13,80.5
						 M13,78.5c-2.2,0-3.8,1.3-3.8,3.1s1.7,3.1,3.8,3.1s3.8-1.3,3.8-3.1S15.2,78.5,13,78.5L13,78.5z"/>
				</g>
				<g>
					<path fill="#12CC97" d="M13,87.5c1,0,1.8,0.5,1.8,1.1c0,0.6-0.8,1.1-1.8,1.1c-1,0-1.8-0.5-1.8-1.1C11.2,88,12,87.5,13,87.5
						 M13,85.5c-2.2,0-3.8,1.3-3.8,3.1s1.7,3.1,3.8,3.1s3.8-1.3,3.8-3.1S15.2,85.5,13,85.5L13,85.5z"/>
				</g>
				<g>
					<path fill="#12CC97" d="M13,94.4c1,0,1.8,0.5,1.8,1.1s-0.8,1.1-1.8,1.1c-1,0-1.8-0.5-1.8-1.1S12,94.4,13,94.4 M13,92.4
						c-2.2,0-3.8,1.3-3.8,3.1s1.7,3.1,3.8,3.1s3.8-1.3,3.8-3.1S15.2,92.4,13,92.4L13,92.4z"/>
				</g>
				<g>
					<path fill="#12CC97" d="M23.4,66.5c1,0,1.8,0.5,1.8,1.1s-0.8,1.1-1.8,1.1s-1.8-0.5-1.8-1.1S22.4,66.5,23.4,66.5 M23.4,64.5
						c-2.2,0-3.8,1.3-3.8,3.1s1.7,3.1,3.8,3.1s3.8-1.3,3.8-3.1S25.6,64.5,23.4,64.5L23.4,64.5z"/>
				</g>
				<g>
					<path fill="#12CC97" d="M23.4,73.5c1,0,1.8,0.5,1.8,1.1s-0.8,1.1-1.8,1.1s-1.8-0.5-1.8-1.1S22.4,73.5,23.4,73.5 M23.4,71.5
						c-2.2,0-3.8,1.3-3.8,3.1s1.7,3.1,3.8,3.1s3.8-1.3,3.8-3.1S25.6,71.5,23.4,71.5L23.4,71.5z"/>
				</g>
				<g>
					<path fill="#12CC97" d="M23.4,80.5c1,0,1.8,0.5,1.8,1.1c0,0.6-0.8,1.1-1.8,1.1s-1.8-0.5-1.8-1.1C21.6,81,22.4,80.5,23.4,80.5
						 M23.4,78.5c-2.2,0-3.8,1.3-3.8,3.1s1.7,3.1,3.8,3.1s3.8-1.3,3.8-3.1S25.6,78.5,23.4,78.5L23.4,78.5z"/>
				</g>
				<g>
					<path fill="#12CC97" d="M23.4,87.5c1,0,1.8,0.5,1.8,1.1c0,0.6-0.8,1.1-1.8,1.1s-1.8-0.5-1.8-1.1C21.6,88,22.4,87.5,23.4,87.5
						 M23.4,85.5c-2.2,0-3.8,1.3-3.8,3.1s1.7,3.1,3.8,3.1s3.8-1.3,3.8-3.1S25.6,85.5,23.4,85.5L23.4,85.5z"/>
				</g>
				<g>
					<path fill="#12CC97" d="M23.4,94.4c1,0,1.8,0.5,1.8,1.1s-0.8,1.1-1.8,1.1s-1.8-0.5-1.8-1.1S22.4,94.4,23.4,94.4 M23.4,92.4
						c-2.2,0-3.8,1.3-3.8,3.1s1.7,3.1,3.8,3.1s3.8-1.3,3.8-3.1S25.6,92.4,23.4,92.4L23.4,92.4z"/>
				</g>
				<g>
					<path fill="#12CC97" d="M33.3,66.5c1,0,1.8,0.5,1.8,1.1s-0.8,1.1-1.8,1.1c-1,0-1.8-0.5-1.8-1.1S32.3,66.5,33.3,66.5 M33.3,64.5
						c-2.2,0-3.8,1.3-3.8,3.1s1.7,3.1,3.8,3.1s3.8-1.3,3.8-3.1S35.5,64.5,33.3,64.5L33.3,64.5z"/>
				</g>
				<g>
					<path fill="#12CC97" d="M33.3,73.5c1,0,1.8,0.5,1.8,1.1s-0.8,1.1-1.8,1.1c-1,0-1.8-0.5-1.8-1.1S32.3,73.5,33.3,73.5 M33.3,71.5
						c-2.2,0-3.8,1.3-3.8,3.1s1.7,3.1,3.8,3.1s3.8-1.3,3.8-3.1S35.5,71.5,33.3,71.5L33.3,71.5z"/>
				</g>
				<g>
					<path fill="#12CC97" d="M33.3,80.5c1,0,1.8,0.5,1.8,1.1c0,0.6-0.8,1.1-1.8,1.1c-1,0-1.8-0.5-1.8-1.1C31.5,81,32.3,80.5,33.3,80.5
						 M33.3,78.5c-2.2,0-3.8,1.3-3.8,3.1s1.7,3.1,3.8,3.1s3.8-1.3,3.8-3.1S35.5,78.5,33.3,78.5L33.3,78.5z"/>
				</g>
				<g>
					<path fill="#12CC97" d="M33.3,87.5c1,0,1.8,0.5,1.8,1.1c0,0.6-0.8,1.1-1.8,1.1c-1,0-1.8-0.5-1.8-1.1C31.5,88,32.3,87.5,33.3,87.5
						 M33.3,85.5c-2.2,0-3.8,1.3-3.8,3.1s1.7,3.1,3.8,3.1s3.8-1.3,3.8-3.1S35.5,85.5,33.3,85.5L33.3,85.5z"/>
				</g>
				<g>
					<path fill="#12CC97" d="M33.3,94.4c1,0,1.8,0.5,1.8,1.1s-0.8,1.1-1.8,1.1c-1,0-1.8-0.5-1.8-1.1S32.3,94.4,33.3,94.4 M33.3,92.4
						c-2.2,0-3.8,1.3-3.8,3.1s1.7,3.1,3.8,3.1s3.8-1.3,3.8-3.1S35.5,92.4,33.3,92.4L33.3,92.4z"/>
				</g>
				<g>
					<path fill="#12CC97" d="M26.7,56.9c0.5,0,0.8,0.4,0.8,0.8c0,0.5-0.4,0.8-0.8,0.8h-6.6c-0.5,0-0.8-0.4-0.8-0.8
						c0-0.5,0.4-0.8,0.8-0.8H26.7 M26.7,54.9h-6.6c-1.6,0-2.8,1.3-2.8,2.8c0,1.6,1.3,2.8,2.8,2.8h6.6c1.6,0,2.8-1.3,2.8-2.8
						C29.5,56.1,28.3,54.9,26.7,54.9L26.7,54.9z"/>
				</g>
				<g>
					<path fill="#12CC97" d="M14.7,50.9c0.5,0,0.8,0.4,0.8,0.8c0,0.5-0.4,0.8-0.8,0.8h-3.3c-0.5,0-0.8-0.4-0.8-0.8
						c0-0.5,0.4-0.8,0.8-0.8H14.7 M14.7,48.9h-3.3c-1.6,0-2.8,1.3-2.8,2.8c0,1.6,1.3,2.8,2.8,2.8h3.3c1.6,0,2.8-1.3,2.8-2.8
						C17.5,50.1,16.2,48.9,14.7,48.9L14.7,48.9z"/>
				</g>
				<g>
					<path fill="#12CC97" d="M35,50.9c0.5,0,0.8,0.4,0.8,0.8c0,0.5-0.4,0.8-0.8,0.8h-3.3c-0.5,0-0.8-0.4-0.8-0.8c0-0.5,0.4-0.8,0.8-0.8
						H35 M35,48.9h-3.3c-1.6,0-2.8,1.3-2.8,2.8c0,1.6,1.3,2.8,2.8,2.8H35c1.6,0,2.8-1.3,2.8-2.8C37.8,50.1,36.5,48.9,35,48.9
						L35,48.9z"/>
				</g>
			</g>
		</g>
	</g>
</g>
</svg>
