<?xml version="1.0" encoding="utf-8"?>
<!-- Generator: Adobe Illustrator 22.1.0, SVG Export Plug-In . SVG Version: 6.00 Build 0)  -->
<svg version="1.1" id="ring" xmlns="http://www.w3.org/2000/svg" xmlns:xlink="http://www.w3.org/1999/xlink" x="0px" y="0px"
	 viewBox="0 0 261.1 185.9" style="enable-background:new 0 0 261.1 185.9;" xml:space="preserve">
<style type="text/css">
	.st0{fill:#374044;}
</style>
<g>
	<g>
		<path class="st0" d="M211.4,143.4c-11.6-12.5-16.5-34.2-21.1-55.3c-7.3-32.8-15.5-69.7-52.5-74.1c1-1.4,1.5-3.2,1.5-5
			c0-5-4.1-9.1-9.1-9.1c-5,0-9.1,4.1-9.1,9.1c0,1.9,0.6,3.6,1.5,5C87,18.8,77.4,57,68.8,90.9c-5,20-10.2,40.7-20.1,52.7l-1.4,1.7
			v2.1c0,7.1,7.7,11,27.6,14c12.1,1.8,27.4,2.9,44,3.3c-1.5,2.2-2.4,4.8-2.4,7.7c0,7.5,6.1,13.6,13.6,13.6c7.5,0,13.6-6.1,13.6-13.6
			c0-2.8-0.9-5.5-2.4-7.7c16.6-0.4,31.9-1.5,44-3.3c19.9-2.9,27.6-6.9,27.6-14v-2.4L211.4,143.4z M130.2,152.8
			c-37,0-60.2-3.7-68.6-6.5c9.2-14,14.1-33.6,18.9-52.5c8.8-35.1,17.1-68.2,49.7-68.2c34,0,40.7,30.2,48.4,65.1
			c4.5,20.1,9.1,40.9,19.9,55.7C189.8,149.3,166.7,152.8,130.2,152.8z"/>
		<g>
			<path class="st0" d="M27.5,122.5c-3.5,7.7-4.9,15.1-4.9,22.6s1.4,14.9,4.9,22.6c1.9,4.1,3.6,5.7,6.4,5.7c3.5,0,5.7-3,5.7-5.7
				c0-4-5.7-7.9-5.7-22.6s5.7-18.6,5.7-22.6c0-2.7-2.1-5.7-5.7-5.7C31.1,116.8,29.3,118.4,27.5,122.5z"/>
			<path class="st0" d="M0,145.1c0,17.4,5.5,28.5,8.1,33.9c2.4,5,4.6,5.7,6.6,5.7c3.4,0,5.7-2.8,5.7-5.7c0-4.7-9-12.8-9-33.9
				s9-29.2,9-33.9c0-2.8-2.3-5.7-5.7-5.7c-2,0-4.2,0.6-6.6,5.7C5.5,116.7,0,127.7,0,145.1z"/>
		</g>
		<g>
			<path class="st0" d="M227.1,116.8c-3.5,0-5.7,3-5.7,5.7c0,4,5.7,7.9,5.7,22.6s-5.7,18.6-5.7,22.6c0,2.7,2.1,5.7,5.7,5.7
				c2.9,0,4.6-1.5,6.4-5.7c3.5-7.7,4.9-15.1,4.9-22.6s-1.4-14.9-4.9-22.6C231.7,118.4,230,116.8,227.1,116.8z"/>
			<path class="st0" d="M253,111.2c-2.4-5-4.6-5.7-6.6-5.7c-3.4,0-5.7,2.8-5.7,5.7c0,4.7,9,12.8,9,33.9s-9,29.2-9,33.9
				c0,2.8,2.3,5.7,5.7,5.7c2,0,4.2-0.6,6.6-5.7c2.6-5.5,8.1-16.5,8.1-33.9S255.6,116.7,253,111.2z"/>
		</g>
	</g>
</g>
<g id="Layer_13_9_">
	<path class="st0" d="M-220,148.5h-111.9c-10.3,0-18.6-8.3-18.6-18.6V61.5c0-10.3,8.3-18.6,18.6-18.6H-220
		c10.3,0,18.6,8.3,18.6,18.6v68.4C-201.4,140.2-209.7,148.5-220,148.5z M-331.9,55.3c-3.4,0-6.2,2.8-6.2,6.2v68.4
		c0,3.4,2.8,6.2,6.2,6.2H-220c3.4,0,6.2-2.8,6.2-6.2V61.5c0-3.4-2.8-6.2-6.2-6.2H-331.9z"/>
	<path class="st0" d="M-226.2,55.3h-99.4c-3.4,0-6.2-2.8-6.2-6.2V11.8c0-27.5,22.3-49.7,49.7-49.7h12.4c27.5,0,49.7,22.3,49.7,49.7
		v37.3C-220,52.5-222.8,55.3-226.2,55.3z M-319.4,42.9h87V11.8c0-20.6-16.7-37.3-37.3-37.3h-12.4c-20.6,0-37.3,16.7-37.3,37.3V42.9z
		"/>
	<path class="st0" d="M-275.9,98.8c-6.9,0-12.4-5.6-12.4-12.4s5.6-12.4,12.4-12.4s12.4,5.6,12.4,12.4S-269.1,98.8-275.9,98.8z"/>
	<rect x="-282.1" y="92.6" class="st0" width="12.4" height="24.9"/>
</g>
<g>
	<path class="st0" d="M-0.8,391.8c-2.9,0-5.3-2.4-5.3-5.3v-14H-37v14c0,2.9-2.4,5.3-5.3,5.3s-5.3-2.4-5.3-5.3v-19.2
		c0-2.9,2.4-5.3,5.3-5.3h41.5c2.9,0,5.3,2.4,5.3,5.3v19.2C4.5,389.4,2.1,391.8-0.8,391.8z"/>
	<path class="st0" d="M33.2,392.2H-76.2c-2.9,0-5.3-2.4-5.3-5.3s2.4-5.3,5.3-5.3H33.2c2.9,0,5.3,2.4,5.3,5.3S36.1,392.2,33.2,392.2z
		"/>
	<path class="st0" d="M32.1,547.1H-75.1c-2.9,0-5.3-2.4-5.3-5.3V407.6c0-2.9,2.4-5.3,5.3-5.3H32.1c2.9,0,5.3,2.4,5.3,5.3v134.2
		C37.3,544.7,35,547.1,32.1,547.1z M-69.8,536.6h96.6V412.9h-96.6V536.6z"/>
	<path class="st0" d="M-47.5,529.5c-2.9,0-5.3-2.4-5.3-5.3v-97.9c0-2.9,2.4-5.3,5.3-5.3c2.9,0,5.3,2.4,5.3,5.3v97.9
		C-42.3,527.2-44.6,529.5-47.5,529.5z"/>
	<path class="st0" d="M-20,529.5c-2.9,0-5.3-2.4-5.3-5.3v-97.9c0-2.9,2.4-5.3,5.3-5.3s5.3,2.4,5.3,5.3v97.9
		C-14.7,527.2-17.1,529.5-20,529.5z"/>
	<path class="st0" d="M7.6,529.5c-2.9,0-5.3-2.4-5.3-5.3v-97.9c0-2.9,2.4-5.3,5.3-5.3s5.3,2.4,5.3,5.3v97.9
		C12.8,527.2,10.5,529.5,7.6,529.5z"/>
</g>
</svg>
