<svg id="bell" data-name="Calque 1" xmlns="http://www.w3.org/2000/svg" viewBox="0 0 26 30">
  <title>icn_notification</title>
  <path fill="#586168" d="M14.25,2.45A1.45,1.45,0,1,1,12.8,1,1.45,1.45,0,0,1,14.25,2.45Z"/>
  <circle fill="#586168" cx="12.8" cy="26.72" r="2.28"/>
  <path fill="#586168" d="M12.8,25.2c-4.47,0-12-.31-12-2.41A.78.78,0,0,1,1,22.31c1.47-1.78,2.23-4.81,3-7.75C5.28,9.32,6.77,3.37,12.8,3.37c6.26,0,7.54,5.73,8.66,10.78.68,3.09,1.39,6.27,3.12,8.13a.74.74,0,0,1,.2.51C24.78,24.89,17.27,25.2,12.8,25.2ZM2.59,22.69c1.12.43,4.55,1,10.21,1s9-.57,10.18-1c-1.64-2.16-2.32-5.24-3-8.23-1.14-5.16-2.13-9.61-7.19-9.61-4.86,0-6.08,4.88-7.38,10.06C4.71,17.75,4,20.65,2.59,22.69Z"/>
</svg>
