<svg id="Composant_139_3" data-name="Composant 139 – 3" xmlns="http://www.w3.org/2000/svg" width="19" height="19" viewBox="0 0 19 19">
  <path id="Tracé_1641" data-name="Tracé 1641" d="M1085.5,364H1083v-1.5a1.5,1.5,0,0,0-3,0V364h-5v-1.5a1.5,1.5,0,0,0-3,0V364h-2.5a1.5,1.5,0,0,0-1.5,1.5v13a1.5,1.5,0,0,0,1.5,1.5h16a1.5,1.5,0,0,0,1.5-1.5v-13A1.5,1.5,0,0,0,1085.5,364Zm-4.5-1.5a.5.5,0,0,1,1,0v4a.5.5,0,0,1-1,0Zm-8,0a.5.5,0,0,1,1,0v4a.5.5,0,0,1-1,0Zm13,16a.5.5,0,0,1-.5.5h-16a.5.5,0,0,1-.5-.5v-13a.5.5,0,0,1,.5-.5h2.5v1.5a1.5,1.5,0,0,0,3,0V365h5v1.5a1.5,1.5,0,0,0,3,0V365h2.5a.5.5,0,0,1,.5.5Z" transform="translate(-1068 -361)" fill="#374044"/>
  <rect id="Rectangle_1437" data-name="Rectangle 1437" width="1.5" height="1.5" rx="0.75" transform="translate(3 9)" fill="#374044"/>
  <rect id="Rectangle_1438" data-name="Rectangle 1438" width="1.5" height="1.5" rx="0.75" transform="translate(7 9)" fill="#374044"/>
  <rect id="Rectangle_1439" data-name="Rectangle 1439" width="1.5" height="1.5" rx="0.75" transform="translate(11 9)" fill="#374044"/>
  <rect id="Rectangle_1440" data-name="Rectangle 1440" width="1.5" height="1.5" rx="0.75" transform="translate(15 9)" fill="#374044"/>
  <rect id="Rectangle_1441" data-name="Rectangle 1441" width="1.5" height="1.5" rx="0.75" transform="translate(3 12)" fill="#374044"/>
  <rect id="Rectangle_1442" data-name="Rectangle 1442" width="1.5" height="1.5" rx="0.75" transform="translate(7 12)" fill="#374044"/>
  <rect id="Rectangle_1443" data-name="Rectangle 1443" width="1.5" height="1.5" rx="0.75" transform="translate(11 12)" fill="#374044"/>
  <rect id="Rectangle_1444" data-name="Rectangle 1444" width="1.5" height="1.5" rx="0.75" transform="translate(15 12)" fill="#374044"/>
  <rect id="Rectangle_1445" data-name="Rectangle 1445" width="1.5" height="1.5" rx="0.75" transform="translate(3 15)" fill="#374044"/>
  <rect id="Rectangle_1446" data-name="Rectangle 1446" width="1.5" height="1.5" rx="0.75" transform="translate(7 15)" fill="#374044"/>
  <rect id="Rectangle_1447" data-name="Rectangle 1447" width="1.5" height="1.5" rx="0.75" transform="translate(11 15)" fill="#374044"/>
  <rect id="Rectangle_1448" data-name="Rectangle 1448" width="1.5" height="1.5" rx="0.75" transform="translate(15 15)" fill="#374044"/>
</svg>
