<svg id="Composant_217_1" data-name="Composant 217 – 1" xmlns="http://www.w3.org/2000/svg" width="15" height="15" viewBox="0 0 15 15">
  <rect id="Rectangle_1642" data-name="Rectangle 1642" width="15" height="15" fill="#fff"/>
  <g id="Layer_18" data-name="Layer 18" transform="translate(-414.942 -731.044)">
    <path id="Tracé_2247" data-name="Tracé 2247" d="M416.367,744.72a.422.422,0,0,1-.425-.42c0-.016,0-.033,0-.049l.381-3.452a.417.417,0,0,1,.122-.254l8.062-8.057a1.5,1.5,0,0,1,2.127-.007l.007.007,1.554,1.534a1.5,1.5,0,0,1,.007,2.127l-.007.006-8.078,8.058a.423.423,0,0,1-.254.122l-3.452.385Zm3.452-.807-2.666-2.878-.309,2.785,2.785-.309,7.952-7.956a.669.669,0,0,0,0-.938l-1.534-1.533a.667.667,0,0,0-.938,0Z" fill="#374044"/>
    <path id="Tracé_2248" data-name="Tracé 2248" d="M426.727,737.427a.421.421,0,0,1-.3-.122l-3.071-3.072a.427.427,0,0,1,.612-.6l3.055,3.055a.437.437,0,0,1-.3.735Z" fill="#374044"/>
  </g>
</svg>
