<svg id="Calque_1" data-name="Calque 1" xmlns="http://www.w3.org/2000/svg" viewBox="0 0 24 24"><defs><style>.cls-1{fill:none;stroke:#586168;stroke-linecap:round;stroke-linejoin:round;}</style></defs><title>devis_en_cours</title><path class="cls-1" d="M7.53,9.14a.89.89,0,1,1-.64-.64A.89.89,0,0,1,7.53,9.14Z"/><line class="cls-1" x1="10.01" y1="9.03" x2="17.58" y2="9.03"/><path class="cls-1" d="M7.53,13.17a.89.89,0,0,1-1.08,1.08.9.9,0,0,1-.64-.64.89.89,0,0,1,1.72-.44Z"/><line class="cls-1" x1="10.01" y1="13.69" x2="17.58" y2="13.69"/><path class="cls-1" d="M7.75,3.79H5.55A1.17,1.17,0,0,0,4.39,5V21.84A1.16,1.16,0,0,0,5.55,23H18.47a1.14,1.14,0,0,0,1.14-1.14h0V5a1.17,1.17,0,0,0-1.16-1.17h-2.3"/><path class="cls-1" d="M13.29,2.34a1.34,1.34,0,0,0-2.68,0H7.75V5.25h8.4V2.34Z"/></svg>