<?xml version="1.0" encoding="utf-8"?>
<!-- Generator: Adobe Illustrator 22.1.0, SVG Export Plug-In . SVG Version: 6.00 Build 0)  -->
<svg version="1.1" id="lock" xmlns="http://www.w3.org/2000/svg" xmlns:xlink="http://www.w3.org/1999/xlink" x="0px" y="0px"
	 viewBox="0 0 149.1 186.4" style="enable-background:new 0 0 149.1 186.4;" xml:space="preserve">
<style type="text/css">
	.st0{fill:#374044;}
</style>
<g>
	<g>
		<path class="st0" d="M652.1,142.4C637.7,126.9,631.8,100,626,74c-9-40.6-19.2-86.3-65-91.7c1.2-1.8,1.9-3.9,1.9-6.2
			c0-6.2-5-11.2-11.2-11.2c-6.2,0-11.2,5-11.2,11.2c0,2.3,0.7,4.5,1.9,6.2c-44.2,5.8-56,53-66.6,95.1c-6.2,24.7-12.6,50.3-24.9,65.3
			l-1.7,2.1v2.7c0,8.8,9.6,13.6,34.2,17.3c15,2.2,33.9,3.6,54.4,4c-1.8,2.7-2.9,6-2.9,9.5c0,9.3,7.5,16.8,16.8,16.8
			c9.3,0,16.8-7.5,16.8-16.8c0-3.5-1.1-6.8-2.9-9.5c20.5-0.4,39.5-1.8,54.4-4c24.6-3.6,34.2-8.5,34.2-17.3v-2.9L652.1,142.4z
			 M551.6,154.1c-45.8,0-74.5-4.5-84.9-8c11.4-17.4,17.5-41.5,23.4-65C501,37.6,511.3-3.4,551.6-3.4c42,0,50.3,37.3,59.9,80.6
			c5.5,24.9,11.2,50.6,24.6,69C625.4,149.6,596.8,154.1,551.6,154.1z"/>
		<g>
			<path class="st0" d="M424.5,116.5c-4.3,9.5-6,18.6-6,28s1.7,18.5,6,28c2.3,5.1,4.4,7,8,7c4.4,0,7-3.7,7-7c0-5-7-9.7-7-28
				s7-23,7-28c0-3.3-2.6-7-7-7C428.9,109.5,426.8,111.4,424.5,116.5z"/>
			<path class="st0" d="M390.5,144.5c0,21.5,6.8,35.2,10,42c2.9,6.2,5.7,7,8.2,7c4.2,0,7-3.5,7-7c0-5.9-11.2-15.9-11.2-42
				s11.2-36.1,11.2-42c0-3.5-2.8-7-7-7c-2.5,0-5.2,0.8-8.2,7C397.3,109.3,390.5,123,390.5,144.5z"/>
		</g>
		<g>
			<path class="st0" d="M671.6,109.5c-4.4,0-7,3.7-7,7c0,5,7,9.7,7,28s-7,23-7,28c0,3.3,2.6,7,7,7c3.6,0,5.7-1.9,8-7
				c4.3-9.5,6-18.6,6-28s-1.7-18.5-6-28C677.3,111.4,675.1,109.5,671.6,109.5z"/>
			<path class="st0" d="M703.6,102.5c-2.9-6.2-5.7-7-8.2-7c-4.2,0-7,3.5-7,7c0,5.9,11.2,15.9,11.2,42s-11.2,36.1-11.2,42
				c0,3.5,2.8,7,7,7c2.5,0,5.2-0.8,8.2-7c3.2-6.8,10-20.4,10-42S706.8,109.3,703.6,102.5z"/>
		</g>
	</g>
</g>
<g id="Layer_13_9_">
	<path class="st0" d="M130.5,186.4H18.6C8.3,186.4,0,178.1,0,167.8V99.4c0-10.3,8.3-18.6,18.6-18.6h111.9c10.3,0,18.6,8.3,18.6,18.6
		v68.4C149.1,178.1,140.8,186.4,130.5,186.4z M18.6,93.2c-3.4,0-6.2,2.8-6.2,6.2v68.4c0,3.4,2.8,6.2,6.2,6.2h111.9
		c3.4,0,6.2-2.8,6.2-6.2V99.4c0-3.4-2.8-6.2-6.2-6.2H18.6z"/>
	<path class="st0" d="M124.3,93.2H24.9c-3.4,0-6.2-2.8-6.2-6.2V49.7C18.6,22.3,40.9,0,68.4,0h12.4c27.5,0,49.7,22.3,49.7,49.7V87
		C130.5,90.4,127.7,93.2,124.3,93.2z M31.1,80.8h87V49.7c0-20.6-16.7-37.3-37.3-37.3H68.4c-20.6,0-37.3,16.7-37.3,37.3V80.8z"/>
	<path class="st0" d="M74.6,136.7c-6.9,0-12.4-5.6-12.4-12.4s5.6-12.4,12.4-12.4c6.9,0,12.4,5.6,12.4,12.4S81.4,136.7,74.6,136.7z"
		/>
	<rect x="68.4" y="130.5" class="st0" width="12.4" height="24.9"/>
</g>
</svg>
