<svg id="svg" version="1.1" xmlns="http://www.w3.org/2000/svg" xmlns:xlink="http://www.w3.org/1999/xlink" width="400" height="239.96613039796782" viewBox="0, 0, 400,239.96613039796782">
  <g id="svgg">
    <path id="path0" d="M47.417 5.870 C 33.130 7.268,22.462 17.755,21.002 31.837 C 20.764 34.142,20.770 154.667,21.009 157.010 C 22.347 170.123,31.617 180.066,44.955 182.695 C 46.663 183.031,348.758 183.229,352.921 182.897 C 367.253 181.751,378.268 170.837,379.499 156.562 C 379.742 153.746,379.742 35.077,379.499 32.261 C 378.273 18.040,367.248 7.078,353.024 5.933 C 351.021 5.772,49.056 5.710,47.417 5.870 M355.560 7.454 C 366.605 9.342,375.337 17.779,377.848 28.990 L 378.239 30.737 378.239 94.412 L 378.239 158.086 377.848 159.829 C 375.433 170.612,367.732 178.428,356.816 181.175 L 355.038 181.622 266.554 181.661 L 178.069 181.699 179.518 181.131 C 190.031 177.010,196.995 167.731,197.958 156.562 C 198.201 153.746,198.201 35.077,197.958 32.261 C 196.995 21.088,190.030 11.809,179.518 7.692 L 178.069 7.125 265.817 7.119 C 353.008 7.113,353.578 7.115,355.560 7.454 M116.163 22.604 C 118.260 23.344,118.576 23.993,119.406 29.255 C 120.113 33.735,120.525 36.395,120.688 37.547 C 120.788 38.249,120.806 38.266,121.741 38.524 C 126.746 39.905,132.449 42.239,135.809 44.279 C 137.117 45.074,136.535 45.358,142.475 41.026 C 149.340 36.020,149.764 35.828,151.751 36.835 C 152.517 37.223,163.497 48.148,164.038 49.061 C 164.631 50.061,164.743 51.378,164.316 52.342 C 164.048 52.947,158.370 60.916,156.473 63.349 L 156.001 63.955 156.494 64.748 C 158.513 67.991,160.803 73.394,162.172 78.146 C 162.493 79.259,162.772 80.178,162.792 80.188 C 162.812 80.199,164.962 80.536,167.570 80.937 C 177.225 82.425,176.979 82.353,177.998 83.960 L 178.501 84.754 178.455 93.647 L 178.408 102.540 177.861 103.328 C 177.013 104.549,176.500 104.717,170.957 105.583 C 168.256 106.006,165.350 106.465,164.501 106.605 C 163.651 106.744,162.913 106.859,162.861 106.859 C 162.810 106.859,162.647 107.297,162.499 107.832 C 161.808 110.340,160.629 113.802,160.467 113.802 C 160.367 113.802,157.589 111.104,154.292 107.806 L 148.299 101.811 148.586 100.089 C 152.299 77.797,136.850 56.239,114.479 52.498 C 83.393 47.298,58.027 76.973,68.011 106.859 C 74.168 125.289,92.872 137.178,112.070 134.865 L 114.351 134.590 120.508 140.745 C 123.894 144.130,126.609 146.950,126.542 147.011 C 126.322 147.208,121.481 148.688,121.056 148.688 C 120.885 148.688,120.576 150.300,119.838 155.049 C 118.682 162.486,118.703 162.397,117.909 163.276 C 116.654 164.664,117.112 164.606,107.407 164.606 L 98.796 164.606 98.023 164.116 C 96.650 163.245,96.226 162.444,95.862 160.034 C 95.756 159.335,95.372 156.859,95.008 154.530 C 94.644 152.202,94.297 149.953,94.237 149.534 L 94.128 148.772 91.565 148.049 C 87.553 146.917,82.678 144.847,79.041 142.732 L 77.895 142.065 72.436 146.052 C 65.697 150.973,65.132 151.228,63.202 150.223 C 62.431 149.822,51.111 138.481,50.741 137.740 C 49.762 135.776,49.964 135.325,54.789 128.721 L 58.921 123.064 58.499 122.370 C 56.058 118.367,53.056 111.106,52.404 107.629 C 52.253 106.828,52.831 106.979,45.598 105.847 C 38.571 104.747,38.584 104.750,37.689 103.965 C 36.284 102.732,36.331 103.068,36.277 93.839 C 36.206 81.943,35.659 82.759,44.623 81.370 C 47.417 80.937,50.268 80.493,50.958 80.382 L 52.213 80.182 52.680 78.406 C 53.808 74.110,56.839 67.009,58.619 64.491 L 58.940 64.037 54.793 58.347 C 48.666 49.942,48.503 51.156,56.870 42.874 C 65.217 34.611,63.885 34.776,72.362 40.955 C 75.322 43.112,77.820 44.877,77.914 44.877 C 78.008 44.877,78.680 44.534,79.406 44.115 C 83.236 41.907,88.160 39.906,93.184 38.518 C 93.719 38.370,94.157 38.188,94.157 38.113 C 94.157 37.371,96.238 24.953,96.422 24.598 C 96.803 23.860,97.552 23.188,98.476 22.755 L 99.323 22.357 107.388 22.356 C 114.076 22.354,115.574 22.397,116.163 22.604 M112.982 68.742 C 126.838 71.731,135.883 84.976,133.519 98.815 L 133.287 100.169 147.399 114.310 C 161.728 128.669,162.178 129.154,163.169 131.300 C 168.493 142.822,157.142 154.902,145.265 150.354 C 142.478 149.286,142.360 149.180,127.265 134.135 L 113.209 120.125 112.108 120.349 C 93.706 124.095,77.331 106.113,82.246 87.553 C 83.201 83.947,82.729 83.674,92.714 93.625 C 102.098 102.977,101.762 102.710,104.149 102.710 C 106.364 102.710,106.640 102.527,111.059 98.152 C 115.473 93.782,115.919 93.128,115.919 91.028 C 115.919 88.705,116.244 89.112,106.813 79.648 C 96.656 69.455,96.967 70.030,101.051 69.026 C 104.653 68.140,109.643 68.021,112.982 68.742 " stroke="none" fill="#fc7c34" fill-rule="evenodd"></path>
    <path id="path1" d="M323.537 140.940 C 323.494 141.056,321.570 148.544,319.260 157.578 L 315.061 174.005 316.824 174.053 C 317.794 174.080,318.628 174.062,318.677 174.013 C 318.767 173.923,327.180 141.133,327.180 140.871 C 327.180 140.629,323.625 140.695,323.537 140.940 M355.954 147.674 C 350.426 148.538,347.276 153.547,347.276 161.473 C 347.276 170.134,351.045 175.292,357.409 175.340 C 363.915 175.388,367.711 170.280,367.711 161.473 C 367.711 152.082,363.014 146.570,355.954 147.674 M332.599 150.400 C 330.411 151.610,328.447 152.694,328.235 152.810 C 327.852 153.018,327.856 153.026,328.888 154.410 C 330.142 156.091,329.596 156.128,333.305 154.114 L 336.410 152.429 336.453 163.598 L 336.497 174.767 338.613 174.767 L 340.728 174.767 340.728 161.473 L 340.728 148.180 338.654 148.190 L 336.579 148.201 332.599 150.400 M359.960 151.995 C 364.892 155.046,364.546 168.917,359.480 171.217 C 357.747 172.004,355.425 171.544,354.065 170.145 C 350.681 166.664,350.718 156.140,354.127 152.732 C 355.622 151.237,358.206 150.911,359.960 151.995 M205.706 193.819 L 204.068 195.766 205.552 195.766 L 207.037 195.766 208.135 194.623 C 208.739 193.994,209.572 193.118,209.986 192.676 L 210.739 191.871 209.042 191.871 L 207.344 191.871 205.706 193.819 M370.651 193.819 L 369.013 195.766 370.497 195.766 L 371.982 195.766 373.080 194.623 C 373.684 193.994,374.517 193.118,374.931 192.676 L 375.684 191.871 373.987 191.871 L 372.289 191.871 370.651 193.819 M95.174 197.049 C 90.419 197.860,87.468 200.328,86.178 204.572 C 83.042 214.892,95.857 222.746,103.763 215.351 C 105.062 214.136,105.077 214.323,103.580 213.171 L 102.335 212.212 101.367 213.148 C 96.737 217.634,89.093 214.279,89.079 207.756 C 89.065 200.999,96.636 197.510,101.367 202.093 L 102.335 203.030 103.580 202.070 C 105.077 200.918,105.062 201.106,103.763 199.891 C 101.586 197.854,97.800 196.601,95.174 197.049 M21.169 207.621 L 21.169 217.782 22.777 217.782 L 24.386 217.782 24.386 207.621 L 24.386 197.460 22.777 197.460 L 21.169 197.460 21.169 207.621 M30.652 207.621 L 30.652 217.782 32.259 217.782 L 33.866 217.782 33.910 209.782 L 33.954 201.782 39.119 209.773 L 44.285 217.764 46.444 217.773 L 48.603 217.782 48.603 207.621 L 48.603 197.460 46.994 197.460 L 45.385 197.460 45.385 205.419 C 45.385 209.797,45.326 213.378,45.255 213.378 C 45.183 213.378,42.801 209.797,39.962 205.420 L 34.801 197.461 32.727 197.460 L 30.652 197.460 30.652 207.621 M54.869 207.621 L 54.869 217.812 59.738 217.739 C 65.115 217.658,65.665 217.576,67.824 216.519 C 75.026 212.994,75.026 202.247,67.824 198.722 C 65.665 197.666,65.115 197.583,59.738 197.502 L 54.869 197.429 54.869 207.621 M78.069 207.621 L 78.069 217.782 79.678 217.782 L 81.287 217.782 81.287 207.621 L 81.287 197.460 79.678 197.460 L 78.069 197.460 78.069 207.621 M109.229 207.621 L 109.229 217.782 114.818 217.782 L 120.406 217.782 120.406 216.427 L 120.406 215.072 116.427 215.072 L 112.447 215.072 112.447 211.939 L 112.447 208.806 115.834 208.806 L 119.221 208.806 119.221 207.451 L 119.221 206.097 115.834 206.097 L 112.447 206.097 112.447 203.133 L 112.447 200.169 116.427 200.169 L 120.406 200.169 120.406 198.815 L 120.406 197.460 114.818 197.460 L 109.229 197.460 109.229 207.621 M133.616 207.621 L 133.616 217.812 138.484 217.739 C 143.862 217.658,144.412 217.576,146.571 216.519 C 153.773 212.994,153.773 202.247,146.571 198.722 C 144.412 197.666,143.862 197.583,138.484 197.502 L 133.616 197.429 133.616 207.621 M156.816 207.621 L 156.816 217.782 162.405 217.782 L 167.993 217.782 167.993 216.427 L 167.993 215.072 164.014 215.072 L 160.034 215.072 160.034 211.939 L 160.034 208.806 163.421 208.806 L 166.808 208.806 166.808 207.451 L 166.808 206.097 163.421 206.097 L 160.034 206.097 160.034 203.133 L 160.034 200.169 164.014 200.169 L 167.993 200.169 167.993 198.815 L 167.993 197.460 162.405 197.460 L 156.816 197.460 156.816 207.621 M181.202 207.621 L 181.202 217.782 182.811 217.782 L 184.420 217.782 184.420 213.463 L 184.420 209.145 185.841 209.145 L 187.262 209.145 190.095 213.463 L 192.927 217.782 194.859 217.782 L 196.790 217.782 195.873 216.469 C 195.369 215.747,193.922 213.671,192.658 211.856 L 190.359 208.555 190.819 208.318 C 194.623 206.355,194.649 200.472,190.863 198.412 C 189.596 197.722,187.862 197.473,184.293 197.466 L 181.202 197.460 181.202 207.621 M200.000 207.621 L 200.000 217.782 205.588 217.782 L 211.177 217.782 211.177 216.427 L 211.177 215.072 207.197 215.072 L 203.218 215.072 203.218 211.939 L 203.218 208.806 206.605 208.806 L 209.992 208.806 209.992 207.451 L 209.992 206.097 206.605 206.097 L 203.218 206.097 203.218 203.133 L 203.218 200.169 207.197 200.169 L 211.177 200.169 211.177 198.815 L 211.177 197.460 205.588 197.460 L 200.000 197.460 200.000 207.621 M216.596 207.621 L 216.596 217.782 218.205 217.782 L 219.814 217.782 219.814 213.463 L 219.814 209.145 221.980 209.145 C 227.031 209.145,229.525 207.272,229.535 203.472 C 229.547 198.986,227.138 197.478,219.941 197.466 L 216.596 197.460 216.596 207.621 M233.287 207.070 C 231.244 212.356,229.471 216.928,229.348 217.231 L 229.123 217.782 230.904 217.782 C 231.883 217.782,232.684 217.711,232.684 217.626 C 232.684 217.540,233.151 216.243,233.722 214.744 L 234.760 212.018 239.181 212.063 L 243.602 212.108 244.689 214.945 L 245.777 217.782 247.506 217.782 L 249.235 217.782 245.299 207.663 L 241.363 197.544 239.183 197.502 L 237.003 197.459 233.287 207.070 M253.175 207.621 L 253.175 217.782 254.784 217.782 L 256.393 217.782 256.393 213.463 L 256.393 209.145 257.814 209.145 L 259.235 209.145 262.068 213.463 L 264.900 217.782 266.832 217.782 L 268.763 217.782 267.846 216.469 C 267.342 215.747,265.895 213.671,264.631 211.856 L 262.332 208.555 262.792 208.318 C 266.595 206.355,266.622 200.472,262.836 198.412 C 261.569 197.722,259.835 197.473,256.266 197.466 L 253.175 197.460 253.175 207.621 M274.439 207.070 C 272.396 212.356,270.623 216.928,270.499 217.231 L 270.275 217.782 272.055 217.782 C 273.035 217.782,273.836 217.711,273.836 217.626 C 273.836 217.540,274.303 216.243,274.874 214.744 L 275.912 212.018 280.332 212.063 L 284.753 212.108 285.841 214.945 L 286.929 217.782 288.658 217.782 L 290.387 217.782 286.451 207.663 L 282.515 197.544 280.334 197.502 L 278.154 197.459 274.439 207.070 M294.327 207.641 L 294.327 217.821 298.180 217.740 C 303.209 217.635,304.986 217.093,306.236 215.282 C 308.323 212.260,307.450 209.020,304.004 206.999 C 303.971 206.980,304.224 206.719,304.565 206.419 C 306.680 204.562,306.602 200.892,304.407 198.932 C 303.206 197.858,301.280 197.468,297.163 197.463 L 294.327 197.460 294.327 207.641 M312.108 207.621 L 312.108 217.782 313.717 217.782 L 315.326 217.782 315.326 207.621 L 315.326 197.460 313.717 197.460 L 312.108 197.460 312.108 207.621 M321.592 207.621 L 321.592 217.782 327.180 217.782 L 332.769 217.782 332.769 216.257 L 332.769 214.733 328.789 214.733 L 324.809 214.733 324.809 206.097 L 324.809 197.460 323.201 197.460 L 321.592 197.460 321.592 207.621 M337.003 207.621 L 337.003 217.782 338.611 217.782 L 340.220 217.782 340.220 207.621 L 340.220 197.460 338.611 197.460 L 337.003 197.460 337.003 207.621 M344.454 198.984 L 344.454 200.508 347.671 200.508 L 350.889 200.508 350.889 209.145 L 350.889 217.782 352.498 217.782 L 354.107 217.782 354.107 209.145 L 354.107 200.508 357.409 200.508 L 360.711 200.508 360.711 198.984 L 360.711 197.460 352.583 197.460 L 344.454 197.460 344.454 198.984 M364.945 207.621 L 364.945 217.782 370.533 217.782 L 376.122 217.782 376.122 216.427 L 376.122 215.072 372.142 215.072 L 368.163 215.072 368.163 211.939 L 368.163 208.806 371.550 208.806 L 374.936 208.806 374.936 207.451 L 374.936 206.097 371.550 206.097 L 368.163 206.097 368.163 203.133 L 368.163 200.169 372.142 200.169 L 376.122 200.169 376.122 198.815 L 376.122 197.460 370.533 197.460 L 364.945 197.460 364.945 207.621 M188.772 200.562 C 190.836 201.644,190.871 204.966,188.830 206.045 C 188.191 206.383,187.846 206.435,186.256 206.435 L 184.420 206.435 184.420 203.281 L 184.420 200.127 186.325 200.203 C 187.657 200.256,188.393 200.364,188.772 200.562 M224.154 200.420 C 226.810 201.209,226.999 205.105,224.434 206.202 C 224.072 206.357,223.205 206.435,221.851 206.435 L 219.814 206.435 219.814 203.302 L 219.814 200.169 221.561 200.169 C 222.612 200.169,223.645 200.269,224.154 200.420 M260.745 200.562 C 262.809 201.644,262.844 204.966,260.803 206.045 C 260.164 206.383,259.819 206.435,258.229 206.435 L 256.393 206.435 256.393 203.281 L 256.393 200.127 258.298 200.203 C 259.630 200.256,260.366 200.364,260.745 200.562 M301.426 200.597 C 302.720 201.355,303.150 202.884,302.466 204.297 C 301.929 205.406,301.119 205.758,299.100 205.758 L 297.544 205.758 297.544 202.944 L 297.544 200.130 299.200 200.196 C 300.454 200.247,300.993 200.344,301.426 200.597 M64.872 200.781 C 69.868 202.261,71.595 208.607,68.050 212.459 C 66.345 214.312,65.049 214.733,61.055 214.733 L 58.086 214.733 58.086 207.621 L 58.086 200.508 61.019 200.508 C 63.221 200.508,64.181 200.576,64.872 200.781 M143.619 200.781 C 148.615 202.261,150.342 208.607,146.797 212.459 C 145.092 214.312,143.796 214.733,139.802 214.733 L 136.833 214.733 136.833 207.621 L 136.833 200.508 139.766 200.508 C 141.967 200.508,142.928 200.576,143.619 200.781 M240.798 204.671 C 241.628 206.899,242.360 208.855,242.425 209.018 C 242.535 209.294,242.317 209.314,239.222 209.314 C 237.396 209.314,235.902 209.262,235.902 209.198 C 235.902 209.134,236.560 207.324,237.365 205.176 C 238.170 203.028,238.896 201.088,238.979 200.866 C 239.186 200.306,239.120 200.166,240.798 204.671 M281.950 204.671 C 282.779 206.899,283.511 208.855,283.576 209.018 C 283.686 209.294,283.468 209.314,280.374 209.314 C 278.548 209.314,277.053 209.262,277.053 209.198 C 277.053 209.134,277.712 207.324,278.517 205.176 C 279.322 203.028,280.048 201.088,280.130 200.866 C 280.338 200.306,280.271 200.166,281.950 204.671 M302.490 209.022 C 304.261 210.060,304.517 212.717,302.980 214.106 C 302.184 214.825,301.181 215.072,299.060 215.072 L 297.544 215.072 297.544 211.749 L 297.544 208.427 299.628 208.496 C 301.517 208.559,301.783 208.608,302.490 209.022 " stroke="none" fill="#050505" fill-rule="evenodd"></path>
    <path id="path2" d="M47.121 5.875 C 47.284 5.917,47.551 5.917,47.714 5.875 C 47.877 5.832,47.743 5.797,47.417 5.797 C 47.091 5.797,46.958 5.832,47.121 5.875 M352.119 5.879 C 352.377 5.918,352.758 5.917,352.966 5.877 C 353.174 5.837,352.964 5.805,352.498 5.806 C 352.032 5.808,351.862 5.840,352.119 5.879 M353.133 7.229 C 353.296 7.272,353.563 7.272,353.726 7.229 C 353.889 7.187,353.755 7.152,353.429 7.152 C 353.103 7.152,352.970 7.187,353.133 7.229 M188.315 12.917 C 188.315 12.943,188.906 13.533,189.627 14.229 L 190.940 15.495 189.674 14.183 C 188.498 12.964,188.315 12.793,188.315 12.917 M371.126 14.225 C 371.867 14.970,372.511 15.580,372.558 15.580 C 372.604 15.580,372.036 14.970,371.296 14.225 C 370.555 13.480,369.911 12.870,369.864 12.870 C 369.817 12.870,370.385 13.480,371.126 14.225 M369.009 13.933 C 369.009 13.959,369.600 14.549,370.322 15.246 L 371.634 16.511 370.368 15.199 C 369.193 13.980,369.009 13.809,369.009 13.933 M99.032 22.493 C 98.765 22.598,109.516 22.584,113.887 22.474 C 114.911 22.448,112.053 22.415,107.536 22.402 C 103.019 22.389,99.192 22.430,99.032 22.493 M378.193 32.007 C 378.193 32.333,378.228 32.466,378.271 32.303 C 378.313 32.140,378.313 31.873,378.271 31.710 C 378.228 31.547,378.193 31.681,378.193 32.007 M20.869 32.345 C 20.869 32.671,20.904 32.805,20.947 32.642 C 20.989 32.479,20.989 32.212,20.947 32.049 C 20.904 31.886,20.869 32.019,20.869 32.345 M198.014 32.854 C 198.014 33.273,198.047 33.444,198.087 33.235 C 198.128 33.025,198.128 32.682,198.087 32.472 C 198.047 32.263,198.014 32.434,198.014 32.854 M379.555 32.854 C 379.555 33.273,379.588 33.444,379.628 33.235 C 379.669 33.025,379.669 32.682,379.628 32.472 C 379.588 32.263,379.555 32.434,379.555 32.854 M64.566 36.531 C 64.824 36.570,65.205 36.569,65.413 36.529 C 65.621 36.489,65.411 36.457,64.945 36.458 C 64.479 36.460,64.309 36.492,64.566 36.531 M149.579 36.531 C 149.836 36.570,150.217 36.569,150.426 36.529 C 150.634 36.489,150.423 36.457,149.958 36.458 C 149.492 36.460,149.322 36.492,149.579 36.531 M158.086 43.014 C 161.159 46.088,163.711 48.603,163.758 48.603 C 163.804 48.603,161.328 46.088,158.256 43.014 C 155.183 39.941,152.631 37.426,152.584 37.426 C 152.538 37.426,155.014 39.941,158.086 43.014 M58.499 41.194 L 58.002 41.744 58.552 41.247 C 58.855 40.973,59.102 40.726,59.102 40.697 C 59.102 40.566,58.963 40.681,58.499 41.194 M56.727 42.972 L 55.631 44.115 56.774 43.019 C 57.836 42.001,57.994 41.829,57.870 41.829 C 57.844 41.829,57.329 42.343,56.727 42.972 M134.462 43.598 C 134.462 43.645,134.691 43.801,134.970 43.946 C 135.250 44.090,135.478 44.170,135.478 44.124 C 135.478 44.077,135.250 43.921,134.970 43.776 C 134.691 43.632,134.462 43.552,134.462 43.598 M54.943 44.750 L 54.445 45.301 54.996 44.803 C 55.509 44.340,55.624 44.200,55.493 44.200 C 55.464 44.200,55.216 44.448,54.943 44.750 M52.748 46.952 L 51.228 48.518 52.794 46.998 C 54.249 45.585,54.438 45.385,54.315 45.385 C 54.290 45.385,53.585 46.090,52.748 46.952 M50.342 50.974 C 50.342 51.393,50.376 51.564,50.416 51.355 C 50.456 51.145,50.456 50.802,50.416 50.593 C 50.376 50.383,50.342 50.555,50.342 50.974 M164.485 51.058 C 164.487 51.524,164.520 51.695,164.558 51.437 C 164.597 51.180,164.596 50.799,164.556 50.590 C 164.516 50.382,164.484 50.593,164.485 51.058 M104.787 51.943 C 105.091 51.981,105.549 51.980,105.803 51.941 C 106.058 51.903,105.809 51.872,105.250 51.873 C 104.691 51.874,104.483 51.906,104.787 51.943 M109.190 51.943 C 109.495 51.981,109.952 51.980,110.206 51.941 C 110.461 51.903,110.212 51.872,109.653 51.873 C 109.094 51.874,108.886 51.906,109.190 51.943 M102.754 52.110 C 102.965 52.150,103.269 52.149,103.431 52.106 C 103.593 52.064,103.421 52.031,103.048 52.033 C 102.676 52.034,102.543 52.069,102.754 52.110 M111.560 52.110 C 111.771 52.150,112.075 52.149,112.237 52.106 C 112.399 52.064,112.227 52.031,111.854 52.033 C 111.482 52.034,111.349 52.069,111.560 52.110 M135.471 62.701 C 135.887 63.144,136.249 63.506,136.276 63.506 C 136.403 63.506,136.268 63.353,135.521 62.652 L 134.716 61.897 135.471 62.701 M77.897 64.141 L 75.953 66.130 77.942 64.186 C 79.791 62.379,80.009 62.151,79.887 62.151 C 79.862 62.151,78.967 63.046,77.897 64.141 M138.181 65.411 C 138.596 65.853,138.958 66.215,138.985 66.215 C 139.112 66.215,138.978 66.063,138.230 65.361 L 137.426 64.606 138.181 65.411 M156.901 65.707 C 157.045 65.986,157.202 66.215,157.248 66.215 C 157.295 66.215,157.215 65.986,157.070 65.707 C 156.926 65.428,156.769 65.199,156.723 65.199 C 156.676 65.199,156.756 65.428,156.901 65.707 M74.151 68.374 C 73.664 68.962,73.457 69.263,73.541 69.263 C 73.588 69.263,73.830 68.997,74.078 68.671 C 74.540 68.066,74.596 67.837,74.151 68.374 M105.210 68.369 C 105.467 68.408,105.848 68.407,106.057 68.366 C 106.265 68.326,106.054 68.294,105.588 68.296 C 105.123 68.297,104.952 68.330,105.210 68.369 M109.187 68.367 C 109.397 68.407,109.740 68.407,109.949 68.367 C 110.159 68.326,109.987 68.293,109.568 68.293 C 109.149 68.293,108.978 68.326,109.187 68.367 M118.205 70.533 C 118.438 70.667,118.704 70.775,118.798 70.775 C 118.891 70.775,118.776 70.667,118.544 70.533 C 118.311 70.400,118.044 70.291,117.951 70.291 C 117.858 70.291,117.972 70.400,118.205 70.533 M106.689 79.509 C 111.206 84.026,114.939 87.722,114.986 87.722 C 115.033 87.722,111.375 84.026,106.859 79.509 C 102.342 74.992,98.608 71.296,98.562 71.296 C 98.515 71.296,102.173 74.992,106.689 79.509 M126.157 75.910 C 126.859 76.658,127.011 76.792,127.011 76.665 C 127.011 76.638,126.649 76.276,126.207 75.861 L 125.402 75.106 126.157 75.910 M52.933 77.319 C 52.871 77.568,52.853 77.803,52.893 77.843 C 52.933 77.883,53.016 77.713,53.079 77.465 C 53.141 77.216,53.159 76.981,53.119 76.941 C 53.079 76.901,52.996 77.071,52.933 77.319 M36.319 93.480 C 36.319 97.997,36.341 99.845,36.367 97.587 C 36.394 95.328,36.394 91.632,36.367 89.373 C 36.341 87.115,36.319 88.963,36.319 93.480 M82.895 85.691 C 82.462 86.169,82.646 86.214,83.101 85.741 C 83.308 85.527,83.415 85.351,83.339 85.351 C 83.264 85.351,83.064 85.504,82.895 85.691 M85.182 86.283 C 85.688 86.795,86.140 87.214,86.187 87.214 C 86.233 87.214,85.857 86.795,85.351 86.283 C 84.845 85.771,84.393 85.351,84.347 85.351 C 84.300 85.351,84.676 85.771,85.182 86.283 M86.367 87.437 C 86.367 87.466,86.615 87.713,86.918 87.987 L 87.468 88.484 86.971 87.934 C 86.507 87.421,86.367 87.306,86.367 87.437 M65.916 89.416 C 65.916 89.742,65.951 89.875,65.993 89.712 C 66.036 89.549,66.036 89.282,65.993 89.119 C 65.951 88.956,65.916 89.090,65.916 89.416 M88.230 89.299 C 88.230 89.329,88.478 89.576,88.781 89.850 L 89.331 90.347 88.834 89.797 C 88.370 89.284,88.230 89.169,88.230 89.299 M149.079 91.194 C 149.080 91.753,149.111 91.961,149.149 91.657 C 149.187 91.352,149.186 90.895,149.147 90.640 C 149.109 90.386,149.078 90.635,149.079 91.194 M89.416 90.485 C 89.416 90.514,89.663 90.762,89.966 91.035 L 90.517 91.533 90.019 90.982 C 89.555 90.469,89.416 90.354,89.416 90.485 M65.776 93.480 C 65.776 95.017,65.802 95.646,65.833 94.877 C 65.864 94.109,65.864 92.851,65.833 92.083 C 65.802 91.315,65.776 91.943,65.776 93.480 M81.496 91.448 C 81.496 91.774,81.531 91.907,81.573 91.744 C 81.616 91.581,81.616 91.315,81.573 91.152 C 81.531 90.989,81.496 91.122,81.496 91.448 M90.601 91.670 C 90.601 91.699,90.849 91.947,91.152 92.221 L 91.702 92.718 91.205 92.168 C 90.741 91.655,90.601 91.539,90.601 91.670 M81.350 94.327 C 81.350 95.305,81.378 95.705,81.412 95.216 C 81.446 94.727,81.446 93.927,81.412 93.438 C 81.378 92.949,81.350 93.349,81.350 94.327 M133.843 94.412 C 133.844 95.157,133.873 95.440,133.909 95.042 C 133.945 94.644,133.944 94.034,133.908 93.687 C 133.872 93.340,133.842 93.666,133.843 94.412 M93.649 94.719 C 93.649 94.748,93.897 94.995,94.200 95.269 L 94.750 95.766 94.253 95.216 C 93.789 94.703,93.649 94.588,93.649 94.719 M149.079 95.766 C 149.080 96.325,149.111 96.533,149.149 96.229 C 149.187 95.925,149.186 95.467,149.147 95.213 C 149.109 94.958,149.078 95.207,149.079 95.766 M81.496 97.375 C 81.496 97.701,81.531 97.834,81.573 97.671 C 81.616 97.508,81.616 97.242,81.573 97.079 C 81.531 96.916,81.496 97.049,81.496 97.375 M65.916 97.714 C 65.916 98.040,65.951 98.173,65.993 98.010 C 66.036 97.847,66.036 97.580,65.993 97.417 C 65.951 97.254,65.916 97.388,65.916 97.714 M98.561 99.630 C 98.561 99.659,98.808 99.906,99.111 100.180 L 99.661 100.677 99.164 100.127 C 98.700 99.614,98.561 99.499,98.561 99.630 M146.994 114.056 C 154.678 121.740,161.003 128.027,161.049 128.027 C 161.096 128.027,154.847 121.740,147.163 114.056 C 139.480 106.372,133.155 100.085,133.108 100.085 C 133.062 100.085,139.310 106.372,146.994 114.056 M154.276 107.790 C 157.582 111.097,160.324 113.802,160.371 113.802 C 160.417 113.802,157.751 111.097,154.445 107.790 C 151.140 104.483,148.397 101.778,148.351 101.778 C 148.304 101.778,150.971 104.483,154.276 107.790 M103.853 102.911 C 104.016 102.954,104.282 102.954,104.445 102.911 C 104.608 102.868,104.475 102.834,104.149 102.834 C 103.823 102.834,103.690 102.868,103.853 102.911 M162.687 106.802 C 162.625 106.864,162.575 106.998,162.577 107.099 C 162.578 107.223,162.619 107.220,162.704 107.090 C 162.772 106.984,162.981 106.860,163.167 106.813 C 163.494 106.731,163.494 106.728,163.153 106.709 C 162.959 106.698,162.749 106.740,162.687 106.802 M88.908 113.040 C 89.224 113.366,89.520 113.633,89.567 113.633 C 89.613 113.633,89.393 113.366,89.077 113.040 C 88.761 112.714,88.464 112.447,88.418 112.447 C 88.371 112.447,88.592 112.714,88.908 113.040 M91.956 115.557 C 91.956 115.604,92.185 115.804,92.464 116.003 C 92.743 116.202,92.972 116.327,92.972 116.280 C 92.972 116.234,92.743 116.033,92.464 115.834 C 92.185 115.635,91.956 115.510,91.956 115.557 M55.885 117.418 C 55.885 117.602,57.403 120.576,57.497 120.576 C 57.573 120.576,56.109 117.545,55.950 117.372 C 55.914 117.333,55.885 117.354,55.885 117.418 M99.153 119.390 C 99.340 119.470,99.606 119.536,99.746 119.536 C 99.906 119.536,99.875 119.482,99.661 119.390 C 99.475 119.310,99.208 119.245,99.069 119.245 C 98.908 119.245,98.940 119.299,99.153 119.390 M126.926 133.785 C 134.470 141.329,140.681 147.502,140.727 147.502 C 140.774 147.502,134.640 141.329,127.096 133.785 C 119.552 126.240,113.341 120.068,113.295 120.068 C 113.248 120.068,119.382 126.240,126.926 133.785 M106.393 120.701 C 107.022 120.734,108.050 120.734,108.679 120.701 C 109.308 120.669,108.793 120.642,107.536 120.642 C 106.279 120.642,105.764 120.669,106.393 120.701 M76.715 121.808 C 76.715 121.833,77.305 122.424,78.027 123.120 L 79.340 124.386 78.074 123.074 C 76.898 121.855,76.715 121.684,76.715 121.808 M79.594 124.524 C 79.594 124.553,79.841 124.801,80.144 125.074 L 80.694 125.572 80.197 125.021 C 79.733 124.508,79.594 124.393,79.594 124.524 M112.151 134.918 C 112.314 134.960,112.580 134.960,112.743 134.918 C 112.906 134.875,112.773 134.840,112.447 134.840 C 112.121 134.840,111.988 134.875,112.151 134.918 M103.514 135.087 C 103.677 135.130,103.944 135.130,104.107 135.087 C 104.270 135.045,104.136 135.010,103.810 135.010 C 103.484 135.010,103.351 135.045,103.514 135.087 M110.627 135.087 C 110.790 135.130,111.056 135.130,111.219 135.087 C 111.382 135.045,111.249 135.010,110.923 135.010 C 110.597 135.010,110.464 135.045,110.627 135.087 M164.307 135.478 C 164.307 135.804,164.342 135.938,164.384 135.775 C 164.427 135.612,164.427 135.345,164.384 135.182 C 164.342 135.019,164.307 135.152,164.307 135.478 M106.393 135.265 C 106.928 135.298,107.805 135.298,108.340 135.265 C 108.876 135.231,108.438 135.204,107.367 135.204 C 106.296 135.204,105.857 135.231,106.393 135.265 M50.342 135.986 C 50.342 136.406,50.376 136.577,50.416 136.367 C 50.456 136.158,50.456 135.815,50.416 135.605 C 50.376 135.396,50.342 135.567,50.342 135.986 M116.681 137.056 C 116.681 137.085,116.928 137.332,117.231 137.606 L 117.782 138.103 117.284 137.553 C 116.821 137.040,116.681 136.925,116.681 137.056 M56.816 144.115 C 60.075 147.375,62.780 150.042,62.826 150.042 C 62.873 150.042,60.245 147.375,56.986 144.115 C 53.727 140.855,51.022 138.188,50.976 138.188 C 50.929 138.188,53.557 140.855,56.816 144.115 M120.914 141.289 C 120.914 141.318,121.162 141.566,121.465 141.840 L 122.015 142.337 121.518 141.787 C 121.054 141.274,120.914 141.158,120.914 141.289 M160.283 147.206 L 159.272 148.264 160.330 147.253 C 160.912 146.697,161.389 146.221,161.389 146.195 C 161.389 146.070,161.222 146.223,160.283 147.206 M121.338 148.518 C 121.124 148.610,121.093 148.664,121.253 148.664 C 121.393 148.664,121.660 148.598,121.846 148.518 C 122.059 148.426,122.091 148.373,121.931 148.373 C 121.791 148.373,121.524 148.438,121.338 148.518 M149.827 151.350 C 150.128 151.387,150.661 151.388,151.012 151.351 C 151.364 151.315,151.118 151.284,150.466 151.283 C 149.814 151.283,149.526 151.313,149.827 151.350 M198.014 155.970 C 198.014 156.389,198.047 156.560,198.087 156.351 C 198.128 156.141,198.128 155.798,198.087 155.588 C 198.047 155.379,198.014 155.550,198.014 155.970 M379.555 155.970 C 379.555 156.389,379.588 156.560,379.628 156.351 C 379.669 156.141,379.669 155.798,379.628 155.588 C 379.588 155.379,379.555 155.550,379.555 155.970 M20.869 156.478 C 20.869 156.804,20.904 156.937,20.947 156.774 C 20.989 156.611,20.989 156.344,20.947 156.181 C 20.904 156.018,20.869 156.152,20.869 156.478 M378.193 156.816 C 378.193 157.142,378.228 157.276,378.271 157.113 C 378.313 156.950,378.313 156.683,378.271 156.520 C 378.228 156.357,378.193 156.490,378.193 156.816 M96.698 162.966 C 96.698 162.995,96.945 163.243,97.248 163.516 L 97.798 164.014 97.301 163.463 C 96.837 162.950,96.698 162.835,96.698 162.966 M97.883 164.022 C 97.883 164.146,98.920 164.628,99.072 164.574 C 99.155 164.545,98.921 164.394,98.553 164.238 C 98.184 164.082,97.883 163.985,97.883 164.022 M370.195 173.666 C 369.501 174.365,368.971 174.936,369.018 174.936 C 369.064 174.936,369.670 174.365,370.364 173.666 C 371.058 172.968,371.588 172.396,371.541 172.396 C 371.494 172.396,370.889 172.968,370.195 173.666 M189.500 174.682 C 188.807 175.381,188.277 175.953,188.323 175.953 C 188.370 175.953,188.976 175.381,189.670 174.682 C 190.364 173.984,190.893 173.412,190.847 173.412 C 190.800 173.412,190.194 173.984,189.500 174.682 M371.041 174.682 C 370.348 175.381,369.818 175.953,369.865 175.953 C 369.911 175.953,370.517 175.381,371.211 174.682 C 371.905 173.984,372.434 173.412,372.388 173.412 C 372.341 173.412,371.735 173.984,371.041 174.682 M353.133 181.658 C 353.296 181.700,353.563 181.700,353.726 181.658 C 353.889 181.615,353.755 181.580,353.429 181.580 C 353.103 181.580,352.970 181.615,353.133 181.658 M47.121 183.013 C 47.284 183.055,47.551 183.055,47.714 183.013 C 47.877 182.970,47.743 182.935,47.417 182.935 C 47.091 182.935,46.958 182.970,47.121 183.013 M352.202 183.015 C 352.411 183.056,352.754 183.056,352.964 183.015 C 353.173 182.975,353.002 182.942,352.583 182.942 C 352.163 182.942,351.992 182.975,352.202 183.015 " stroke="none" fill="#fc9259" fill-rule="evenodd"></path>
    <path id="path3" d="M360.373 152.297 C 360.373 152.326,360.620 152.574,360.923 152.847 L 361.473 153.345 360.976 152.794 C 360.512 152.281,360.373 152.166,360.373 152.297 M347.206 159.610 C 347.208 159.983,347.243 160.116,347.283 159.905 C 347.324 159.694,347.322 159.389,347.280 159.227 C 347.237 159.066,347.204 159.238,347.206 159.610 M351.606 159.526 C 351.606 159.852,351.641 159.985,351.683 159.822 C 351.726 159.659,351.726 159.392,351.683 159.229 C 351.641 159.066,351.606 159.200,351.606 159.526 M363.291 159.526 C 363.291 159.852,363.326 159.985,363.368 159.822 C 363.411 159.659,363.411 159.392,363.368 159.229 C 363.326 159.066,363.291 159.200,363.291 159.526 M367.697 159.610 C 367.699 159.983,367.734 160.116,367.774 159.905 C 367.815 159.694,367.813 159.389,367.771 159.227 C 367.728 159.066,367.695 159.238,367.697 159.610 M347.206 163.336 C 347.208 163.709,347.243 163.841,347.283 163.631 C 347.324 163.420,347.322 163.115,347.280 162.953 C 347.237 162.791,347.204 162.964,347.206 163.336 M367.697 163.336 C 367.699 163.709,367.734 163.841,367.774 163.631 C 367.815 163.420,367.813 163.115,367.771 162.953 C 367.728 162.791,367.695 162.964,367.697 163.336 M351.606 163.421 C 351.606 163.747,351.641 163.880,351.683 163.717 C 351.726 163.554,351.726 163.287,351.683 163.124 C 351.641 162.961,351.606 163.095,351.606 163.421 M363.291 163.421 C 363.291 163.747,363.326 163.880,363.368 163.717 C 363.411 163.554,363.411 163.287,363.368 163.124 C 363.326 162.961,363.291 163.095,363.291 163.421 M209.992 192.633 C 209.580 193.052,209.282 193.395,209.328 193.395 C 209.375 193.395,209.750 193.052,210.161 192.633 C 210.572 192.214,210.871 191.871,210.824 191.871 C 210.778 191.871,210.403 192.214,209.992 192.633 M374.936 192.633 C 374.525 193.052,374.227 193.395,374.273 193.395 C 374.320 193.395,374.694 193.052,375.106 192.633 C 375.517 192.214,375.816 191.871,375.769 191.871 C 375.723 191.871,375.348 192.214,374.936 192.633 M21.079 207.621 C 21.079 213.256,21.100 215.561,21.126 212.743 C 21.152 209.926,21.152 205.315,21.126 202.498 C 21.100 199.680,21.079 201.986,21.079 207.621 M30.562 207.621 C 30.562 213.256,30.583 215.561,30.610 212.743 C 30.636 209.926,30.636 205.315,30.610 202.498 C 30.583 199.680,30.562 201.986,30.562 207.621 M45.257 205.302 C 45.224 211.585,45.172 213.204,45.004 213.110 C 44.836 213.015,44.836 213.037,45.001 213.215 C 45.377 213.621,45.389 213.344,45.343 205.319 L 45.297 197.375 45.257 205.302 M54.779 207.621 C 54.779 213.256,54.800 215.561,54.826 212.743 C 54.852 209.926,54.852 205.315,54.826 202.498 C 54.800 199.680,54.779 201.986,54.779 207.621 M77.980 207.621 C 77.980 213.256,78.001 215.561,78.027 212.743 C 78.053 209.926,78.053 205.315,78.027 202.498 C 78.001 199.680,77.980 201.986,77.980 207.621 M109.140 207.621 C 109.140 213.256,109.161 215.561,109.187 212.743 C 109.213 209.926,109.213 205.315,109.187 202.498 C 109.161 199.680,109.140 201.986,109.140 207.621 M133.526 207.621 C 133.526 213.256,133.547 215.561,133.573 212.743 C 133.599 209.926,133.599 205.315,133.573 202.498 C 133.547 199.680,133.526 201.986,133.526 207.621 M156.726 207.621 C 156.726 213.256,156.748 215.561,156.774 212.743 C 156.800 209.926,156.800 205.315,156.774 202.498 C 156.748 199.680,156.726 201.986,156.726 207.621 M181.113 207.621 C 181.113 213.256,181.134 215.561,181.160 212.743 C 181.186 209.926,181.186 205.315,181.160 202.498 C 181.134 199.680,181.113 201.986,181.113 207.621 M199.910 207.621 C 199.910 213.256,199.931 215.561,199.958 212.743 C 199.984 209.926,199.984 205.315,199.958 202.498 C 199.931 199.680,199.910 201.986,199.910 207.621 M216.506 207.621 C 216.506 213.256,216.528 215.561,216.554 212.743 C 216.580 209.926,216.580 205.315,216.554 202.498 C 216.528 199.680,216.506 201.986,216.506 207.621 M253.085 207.621 C 253.085 213.256,253.107 215.561,253.133 212.743 C 253.159 209.926,253.159 205.315,253.133 202.498 C 253.107 199.680,253.085 201.986,253.085 207.621 M294.237 207.621 C 294.237 213.256,294.258 215.561,294.284 212.743 C 294.310 209.926,294.310 205.315,294.284 202.498 C 294.258 199.680,294.237 201.986,294.237 207.621 M312.019 207.621 C 312.019 213.256,312.040 215.561,312.066 212.743 C 312.092 209.926,312.092 205.315,312.066 202.498 C 312.040 199.680,312.019 201.986,312.019 207.621 M321.502 207.621 C 321.502 213.256,321.523 215.561,321.549 212.743 C 321.576 209.926,321.576 205.315,321.549 202.498 C 321.523 199.680,321.502 201.986,321.502 207.621 M336.913 207.621 C 336.913 213.256,336.934 215.561,336.960 212.743 C 336.986 209.926,336.986 205.315,336.960 202.498 C 336.934 199.680,336.913 201.986,336.913 207.621 M344.346 198.984 C 344.346 199.869,344.374 200.231,344.409 199.788 C 344.444 199.346,344.444 198.622,344.409 198.180 C 344.374 197.737,344.346 198.099,344.346 198.984 M364.855 207.621 C 364.855 213.256,364.876 215.561,364.903 212.743 C 364.929 209.926,364.929 205.315,364.903 202.498 C 364.876 199.680,364.855 201.986,364.855 207.621 M103.980 200.085 C 104.296 200.411,104.592 200.677,104.639 200.677 C 104.685 200.677,104.465 200.411,104.149 200.085 C 103.833 199.759,103.536 199.492,103.490 199.492 C 103.443 199.492,103.664 199.759,103.980 200.085 M95.893 200.121 C 96.149 200.160,96.569 200.160,96.825 200.121 C 97.081 200.082,96.871 200.051,96.359 200.051 C 95.847 200.051,95.637 200.082,95.893 200.121 M114.447 200.296 C 115.593 200.325,117.422 200.325,118.511 200.296 C 119.600 200.266,118.662 200.242,116.427 200.242 C 114.191 200.242,113.300 200.267,114.447 200.296 M162.033 200.296 C 163.180 200.325,165.009 200.325,166.098 200.296 C 167.187 200.266,166.249 200.242,164.014 200.242 C 161.778 200.242,160.887 200.267,162.033 200.296 M185.230 200.294 C 185.722 200.329,186.484 200.328,186.924 200.294 C 187.363 200.259,186.960 200.231,186.029 200.231 C 185.097 200.232,184.738 200.260,185.230 200.294 M205.217 200.296 C 206.363 200.325,208.192 200.325,209.282 200.296 C 210.371 200.266,209.433 200.242,207.197 200.242 C 204.962 200.242,204.071 200.267,205.217 200.296 M220.703 200.294 C 221.238 200.328,222.115 200.328,222.650 200.294 C 223.186 200.261,222.748 200.233,221.677 200.233 C 220.605 200.233,220.167 200.261,220.703 200.294 M257.203 200.294 C 257.695 200.329,258.457 200.328,258.896 200.294 C 259.336 200.259,258.933 200.231,258.002 200.231 C 257.070 200.232,256.711 200.260,257.203 200.294 M298.269 200.294 C 298.715 200.329,299.400 200.329,299.793 200.293 C 300.186 200.258,299.822 200.229,298.984 200.229 C 298.146 200.230,297.824 200.259,298.269 200.294 M370.162 200.296 C 371.308 200.325,373.137 200.325,374.226 200.296 C 375.316 200.266,374.378 200.242,372.142 200.242 C 369.907 200.242,369.016 200.267,370.162 200.296 M354.185 209.145 C 354.185 213.942,354.207 215.904,354.234 213.506 C 354.260 211.107,354.260 207.182,354.234 204.784 C 354.207 202.386,354.185 204.348,354.185 209.145 M91.186 202.244 L 90.517 202.964 91.236 202.294 C 91.632 201.926,91.956 201.602,91.956 201.574 C 91.956 201.446,91.808 201.575,91.186 202.244 M101.355 202.202 C 101.719 202.574,102.054 202.879,102.101 202.879 C 102.147 202.879,101.888 202.574,101.524 202.202 C 101.160 201.829,100.825 201.524,100.778 201.524 C 100.731 201.524,100.991 201.829,101.355 202.202 M119.255 207.405 L 119.221 208.799 115.792 208.849 L 112.362 208.898 115.797 208.937 C 119.729 208.981,119.434 209.120,119.347 207.266 L 119.288 206.012 119.255 207.405 M166.841 207.405 L 166.808 208.799 163.378 208.849 L 159.949 208.898 163.384 208.937 C 167.316 208.981,167.021 209.120,166.934 207.266 L 166.875 206.012 166.841 207.405 M210.025 207.405 L 209.992 208.799 206.562 208.849 L 203.133 208.898 206.568 208.937 C 210.499 208.981,210.205 209.120,210.118 207.266 L 210.059 206.012 210.025 207.405 M374.970 207.405 L 374.936 208.799 371.507 208.849 L 368.078 208.898 371.513 208.937 C 375.444 208.981,375.150 209.120,375.063 207.266 L 375.004 206.012 374.970 207.405 M69.811 206.943 C 69.811 207.269,69.846 207.403,69.888 207.240 C 69.931 207.077,69.931 206.810,69.888 206.647 C 69.846 206.484,69.811 206.617,69.811 206.943 M148.557 206.943 C 148.557 207.269,148.592 207.403,148.635 207.240 C 148.678 207.077,148.678 206.810,148.635 206.647 C 148.592 206.484,148.557 206.617,148.557 206.943 M69.811 208.298 C 69.811 208.624,69.846 208.757,69.888 208.594 C 69.931 208.431,69.931 208.165,69.888 208.002 C 69.846 207.839,69.811 207.972,69.811 208.298 M148.557 208.298 C 148.557 208.624,148.592 208.757,148.635 208.594 C 148.678 208.431,148.678 208.165,148.635 208.002 C 148.592 207.839,148.557 207.972,148.557 208.298 M89.116 208.467 C 89.116 208.793,89.151 208.927,89.194 208.764 C 89.236 208.601,89.236 208.334,89.194 208.171 C 89.151 208.008,89.116 208.141,89.116 208.467 M298.440 208.593 C 298.979 208.626,299.817 208.626,300.303 208.592 C 300.788 208.558,300.347 208.530,299.323 208.531 C 298.298 208.531,297.901 208.559,298.440 208.593 M184.843 209.252 C 186.056 209.378,187.431 209.389,187.358 209.272 C 187.314 209.202,186.617 209.157,185.807 209.172 C 184.998 209.187,184.564 209.223,184.843 209.252 M220.794 209.270 C 221.380 209.304,222.294 209.303,222.826 209.270 C 223.358 209.236,222.879 209.209,221.761 209.209 C 220.644 209.210,220.208 209.237,220.794 209.270 M256.816 209.252 C 258.029 209.378,259.403 209.389,259.331 209.272 C 259.287 209.202,258.590 209.157,257.780 209.172 C 256.971 209.187,256.537 209.223,256.816 209.252 M236.156 212.142 C 239.932 212.263,243.653 212.267,243.581 212.151 C 243.538 212.081,241.507 212.040,239.067 212.059 C 236.628 212.078,235.318 212.116,236.156 212.142 M277.307 212.142 C 281.083 212.263,284.805 212.267,284.733 212.151 C 284.689 212.081,282.658 212.040,280.219 212.059 C 277.779 212.078,276.469 212.116,277.307 212.142 M101.347 213.082 L 100.677 213.802 101.397 213.132 C 102.066 212.510,102.195 212.362,102.067 212.362 C 102.039 212.362,101.715 212.686,101.347 213.082 M103.971 215.199 L 103.387 215.834 104.022 215.250 C 104.613 214.707,104.735 214.564,104.606 214.564 C 104.577 214.564,104.292 214.850,103.971 215.199 M114.447 215.029 C 115.593 215.059,117.422 215.058,118.511 215.029 C 119.600 215.000,118.662 214.976,116.427 214.976 C 114.191 214.976,113.300 215.000,114.447 215.029 M162.033 215.029 C 163.180 215.059,165.009 215.058,166.098 215.029 C 167.187 215.000,166.249 214.976,164.014 214.976 C 161.778 214.976,160.887 215.000,162.033 215.029 M205.217 215.029 C 206.363 215.059,208.192 215.058,209.282 215.029 C 210.371 215.000,209.433 214.976,207.197 214.976 C 204.962 214.976,204.071 215.000,205.217 215.029 M298.349 215.027 C 298.838 215.062,299.638 215.062,300.127 215.027 C 300.616 214.993,300.216 214.965,299.238 214.965 C 298.260 214.965,297.860 214.993,298.349 215.027 M370.162 215.029 C 371.308 215.059,373.137 215.058,374.226 215.029 C 375.316 215.000,374.378 214.976,372.142 214.976 C 369.907 214.976,369.016 215.000,370.162 215.029 M95.893 215.193 C 96.149 215.232,96.569 215.232,96.825 215.193 C 97.081 215.154,96.871 215.123,96.359 215.123 C 95.847 215.123,95.637 215.154,95.893 215.193 " stroke="none" fill="#a0a0a0" fill-rule="evenodd"></path>
  </g>
</svg>