<svg id="svg" version="1.1" xmlns="http://www.w3.org/2000/svg" xmlns:xlink="http://www.w3.org/1999/xlink" width="400" height="239.96613039796782" viewBox="0, 0, 400,239.96613039796782">
  <g id="svgg">
    <path id="path0" d="M45.724 6.013 C 32.927 7.774,22.783 17.982,21.074 30.818 C 20.770 33.098,20.708 154.691,21.009 157.458 C 22.454 170.740,33.220 181.480,46.500 182.887 C 49.751 183.232,353.785 183.043,355.546 182.696 C 368.402 180.158,377.439 170.920,379.372 158.340 C 379.701 156.202,379.699 32.600,379.370 30.483 C 377.408 17.839,368.477 8.709,355.546 6.130 C 353.679 5.758,48.418 5.642,45.724 6.013 M356.326 7.570 C 367.438 10.040,375.881 18.633,377.922 29.551 C 378.417 32.197,378.417 156.626,377.922 159.272 C 375.879 170.198,367.446 178.782,356.326 181.254 L 354.699 181.615 266.469 181.660 L 178.239 181.706 179.850 181.053 C 189.624 177.095,196.210 168.774,197.829 158.340 C 198.158 156.223,198.160 32.621,197.831 30.483 C 196.252 20.205,189.592 11.733,180.045 7.856 L 178.239 7.123 266.469 7.165 L 354.699 7.208 356.326 7.570 M116.598 22.839 C 117.286 23.152,118.272 24.132,118.557 24.788 C 118.643 24.986,119.173 28.081,119.735 31.665 C 120.296 35.249,120.810 38.228,120.877 38.286 C 120.944 38.343,121.761 38.602,122.693 38.861 C 127.413 40.173,132.116 42.159,136.029 44.491 L 137.003 45.071 142.491 41.074 C 151.071 34.825,149.768 34.661,158.112 43.045 C 166.324 51.296,166.161 50.015,160.062 58.372 L 155.973 63.976 157.016 65.815 C 159.224 69.708,161.249 74.678,162.322 78.831 C 162.490 79.483,162.673 80.071,162.729 80.136 C 162.785 80.202,165.040 80.599,167.740 81.018 C 176.993 82.453,176.429 82.322,177.377 83.261 C 178.503 84.375,178.485 84.209,178.489 93.528 C 178.494 105.298,179.249 104.270,169.517 105.759 C 166.118 106.279,163.177 106.738,162.983 106.778 C 162.708 106.835,162.581 107.068,162.412 107.829 C 162.148 109.019,160.778 113.280,160.547 113.633 C 160.392 113.870,148.956 102.748,148.532 101.948 C 148.458 101.808,148.549 100.741,148.734 99.577 C 152.009 78.951,138.356 58.391,117.923 53.183 C 88.469 45.674,61.156 70.945,66.409 100.844 C 70.195 122.389,90.841 137.719,112.271 134.897 L 114.380 134.619 120.442 140.679 C 123.775 144.011,126.503 146.798,126.503 146.870 C 126.503 147.052,125.945 147.251,123.201 148.046 C 121.897 148.424,120.815 148.745,120.796 148.758 C 120.778 148.772,120.300 151.739,119.735 155.352 C 118.167 165.373,119.199 164.597,107.442 164.603 L 99.135 164.606 98.240 164.160 C 96.570 163.328,96.341 162.789,95.590 157.917 C 94.773 152.609,94.152 148.795,94.097 148.740 C 94.067 148.709,93.439 148.530,92.703 148.340 C 88.836 147.342,83.550 145.202,79.982 143.189 C 78.893 142.575,77.905 142.110,77.786 142.155 C 77.667 142.201,75.149 144.006,72.190 146.166 C 63.911 152.211,65.091 152.367,56.854 144.149 C 50.708 138.017,50.466 137.712,50.466 136.113 C 50.466 134.722,50.454 134.742,54.885 128.679 L 58.958 123.105 57.937 121.289 C 55.667 117.251,53.650 112.281,52.554 108.025 C 52.320 107.116,52.172 106.829,51.908 106.772 C 51.720 106.732,48.785 106.272,45.385 105.751 C 35.693 104.265,36.408 105.251,36.414 93.376 C 36.419 81.727,35.561 82.810,46.063 81.187 C 49.462 80.661,52.249 80.221,52.256 80.209 C 52.262 80.196,52.478 79.386,52.735 78.408 C 53.752 74.543,56.049 69.030,58.188 65.321 C 58.631 64.553,58.895 63.918,58.820 63.797 C 58.751 63.683,57.019 61.304,54.972 58.510 C 50.061 51.806,49.905 51.474,50.726 49.487 C 51.043 48.719,62.268 37.390,63.167 36.931 C 65.164 35.909,65.640 36.120,72.271 40.954 L 77.903 45.060 79.045 44.396 C 83.128 42.021,88.756 39.700,92.912 38.677 C 93.550 38.520,94.090 38.379,94.111 38.364 C 94.133 38.349,94.609 35.407,95.171 31.827 C 96.384 24.094,96.567 23.589,98.463 22.763 C 99.378 22.365,115.703 22.433,116.598 22.839 M112.642 68.738 C 126.614 71.567,135.946 85.114,133.461 98.962 L 133.222 100.296 147.316 114.373 C 155.067 122.116,161.640 128.793,161.923 129.213 C 166.570 136.112,164.576 145.120,157.456 149.392 C 153.067 152.026,146.879 151.799,142.465 148.843 C 142.022 148.547,135.296 141.953,127.519 134.190 L 113.378 120.077 111.939 120.343 C 94.615 123.546,78.734 107.679,81.719 90.152 C 82.858 83.466,82.365 83.310,92.714 93.633 C 101.910 102.806,101.702 102.637,103.941 102.760 C 106.226 102.886,106.650 102.605,111.365 97.850 C 115.880 93.298,116.106 92.945,115.960 90.686 C 115.818 88.482,115.952 88.646,106.836 79.546 C 96.611 69.338,96.856 69.894,102.117 68.830 C 105.406 68.165,109.632 68.128,112.642 68.738 " stroke="none" fill="#049c4c" fill-rule="evenodd"></path>
    <path id="path1" d="M323.608 140.771 C 323.599 140.794,321.674 148.281,319.330 157.409 L 315.069 174.005 316.829 174.053 C 317.796 174.080,318.625 174.065,318.670 174.020 C 318.754 173.935,327.180 141.106,327.180 140.863 C 327.180 140.747,323.652 140.656,323.608 140.771 M355.954 147.674 C 350.954 148.456,347.955 152.553,347.324 159.467 C 346.474 168.783,350.622 175.309,357.409 175.336 C 363.923 175.361,367.706 170.268,367.706 161.473 C 367.706 152.098,363.000 146.572,355.954 147.674 M332.769 150.317 C 330.673 151.479,328.709 152.562,328.404 152.723 L 327.849 153.018 328.887 154.409 C 330.140 156.088,329.570 156.127,333.291 154.113 L 336.410 152.425 336.453 163.596 L 336.497 174.767 338.613 174.767 L 340.728 174.767 340.728 161.473 L 340.728 148.180 338.654 148.192 L 336.579 148.204 332.769 150.317 M359.641 151.843 C 363.937 153.872,364.902 165.578,361.136 169.978 C 358.886 172.607,354.912 172.032,353.027 168.804 C 351.163 165.611,351.080 158.163,352.868 154.512 C 354.261 151.666,356.990 150.591,359.641 151.843 M205.797 193.724 C 203.916 195.954,203.930 195.766,205.636 195.766 L 207.038 195.766 208.050 194.708 C 208.607 194.126,209.440 193.249,209.902 192.760 L 210.741 191.871 209.050 191.871 L 207.360 191.871 205.797 193.724 M370.742 193.724 C 368.861 195.954,368.875 195.766,370.581 195.766 L 371.983 195.766 372.995 194.708 C 373.552 194.126,374.385 193.249,374.847 192.760 L 375.686 191.871 373.995 191.871 L 372.305 191.871 370.742 193.724 M95.174 197.049 C 89.776 197.970,86.561 201.163,85.853 206.308 C 84.525 215.950,96.226 222.070,103.534 215.556 C 104.997 214.252,104.997 214.278,103.551 213.159 L 102.301 212.192 101.507 213.041 C 97.054 217.801,89.096 214.329,89.083 207.621 C 89.070 200.933,97.060 197.447,101.507 202.201 L 102.301 203.049 103.551 202.082 C 104.997 200.964,104.997 200.989,103.534 199.685 C 101.411 197.793,97.690 196.620,95.174 197.049 M21.169 207.621 L 21.169 217.782 22.777 217.782 L 24.386 217.782 24.386 207.621 L 24.386 197.460 22.777 197.460 L 21.169 197.460 21.169 207.621 M30.652 207.621 L 30.652 217.782 32.259 217.782 L 33.866 217.782 33.910 209.776 L 33.954 201.771 39.122 209.734 L 44.290 217.697 46.446 217.744 L 48.603 217.792 48.603 207.626 L 48.603 197.460 46.994 197.460 L 45.385 197.460 45.385 205.419 C 45.385 209.797,45.324 213.378,45.248 213.378 C 45.173 213.378,42.791 209.797,39.956 205.421 L 34.801 197.463 32.727 197.461 L 30.652 197.460 30.652 207.621 M54.869 207.621 L 54.869 217.816 59.738 217.739 C 63.581 217.678,64.820 217.602,65.622 217.379 C 75.762 214.562,75.762 200.680,65.622 197.862 C 64.820 197.639,63.581 197.564,59.738 197.503 L 54.869 197.425 54.869 207.621 M78.069 207.621 L 78.069 217.782 79.678 217.782 L 81.287 217.782 81.287 207.621 L 81.287 197.460 79.678 197.460 L 78.069 197.460 78.069 207.621 M109.229 207.621 L 109.229 217.782 114.818 217.782 L 120.406 217.782 120.406 216.427 L 120.406 215.072 116.427 215.072 L 112.447 215.072 112.447 211.939 L 112.447 208.806 115.834 208.806 L 119.221 208.806 119.221 207.451 L 119.221 206.097 115.834 206.097 L 112.447 206.097 112.447 203.133 L 112.447 200.169 116.427 200.169 L 120.406 200.169 120.406 198.815 L 120.406 197.460 114.818 197.460 L 109.229 197.460 109.229 207.621 M133.616 207.621 L 133.616 217.816 138.484 217.739 C 142.328 217.678,143.567 217.602,144.369 217.379 C 154.508 214.562,154.508 200.680,144.369 197.862 C 143.567 197.639,142.328 197.564,138.484 197.503 L 133.616 197.425 133.616 207.621 M156.816 207.621 L 156.816 217.782 162.405 217.782 L 167.993 217.782 167.993 216.427 L 167.993 215.072 164.014 215.072 L 160.034 215.072 160.034 211.939 L 160.034 208.806 163.421 208.806 L 166.808 208.806 166.808 207.451 L 166.808 206.097 163.421 206.097 L 160.034 206.097 160.034 203.133 L 160.034 200.169 164.014 200.169 L 167.993 200.169 167.993 198.815 L 167.993 197.460 162.405 197.460 L 156.816 197.460 156.816 207.621 M181.202 207.621 L 181.202 217.782 182.811 217.782 L 184.420 217.782 184.420 213.463 L 184.420 209.145 185.843 209.145 L 187.265 209.145 190.105 213.463 L 192.944 217.782 194.872 217.782 L 196.800 217.782 196.048 216.723 C 195.635 216.141,194.185 214.065,192.826 212.110 L 190.356 208.555 190.941 208.255 C 194.096 206.636,194.630 201.543,191.898 199.137 C 190.443 197.857,188.639 197.468,184.124 197.463 L 181.202 197.460 181.202 207.621 M200.000 207.621 L 200.000 217.782 205.588 217.782 L 211.177 217.782 211.177 216.427 L 211.177 215.072 207.197 215.072 L 203.218 215.072 203.218 211.939 L 203.218 208.806 206.605 208.806 L 209.992 208.806 209.992 207.451 L 209.992 206.097 206.605 206.097 L 203.218 206.097 203.218 203.133 L 203.218 200.169 207.197 200.169 L 211.177 200.169 211.177 198.815 L 211.177 197.460 205.588 197.460 L 200.000 197.460 200.000 207.621 M216.596 207.601 L 216.596 217.782 218.205 217.782 L 219.814 217.782 219.814 213.481 L 219.814 209.181 222.396 209.108 C 227.333 208.970,229.482 207.247,229.533 203.387 C 229.589 199.114,227.335 197.640,220.533 197.501 L 216.596 197.420 216.596 207.601 M236.842 198.005 C 236.672 198.412,230.641 213.888,229.281 217.406 L 229.132 217.793 230.861 217.745 L 232.591 217.697 233.205 216.088 C 233.542 215.203,234.028 213.926,234.283 213.249 L 234.748 212.018 239.178 212.063 L 243.607 212.108 244.693 214.945 L 245.779 217.782 247.445 217.782 C 248.361 217.782,249.111 217.717,249.111 217.637 C 249.111 217.558,247.367 213.004,245.235 207.519 L 241.360 197.544 239.217 197.497 L 237.074 197.450 236.842 198.005 M253.175 207.621 L 253.175 217.782 254.784 217.782 L 256.393 217.782 256.393 213.463 L 256.393 209.145 257.816 209.145 L 259.238 209.145 262.078 213.463 L 264.917 217.782 266.845 217.782 L 268.772 217.782 268.021 216.723 C 267.608 216.141,266.158 214.065,264.799 212.110 L 262.329 208.555 262.914 208.255 C 266.069 206.636,266.603 201.543,263.871 199.137 C 262.416 197.857,260.612 197.468,256.097 197.463 L 253.175 197.460 253.175 207.621 M277.994 198.005 C 277.824 198.412,271.793 213.888,270.433 217.406 L 270.283 217.793 272.013 217.745 L 273.742 217.697 274.356 216.088 C 274.694 215.203,275.179 213.926,275.435 213.249 L 275.900 212.018 280.329 212.063 L 284.759 212.108 285.845 214.945 L 286.930 217.782 288.596 217.782 C 289.513 217.782,290.262 217.717,290.262 217.637 C 290.262 217.558,288.518 213.004,286.387 207.519 L 282.511 197.544 280.368 197.497 L 278.226 197.450 277.994 198.005 M294.327 207.621 L 294.327 217.825 298.180 217.737 C 302.980 217.629,304.199 217.319,305.739 215.820 C 308.114 213.508,307.727 209.458,304.954 207.625 C 304.465 207.301,304.032 207.015,303.993 206.989 C 303.953 206.963,304.228 206.678,304.604 206.357 C 306.592 204.655,306.616 201.264,304.654 199.296 C 303.205 197.842,302.320 197.609,297.841 197.502 L 294.327 197.418 294.327 207.621 M312.108 207.621 L 312.108 217.782 313.717 217.782 L 315.326 217.782 315.326 207.621 L 315.326 197.460 313.717 197.460 L 312.108 197.460 312.108 207.621 M321.592 207.621 L 321.592 217.782 327.180 217.782 L 332.769 217.782 332.769 216.257 L 332.769 214.733 328.789 214.733 L 324.809 214.733 324.809 206.097 L 324.809 197.460 323.201 197.460 L 321.592 197.460 321.592 207.621 M337.003 207.621 L 337.003 217.782 338.611 217.782 L 340.220 217.782 340.220 207.621 L 340.220 197.460 338.611 197.460 L 337.003 197.460 337.003 207.621 M344.454 198.984 L 344.454 200.508 347.671 200.508 L 350.889 200.508 350.889 209.145 L 350.889 217.782 352.498 217.782 L 354.107 217.782 354.107 209.145 L 354.107 200.508 357.409 200.508 L 360.711 200.508 360.711 198.984 L 360.711 197.460 352.583 197.460 L 344.454 197.460 344.454 198.984 M364.945 207.621 L 364.945 217.782 370.533 217.782 L 376.122 217.782 376.122 216.427 L 376.122 215.072 372.142 215.072 L 368.163 215.072 368.163 211.939 L 368.163 208.806 371.550 208.806 L 374.936 208.806 374.936 207.451 L 374.936 206.097 371.550 206.097 L 368.163 206.097 368.163 203.133 L 368.163 200.169 372.142 200.169 L 376.122 200.169 376.122 198.815 L 376.122 197.460 370.533 197.460 L 364.945 197.460 364.945 207.621 M188.183 200.346 C 190.077 200.872,190.932 203.074,189.957 204.918 C 189.332 206.100,188.515 206.435,186.256 206.435 L 184.420 206.435 184.420 203.302 L 184.420 200.169 185.986 200.170 C 186.848 200.171,187.836 200.250,188.183 200.346 M224.674 200.560 C 226.747 201.656,226.782 204.961,224.732 206.045 C 224.077 206.391,223.759 206.435,221.904 206.435 L 219.814 206.435 219.814 203.282 L 219.814 200.129 221.973 200.202 C 223.564 200.255,224.275 200.349,224.674 200.560 M260.156 200.346 C 262.050 200.872,262.905 203.074,261.930 204.918 C 261.305 206.100,260.488 206.435,258.229 206.435 L 256.393 206.435 256.393 203.302 L 256.393 200.169 257.959 200.170 C 258.821 200.171,259.809 200.250,260.156 200.346 M301.426 200.597 C 302.704 201.345,303.132 202.829,302.489 204.282 C 301.982 205.428,301.238 205.758,299.160 205.758 L 297.544 205.758 297.544 202.944 L 297.544 200.130 299.200 200.196 C 300.454 200.247,300.993 200.344,301.426 200.597 M65.591 200.996 C 70.289 202.863,71.406 209.336,67.638 212.861 C 65.959 214.432,65.300 214.624,61.346 214.698 L 58.086 214.759 58.086 207.621 L 58.086 200.482 61.346 200.543 C 64.271 200.598,64.708 200.645,65.591 200.996 M144.338 200.996 C 149.036 202.863,150.152 209.336,146.384 212.861 C 144.706 214.432,144.047 214.624,140.093 214.698 L 136.833 214.759 136.833 207.621 L 136.833 200.482 140.093 200.543 C 143.018 200.598,143.454 200.645,144.338 200.996 M240.875 204.848 C 241.676 207.002,242.379 208.888,242.437 209.039 C 242.532 209.287,242.217 209.314,239.222 209.314 C 237.344 209.314,235.902 209.247,235.902 209.160 C 235.902 209.076,236.590 207.189,237.430 204.969 C 238.271 202.748,239.000 200.817,239.050 200.677 C 239.182 200.312,239.214 200.385,240.875 204.848 M282.026 204.848 C 282.827 207.002,283.531 208.888,283.589 209.039 C 283.684 209.287,283.368 209.314,280.374 209.314 C 278.495 209.314,277.053 209.247,277.053 209.160 C 277.053 209.076,277.741 207.189,278.582 204.969 C 279.422 202.748,280.151 200.817,280.202 200.677 C 280.334 200.312,280.366 200.385,282.026 204.848 M302.490 209.022 C 304.224 210.038,304.520 212.530,303.085 214.018 C 302.360 214.770,301.247 215.072,299.207 215.072 L 297.544 215.072 297.544 211.749 L 297.544 208.427 299.628 208.496 C 301.517 208.559,301.783 208.608,302.490 209.022 " stroke="none" fill="#040404" fill-rule="evenodd"></path>
    <path id="path2" d="M370.195 15.157 C 370.795 15.762,371.324 16.257,371.370 16.257 C 371.417 16.257,370.964 15.762,370.364 15.157 C 369.764 14.551,369.235 14.056,369.188 14.056 C 369.142 14.056,369.595 14.551,370.195 15.157 M56.815 43.057 L 50.889 49.026 56.859 43.100 C 62.407 37.592,62.904 37.087,62.785 37.087 C 62.761 37.087,60.075 39.773,56.815 43.057 M104.109 51.940 C 104.319 51.981,104.624 51.979,104.786 51.937 C 104.948 51.894,104.776 51.861,104.403 51.863 C 104.030 51.865,103.898 51.900,104.109 51.940 M110.205 51.940 C 110.416 51.981,110.721 51.979,110.883 51.937 C 111.044 51.894,110.872 51.861,110.500 51.863 C 110.127 51.865,109.995 51.900,110.205 51.940 M136.918 64.014 C 137.471 64.572,137.961 65.030,138.008 65.030 C 138.055 65.030,137.640 64.572,137.087 64.014 C 136.534 63.455,136.044 62.997,135.997 62.997 C 135.950 62.997,136.365 63.455,136.918 64.014 M106.654 68.373 C 107.239 68.406,108.154 68.406,108.686 68.372 C 109.218 68.339,108.738 68.312,107.621 68.312 C 106.503 68.312,106.068 68.340,106.654 68.373 M92.464 93.565 C 96.887 97.989,100.545 101.609,100.591 101.609 C 100.638 101.609,97.057 97.989,92.633 93.565 C 88.210 89.141,84.553 85.521,84.506 85.521 C 84.459 85.521,88.041 89.141,92.464 93.565 M65.750 90.855 C 65.752 91.228,65.786 91.360,65.827 91.150 C 65.867 90.939,65.866 90.634,65.823 90.472 C 65.781 90.310,65.748 90.483,65.750 90.855 M116.046 91.025 C 116.048 91.397,116.083 91.530,116.123 91.319 C 116.164 91.108,116.162 90.803,116.120 90.642 C 116.077 90.480,116.044 90.652,116.046 91.025 M133.655 92.295 C 133.655 92.621,133.690 92.754,133.732 92.591 C 133.775 92.428,133.775 92.161,133.732 91.998 C 133.690 91.835,133.655 91.969,133.655 92.295 M111.177 98.052 C 109.223 100.008,107.662 101.609,107.708 101.609 C 107.755 101.609,109.392 100.008,111.346 98.052 C 113.301 96.097,114.861 94.496,114.815 94.496 C 114.768 94.496,113.131 96.097,111.177 98.052 M65.753 96.190 C 65.753 96.609,65.786 96.780,65.827 96.571 C 65.867 96.361,65.867 96.018,65.827 95.809 C 65.786 95.599,65.753 95.771,65.753 96.190 M149.066 96.528 C 149.066 96.854,149.100 96.988,149.143 96.825 C 149.186 96.662,149.186 96.395,149.143 96.232 C 149.100 96.069,149.066 96.202,149.066 96.528 M103.683 102.916 C 103.939 102.954,104.359 102.954,104.615 102.916 C 104.871 102.877,104.661 102.845,104.149 102.845 C 103.637 102.845,103.427 102.877,103.683 102.916 M177.212 103.853 L 176.715 104.403 177.265 103.906 C 177.778 103.442,177.893 103.302,177.762 103.302 C 177.733 103.302,177.486 103.550,177.212 103.853 M89.416 113.347 C 89.416 113.376,89.663 113.624,89.966 113.897 L 90.517 114.395 90.019 113.844 C 89.555 113.331,89.416 113.216,89.416 113.347 M107.155 120.698 C 107.458 120.736,107.953 120.736,108.256 120.698 C 108.558 120.661,108.311 120.630,107.705 120.630 C 107.100 120.630,106.852 120.661,107.155 120.698 M76.799 121.931 C 77.163 122.303,77.499 122.608,77.545 122.608 C 77.592 122.608,77.332 122.303,76.969 121.931 C 76.605 121.558,76.269 121.253,76.223 121.253 C 76.176 121.253,76.436 121.558,76.799 121.931 M78.916 124.047 C 79.232 124.373,79.529 124.640,79.575 124.640 C 79.622 124.640,79.401 124.373,79.086 124.047 C 78.770 123.721,78.473 123.455,78.426 123.455 C 78.380 123.455,78.600 123.721,78.916 124.047 M120.322 140.728 C 123.674 144.081,126.455 146.825,126.501 146.825 C 126.548 146.825,123.843 144.081,120.491 140.728 C 117.139 137.375,114.358 134.632,114.312 134.632 C 114.265 134.632,116.970 137.375,120.322 140.728 M105.465 135.262 C 105.769 135.300,106.226 135.299,106.481 135.261 C 106.735 135.222,106.486 135.191,105.927 135.192 C 105.368 135.193,105.160 135.225,105.465 135.262 M108.597 135.261 C 108.854 135.300,109.235 135.299,109.443 135.259 C 109.652 135.219,109.441 135.187,108.975 135.188 C 108.510 135.189,108.339 135.222,108.597 135.261 M56.816 144.115 C 59.889 147.189,62.441 149.704,62.487 149.704 C 62.534 149.704,60.058 147.189,56.986 144.115 C 53.913 141.041,51.361 138.527,51.314 138.527 C 51.268 138.527,53.744 141.041,56.816 144.115 M378.193 156.308 C 378.193 156.634,378.228 156.768,378.271 156.605 C 378.313 156.442,378.313 156.175,378.271 156.012 C 378.228 155.849,378.193 155.982,378.193 156.308 M370.190 173.709 L 369.094 174.852 370.237 173.756 C 370.866 173.153,371.380 172.639,371.380 172.613 C 371.380 172.488,371.208 172.647,370.190 173.709 M21.079 207.621 C 21.079 213.256,21.100 215.561,21.126 212.743 C 21.152 209.926,21.152 205.315,21.126 202.498 C 21.100 199.680,21.079 201.986,21.079 207.621 M30.562 207.621 C 30.562 213.256,30.583 215.561,30.610 212.743 C 30.636 209.926,30.636 205.315,30.610 202.498 C 30.583 199.680,30.562 201.986,30.562 207.621 M54.779 207.621 C 54.779 213.256,54.800 215.561,54.826 212.743 C 54.852 209.926,54.852 205.315,54.826 202.498 C 54.800 199.680,54.779 201.986,54.779 207.621 M77.980 207.621 C 77.980 213.256,78.001 215.561,78.027 212.743 C 78.053 209.926,78.053 205.315,78.027 202.498 C 78.001 199.680,77.980 201.986,77.980 207.621 M109.140 207.621 C 109.140 213.256,109.161 215.561,109.187 212.743 C 109.213 209.926,109.213 205.315,109.187 202.498 C 109.161 199.680,109.140 201.986,109.140 207.621 M133.526 207.621 C 133.526 213.256,133.547 215.561,133.573 212.743 C 133.599 209.926,133.599 205.315,133.573 202.498 C 133.547 199.680,133.526 201.986,133.526 207.621 M156.726 207.621 C 156.726 213.256,156.748 215.561,156.774 212.743 C 156.800 209.926,156.800 205.315,156.774 202.498 C 156.748 199.680,156.726 201.986,156.726 207.621 M181.113 207.621 C 181.113 213.256,181.134 215.561,181.160 212.743 C 181.186 209.926,181.186 205.315,181.160 202.498 C 181.134 199.680,181.113 201.986,181.113 207.621 M199.910 207.621 C 199.910 213.256,199.931 215.561,199.958 212.743 C 199.984 209.926,199.984 205.315,199.958 202.498 C 199.931 199.680,199.910 201.986,199.910 207.621 M216.506 207.621 C 216.506 213.256,216.528 215.561,216.554 212.743 C 216.580 209.926,216.580 205.315,216.554 202.498 C 216.528 199.680,216.506 201.986,216.506 207.621 M253.085 207.621 C 253.085 213.256,253.107 215.561,253.133 212.743 C 253.159 209.926,253.159 205.315,253.133 202.498 C 253.107 199.680,253.085 201.986,253.085 207.621 M294.237 207.621 C 294.237 213.256,294.258 215.561,294.284 212.743 C 294.310 209.926,294.310 205.315,294.284 202.498 C 294.258 199.680,294.237 201.986,294.237 207.621 M312.019 207.621 C 312.019 213.256,312.040 215.561,312.066 212.743 C 312.092 209.926,312.092 205.315,312.066 202.498 C 312.040 199.680,312.019 201.986,312.019 207.621 M321.502 207.621 C 321.502 213.256,321.523 215.561,321.549 212.743 C 321.576 209.926,321.576 205.315,321.549 202.498 C 321.523 199.680,321.502 201.986,321.502 207.621 M336.913 207.621 C 336.913 213.256,336.934 215.561,336.960 212.743 C 336.986 209.926,336.986 205.315,336.960 202.498 C 336.934 199.680,336.913 201.986,336.913 207.621 M344.346 198.984 C 344.346 199.869,344.374 200.231,344.409 199.788 C 344.444 199.346,344.444 198.622,344.409 198.180 C 344.374 197.737,344.346 198.099,344.346 198.984 M364.855 207.621 C 364.855 213.256,364.876 215.561,364.903 212.743 C 364.929 209.926,364.929 205.315,364.903 202.498 C 364.876 199.680,364.855 201.986,364.855 207.621 M103.895 200.000 C 104.259 200.373,104.595 200.677,104.641 200.677 C 104.688 200.677,104.428 200.373,104.064 200.000 C 103.701 199.627,103.365 199.323,103.318 199.323 C 103.272 199.323,103.531 199.627,103.895 200.000 M91.183 202.244 L 90.686 202.794 91.236 202.297 C 91.749 201.833,91.864 201.693,91.734 201.693 C 91.704 201.693,91.457 201.941,91.183 202.244 M100.931 201.746 C 100.931 201.776,101.179 202.023,101.482 202.297 L 102.032 202.794 101.535 202.244 C 101.071 201.731,100.931 201.616,100.931 201.746 M302.668 202.964 C 302.669 203.336,302.704 203.469,302.745 203.258 C 302.785 203.047,302.784 202.742,302.741 202.581 C 302.699 202.419,302.666 202.591,302.668 202.964 M190.221 203.302 C 190.222 203.675,190.257 203.807,190.298 203.597 C 190.338 203.386,190.337 203.081,190.294 202.919 C 190.252 202.757,190.219 202.930,190.221 203.302 M226.122 203.302 C 226.124 203.675,226.159 203.807,226.199 203.597 C 226.240 203.386,226.238 203.081,226.196 202.919 C 226.154 202.757,226.120 202.930,226.122 203.302 M262.193 203.302 C 262.195 203.675,262.230 203.807,262.270 203.597 C 262.311 203.386,262.309 203.081,262.267 202.919 C 262.225 202.757,262.192 202.930,262.193 203.302 M119.255 207.405 L 119.221 208.799 115.792 208.849 L 112.362 208.898 115.797 208.937 C 119.729 208.981,119.434 209.120,119.347 207.266 L 119.288 206.012 119.255 207.405 M166.841 207.405 L 166.808 208.799 163.378 208.849 L 159.949 208.898 163.384 208.937 C 167.316 208.981,167.021 209.120,166.934 207.266 L 166.875 206.012 166.841 207.405 M210.025 207.405 L 209.992 208.799 206.562 208.849 L 203.133 208.898 206.568 208.937 C 210.499 208.981,210.205 209.120,210.118 207.266 L 210.059 206.012 210.025 207.405 M374.970 207.405 L 374.936 208.799 371.507 208.849 L 368.078 208.898 371.513 208.937 C 375.444 208.981,375.150 209.120,375.063 207.266 L 375.004 206.012 374.970 207.405 M69.822 207.621 C 69.822 208.133,69.854 208.343,69.893 208.086 C 69.931 207.830,69.931 207.411,69.893 207.155 C 69.854 206.899,69.822 207.108,69.822 207.621 M148.569 207.621 C 148.569 208.133,148.601 208.343,148.640 208.086 C 148.678 207.830,148.678 207.411,148.640 207.155 C 148.601 206.899,148.569 207.108,148.569 207.621 M298.264 208.592 C 298.707 208.627,299.431 208.627,299.873 208.592 C 300.315 208.557,299.953 208.528,299.069 208.528 C 298.184 208.528,297.822 208.557,298.264 208.592 M185.055 209.269 C 185.451 209.304,186.099 209.304,186.494 209.269 C 186.890 209.233,186.566 209.204,185.775 209.204 C 184.983 209.204,184.659 209.233,185.055 209.269 M220.794 209.270 C 221.380 209.304,222.294 209.303,222.826 209.270 C 223.358 209.236,222.879 209.209,221.761 209.209 C 220.644 209.210,220.208 209.237,220.794 209.270 M257.028 209.269 C 257.424 209.304,258.072 209.304,258.467 209.269 C 258.863 209.233,258.539 209.204,257.748 209.204 C 256.956 209.204,256.632 209.233,257.028 209.269 M303.853 211.770 C 303.855 212.142,303.890 212.275,303.930 212.064 C 303.971 211.853,303.969 211.549,303.927 211.387 C 303.884 211.225,303.851 211.397,303.853 211.770 M101.344 213.082 L 100.847 213.633 101.397 213.135 C 101.700 212.862,101.948 212.614,101.948 212.585 C 101.948 212.454,101.808 212.569,101.344 213.082 M103.887 215.284 L 103.218 216.003 103.937 215.334 C 104.607 214.711,104.735 214.564,104.607 214.564 C 104.579 214.564,104.255 214.888,103.887 215.284 " stroke="none" fill="#9eb2a9" fill-rule="evenodd"></path>
    <path id="path3" d="M152.329 105.843 C 154.469 107.985,156.259 109.738,156.305 109.738 C 156.352 109.738,154.639 107.985,152.498 105.843 C 150.357 103.700,148.568 101.948,148.521 101.948 C 148.474 101.948,150.188 103.700,152.329 105.843 M158.256 111.770 C 159.277 112.794,160.151 113.633,160.197 113.633 C 160.244 113.633,159.446 112.794,158.425 111.770 C 157.404 110.745,156.530 109.907,156.483 109.907 C 156.437 109.907,157.234 110.745,158.256 111.770 M107.155 135.259 C 107.365 135.300,107.707 135.300,107.917 135.259 C 108.127 135.219,107.955 135.186,107.536 135.186 C 107.117 135.186,106.945 135.219,107.155 135.259 M360.373 152.297 C 360.373 152.326,360.620 152.574,360.923 152.847 L 361.473 153.345 360.976 152.794 C 360.512 152.281,360.373 152.166,360.373 152.297 M353.599 169.740 C 353.599 169.769,353.846 170.017,354.149 170.290 L 354.699 170.787 354.202 170.237 C 353.738 169.724,353.599 169.609,353.599 169.740 M360.785 170.237 L 360.288 170.787 360.838 170.290 C 361.351 169.826,361.466 169.687,361.336 169.687 C 361.307 169.687,361.059 169.934,360.785 170.237 M209.822 192.803 C 209.411 193.222,209.112 193.565,209.159 193.565 C 209.206 193.565,209.580 193.222,209.992 192.803 C 210.403 192.384,210.701 192.041,210.655 192.041 C 210.608 192.041,210.234 192.384,209.822 192.803 M374.767 192.803 C 374.356 193.222,374.057 193.565,374.104 193.565 C 374.150 193.565,374.525 193.222,374.936 192.803 C 375.348 192.384,375.646 192.041,375.600 192.041 C 375.553 192.041,375.178 192.384,374.767 192.803 M45.294 205.419 C 45.294 209.843,45.316 211.653,45.343 209.441 C 45.370 207.229,45.370 203.609,45.343 201.397 C 45.316 199.185,45.294 200.995,45.294 205.419 M114.447 200.296 C 115.593 200.325,117.422 200.325,118.511 200.296 C 119.600 200.266,118.662 200.242,116.427 200.242 C 114.191 200.242,113.300 200.267,114.447 200.296 M162.033 200.296 C 163.180 200.325,165.009 200.325,166.098 200.296 C 167.187 200.266,166.249 200.242,164.014 200.242 C 161.778 200.242,160.887 200.267,162.033 200.296 M185.224 200.294 C 185.713 200.328,186.514 200.328,187.003 200.294 C 187.492 200.260,187.091 200.232,186.113 200.232 C 185.135 200.232,184.735 200.260,185.224 200.294 M205.217 200.296 C 206.363 200.325,208.192 200.325,209.282 200.296 C 210.371 200.266,209.433 200.242,207.197 200.242 C 204.962 200.242,204.071 200.267,205.217 200.296 M220.703 200.294 C 221.238 200.328,222.115 200.328,222.650 200.294 C 223.186 200.261,222.748 200.233,221.677 200.233 C 220.605 200.233,220.167 200.261,220.703 200.294 M257.197 200.294 C 257.686 200.328,258.486 200.328,258.975 200.294 C 259.464 200.260,259.064 200.232,258.086 200.232 C 257.108 200.232,256.708 200.260,257.197 200.294 M298.269 200.294 C 298.715 200.329,299.400 200.329,299.793 200.293 C 300.186 200.258,299.822 200.229,298.984 200.229 C 298.146 200.230,297.824 200.259,298.269 200.294 M370.162 200.296 C 371.308 200.325,373.137 200.325,374.226 200.296 C 375.316 200.266,374.378 200.242,372.142 200.242 C 369.907 200.242,369.016 200.267,370.162 200.296 M354.185 209.145 C 354.185 213.942,354.207 215.904,354.234 213.506 C 354.260 211.107,354.260 207.182,354.234 204.784 C 354.207 202.386,354.185 204.348,354.185 209.145 M236.876 212.150 C 238.110 212.179,240.129 212.179,241.363 212.150 C 242.597 212.121,241.588 212.098,239.119 212.098 C 236.651 212.098,235.641 212.121,236.876 212.150 M278.027 212.150 C 279.261 212.179,281.281 212.179,282.515 212.150 C 283.749 212.121,282.739 212.098,280.271 212.098 C 277.803 212.098,276.793 212.121,278.027 212.150 M114.447 215.029 C 115.593 215.059,117.422 215.058,118.511 215.029 C 119.600 215.000,118.662 214.976,116.427 214.976 C 114.191 214.976,113.300 215.000,114.447 215.029 M162.033 215.029 C 163.180 215.059,165.009 215.058,166.098 215.029 C 167.187 215.000,166.249 214.976,164.014 214.976 C 161.778 214.976,160.887 215.000,162.033 215.029 M205.217 215.029 C 206.363 215.059,208.192 215.058,209.282 215.029 C 210.371 215.000,209.433 214.976,207.197 214.976 C 204.962 214.976,204.071 215.000,205.217 215.029 M298.440 215.028 C 298.979 215.062,299.817 215.061,300.303 215.027 C 300.788 214.993,300.347 214.966,299.323 214.966 C 298.298 214.966,297.901 214.994,298.440 215.028 M370.162 215.029 C 371.308 215.059,373.137 215.058,374.226 215.029 C 375.316 215.000,374.378 214.976,372.142 214.976 C 369.907 214.976,369.016 215.000,370.162 215.029 " stroke="none" fill="#848484" fill-rule="evenodd"></path>
  </g>
</svg>