<svg id="svg" version="1.1" xmlns="http://www.w3.org/2000/svg" xmlns:xlink="http://www.w3.org/1999/xlink" width="400" height="239.96613039796782" viewBox="0, 0, 400,239.96613039796782">
  <g id="svgg">
    <path id="path0" d="M323.537 140.940 C 323.494 141.056,321.570 148.544,319.260 157.578 L 315.061 174.005 316.824 174.053 C 317.794 174.080,318.628 174.062,318.677 174.013 C 318.767 173.923,327.180 141.133,327.180 140.871 C 327.180 140.629,323.625 140.695,323.537 140.940 M355.954 147.674 C 350.426 148.538,347.276 153.547,347.276 161.473 C 347.276 170.134,351.045 175.292,357.409 175.340 C 363.915 175.388,367.711 170.280,367.711 161.473 C 367.711 152.082,363.014 146.570,355.954 147.674 M332.599 150.400 C 330.411 151.610,328.447 152.694,328.235 152.810 C 327.852 153.018,327.856 153.026,328.888 154.410 C 330.142 156.091,329.596 156.128,333.305 154.114 L 336.410 152.429 336.453 163.598 L 336.497 174.767 338.613 174.767 L 340.728 174.767 340.728 161.473 L 340.728 148.180 338.654 148.190 L 336.579 148.201 332.599 150.400 M359.960 151.995 C 364.892 155.046,364.546 168.917,359.480 171.217 C 357.747 172.004,355.425 171.544,354.065 170.145 C 350.681 166.664,350.718 156.140,354.127 152.732 C 355.622 151.237,358.206 150.911,359.960 151.995 M205.706 193.819 L 204.068 195.766 205.552 195.766 L 207.037 195.766 208.135 194.623 C 208.739 193.994,209.572 193.118,209.986 192.676 L 210.739 191.871 209.042 191.871 L 207.344 191.871 205.706 193.819 M370.651 193.819 L 369.013 195.766 370.497 195.766 L 371.982 195.766 373.080 194.623 C 373.684 193.994,374.517 193.118,374.931 192.676 L 375.684 191.871 373.987 191.871 L 372.289 191.871 370.651 193.819 M95.174 197.049 C 90.419 197.860,87.468 200.328,86.178 204.572 C 83.042 214.892,95.857 222.746,103.763 215.351 C 105.062 214.136,105.077 214.323,103.580 213.171 L 102.335 212.212 101.367 213.148 C 96.737 217.634,89.093 214.279,89.079 207.756 C 89.065 200.999,96.636 197.510,101.367 202.093 L 102.335 203.030 103.580 202.070 C 105.077 200.918,105.062 201.106,103.763 199.891 C 101.586 197.854,97.800 196.601,95.174 197.049 M21.169 207.621 L 21.169 217.782 22.777 217.782 L 24.386 217.782 24.386 207.621 L 24.386 197.460 22.777 197.460 L 21.169 197.460 21.169 207.621 M30.652 207.621 L 30.652 217.782 32.259 217.782 L 33.866 217.782 33.910 209.782 L 33.954 201.782 39.119 209.773 L 44.285 217.764 46.444 217.773 L 48.603 217.782 48.603 207.621 L 48.603 197.460 46.994 197.460 L 45.385 197.460 45.385 205.419 C 45.385 209.797,45.326 213.378,45.255 213.378 C 45.183 213.378,42.801 209.797,39.962 205.420 L 34.801 197.461 32.727 197.460 L 30.652 197.460 30.652 207.621 M54.869 207.621 L 54.869 217.812 59.738 217.739 C 65.115 217.658,65.665 217.576,67.824 216.519 C 75.026 212.994,75.026 202.247,67.824 198.722 C 65.665 197.666,65.115 197.583,59.738 197.502 L 54.869 197.429 54.869 207.621 M78.069 207.621 L 78.069 217.782 79.678 217.782 L 81.287 217.782 81.287 207.621 L 81.287 197.460 79.678 197.460 L 78.069 197.460 78.069 207.621 M109.229 207.621 L 109.229 217.782 114.818 217.782 L 120.406 217.782 120.406 216.427 L 120.406 215.072 116.427 215.072 L 112.447 215.072 112.447 211.939 L 112.447 208.806 115.834 208.806 L 119.221 208.806 119.221 207.451 L 119.221 206.097 115.834 206.097 L 112.447 206.097 112.447 203.133 L 112.447 200.169 116.427 200.169 L 120.406 200.169 120.406 198.815 L 120.406 197.460 114.818 197.460 L 109.229 197.460 109.229 207.621 M133.616 207.621 L 133.616 217.812 138.484 217.739 C 143.862 217.658,144.412 217.576,146.571 216.519 C 153.773 212.994,153.773 202.247,146.571 198.722 C 144.412 197.666,143.862 197.583,138.484 197.502 L 133.616 197.429 133.616 207.621 M156.816 207.621 L 156.816 217.782 162.405 217.782 L 167.993 217.782 167.993 216.427 L 167.993 215.072 164.014 215.072 L 160.034 215.072 160.034 211.939 L 160.034 208.806 163.421 208.806 L 166.808 208.806 166.808 207.451 L 166.808 206.097 163.421 206.097 L 160.034 206.097 160.034 203.133 L 160.034 200.169 164.014 200.169 L 167.993 200.169 167.993 198.815 L 167.993 197.460 162.405 197.460 L 156.816 197.460 156.816 207.621 M181.202 207.621 L 181.202 217.782 182.811 217.782 L 184.420 217.782 184.420 213.463 L 184.420 209.145 185.841 209.145 L 187.262 209.145 190.095 213.463 L 192.927 217.782 194.859 217.782 L 196.790 217.782 195.873 216.469 C 195.369 215.747,193.922 213.671,192.658 211.856 L 190.359 208.555 190.819 208.318 C 194.623 206.355,194.649 200.472,190.863 198.412 C 189.596 197.722,187.862 197.473,184.293 197.466 L 181.202 197.460 181.202 207.621 M200.000 207.621 L 200.000 217.782 205.588 217.782 L 211.177 217.782 211.177 216.427 L 211.177 215.072 207.197 215.072 L 203.218 215.072 203.218 211.939 L 203.218 208.806 206.605 208.806 L 209.992 208.806 209.992 207.451 L 209.992 206.097 206.605 206.097 L 203.218 206.097 203.218 203.133 L 203.218 200.169 207.197 200.169 L 211.177 200.169 211.177 198.815 L 211.177 197.460 205.588 197.460 L 200.000 197.460 200.000 207.621 M216.596 207.621 L 216.596 217.782 218.205 217.782 L 219.814 217.782 219.814 213.463 L 219.814 209.145 221.980 209.145 C 227.031 209.145,229.525 207.272,229.535 203.472 C 229.547 198.986,227.138 197.478,219.941 197.466 L 216.596 197.460 216.596 207.621 M233.287 207.070 C 231.244 212.356,229.471 216.928,229.348 217.231 L 229.123 217.782 230.904 217.782 C 231.883 217.782,232.684 217.711,232.684 217.626 C 232.684 217.540,233.151 216.243,233.722 214.744 L 234.760 212.018 239.181 212.063 L 243.602 212.108 244.689 214.945 L 245.777 217.782 247.506 217.782 L 249.235 217.782 245.299 207.663 L 241.363 197.544 239.183 197.502 L 237.003 197.459 233.287 207.070 M253.175 207.621 L 253.175 217.782 254.784 217.782 L 256.393 217.782 256.393 213.463 L 256.393 209.145 257.814 209.145 L 259.235 209.145 262.068 213.463 L 264.900 217.782 266.832 217.782 L 268.763 217.782 267.846 216.469 C 267.342 215.747,265.895 213.671,264.631 211.856 L 262.332 208.555 262.792 208.318 C 266.595 206.355,266.622 200.472,262.836 198.412 C 261.569 197.722,259.835 197.473,256.266 197.466 L 253.175 197.460 253.175 207.621 M274.439 207.070 C 272.396 212.356,270.623 216.928,270.499 217.231 L 270.275 217.782 272.055 217.782 C 273.035 217.782,273.836 217.711,273.836 217.626 C 273.836 217.540,274.303 216.243,274.874 214.744 L 275.912 212.018 280.332 212.063 L 284.753 212.108 285.841 214.945 L 286.929 217.782 288.658 217.782 L 290.387 217.782 286.451 207.663 L 282.515 197.544 280.334 197.502 L 278.154 197.459 274.439 207.070 M294.327 207.641 L 294.327 217.821 298.180 217.740 C 303.209 217.635,304.986 217.093,306.236 215.282 C 308.323 212.260,307.450 209.020,304.004 206.999 C 303.971 206.980,304.224 206.719,304.565 206.419 C 306.680 204.562,306.602 200.892,304.407 198.932 C 303.206 197.858,301.280 197.468,297.163 197.463 L 294.327 197.460 294.327 207.641 M312.108 207.621 L 312.108 217.782 313.717 217.782 L 315.326 217.782 315.326 207.621 L 315.326 197.460 313.717 197.460 L 312.108 197.460 312.108 207.621 M321.592 207.621 L 321.592 217.782 327.180 217.782 L 332.769 217.782 332.769 216.257 L 332.769 214.733 328.789 214.733 L 324.809 214.733 324.809 206.097 L 324.809 197.460 323.201 197.460 L 321.592 197.460 321.592 207.621 M337.003 207.621 L 337.003 217.782 338.611 217.782 L 340.220 217.782 340.220 207.621 L 340.220 197.460 338.611 197.460 L 337.003 197.460 337.003 207.621 M344.454 198.984 L 344.454 200.508 347.671 200.508 L 350.889 200.508 350.889 209.145 L 350.889 217.782 352.498 217.782 L 354.107 217.782 354.107 209.145 L 354.107 200.508 357.409 200.508 L 360.711 200.508 360.711 198.984 L 360.711 197.460 352.583 197.460 L 344.454 197.460 344.454 198.984 M364.945 207.621 L 364.945 217.782 370.533 217.782 L 376.122 217.782 376.122 216.427 L 376.122 215.072 372.142 215.072 L 368.163 215.072 368.163 211.939 L 368.163 208.806 371.550 208.806 L 374.936 208.806 374.936 207.451 L 374.936 206.097 371.550 206.097 L 368.163 206.097 368.163 203.133 L 368.163 200.169 372.142 200.169 L 376.122 200.169 376.122 198.815 L 376.122 197.460 370.533 197.460 L 364.945 197.460 364.945 207.621 M188.772 200.562 C 190.836 201.644,190.871 204.966,188.830 206.045 C 188.191 206.383,187.846 206.435,186.256 206.435 L 184.420 206.435 184.420 203.281 L 184.420 200.127 186.325 200.203 C 187.657 200.256,188.393 200.364,188.772 200.562 M224.154 200.420 C 226.810 201.209,226.999 205.105,224.434 206.202 C 224.072 206.357,223.205 206.435,221.851 206.435 L 219.814 206.435 219.814 203.302 L 219.814 200.169 221.561 200.169 C 222.612 200.169,223.645 200.269,224.154 200.420 M260.745 200.562 C 262.809 201.644,262.844 204.966,260.803 206.045 C 260.164 206.383,259.819 206.435,258.229 206.435 L 256.393 206.435 256.393 203.281 L 256.393 200.127 258.298 200.203 C 259.630 200.256,260.366 200.364,260.745 200.562 M301.426 200.597 C 302.720 201.355,303.150 202.884,302.466 204.297 C 301.929 205.406,301.119 205.758,299.100 205.758 L 297.544 205.758 297.544 202.944 L 297.544 200.130 299.200 200.196 C 300.454 200.247,300.993 200.344,301.426 200.597 M64.872 200.781 C 69.868 202.261,71.595 208.607,68.050 212.459 C 66.345 214.312,65.049 214.733,61.055 214.733 L 58.086 214.733 58.086 207.621 L 58.086 200.508 61.019 200.508 C 63.221 200.508,64.181 200.576,64.872 200.781 M143.619 200.781 C 148.615 202.261,150.342 208.607,146.797 212.459 C 145.092 214.312,143.796 214.733,139.802 214.733 L 136.833 214.733 136.833 207.621 L 136.833 200.508 139.766 200.508 C 141.967 200.508,142.928 200.576,143.619 200.781 M240.798 204.671 C 241.628 206.899,242.360 208.855,242.425 209.018 C 242.535 209.294,242.317 209.314,239.222 209.314 C 237.396 209.314,235.902 209.262,235.902 209.198 C 235.902 209.134,236.560 207.324,237.365 205.176 C 238.170 203.028,238.896 201.088,238.979 200.866 C 239.186 200.306,239.120 200.166,240.798 204.671 M281.950 204.671 C 282.779 206.899,283.511 208.855,283.576 209.018 C 283.686 209.294,283.468 209.314,280.374 209.314 C 278.548 209.314,277.053 209.262,277.053 209.198 C 277.053 209.134,277.712 207.324,278.517 205.176 C 279.322 203.028,280.048 201.088,280.130 200.866 C 280.338 200.306,280.271 200.166,281.950 204.671 M302.490 209.022 C 304.261 210.060,304.517 212.717,302.980 214.106 C 302.184 214.825,301.181 215.072,299.060 215.072 L 297.544 215.072 297.544 211.749 L 297.544 208.427 299.628 208.496 C 301.517 208.559,301.783 208.608,302.490 209.022 " stroke="none" fill="#050505" fill-rule="evenodd"></path>
    <path id="path1" d="M46.346 5.937 C 33.022 7.485,22.541 18.026,21.006 31.421 C 20.765 33.525,20.765 158.007,21.006 160.112 C 22.550 173.589,33.016 184.054,46.493 185.598 C 48.624 185.842,350.931 185.843,353.505 185.599 C 367.315 184.289,378.087 173.566,379.499 159.720 C 379.749 157.269,379.749 34.264,379.499 31.813 C 378.091 18.010,367.426 7.345,353.623 5.937 C 351.528 5.723,48.185 5.723,46.346 5.937 M356.326 7.569 C 367.452 10.044,375.878 18.620,377.922 29.551 C 378.417 32.198,378.417 159.335,377.922 161.981 C 375.878 172.912,367.452 181.489,356.326 183.963 L 354.699 184.325 266.384 184.365 L 178.069 184.405 179.403 183.909 C 189.664 180.091,196.833 170.745,197.958 159.720 C 198.208 157.269,198.208 34.264,197.958 31.813 C 196.833 20.783,189.668 11.444,179.403 7.624 L 178.069 7.128 266.384 7.168 L 354.699 7.208 356.326 7.569 M116.475 22.786 C 117.195 23.087,118.124 23.923,118.470 24.582 C 118.600 24.830,119.122 27.688,119.630 30.933 C 120.138 34.178,120.608 37.164,120.674 37.567 C 120.739 37.971,120.878 38.326,120.981 38.356 C 127.596 40.270,131.399 41.785,135.364 44.082 L 137.028 45.046 142.562 41.010 C 149.015 36.302,148.626 36.538,149.944 36.528 C 151.558 36.515,151.764 36.680,158.204 43.145 C 166.376 51.348,166.209 49.978,160.064 58.387 L 155.983 63.972 157.076 65.898 C 159.103 69.469,161.076 74.237,162.144 78.142 C 162.449 79.258,162.766 80.192,162.848 80.218 C 162.930 80.244,165.926 80.724,169.506 81.286 C 177.214 82.495,177.406 82.567,178.281 84.566 C 178.628 85.362,178.582 101.744,178.230 102.588 C 177.456 104.440,176.965 104.620,169.602 105.749 C 162.074 106.903,162.737 106.679,162.344 108.208 C 161.868 110.061,160.625 113.690,160.445 113.749 C 160.358 113.779,157.596 111.111,154.307 107.821 L 148.328 101.840 148.587 100.327 C 153.776 70.117,124.664 44.626,95.302 53.670 C 61.400 64.112,55.195 109.100,84.966 128.606 C 92.716 133.684,104.291 136.256,112.931 134.820 L 114.346 134.585 120.425 140.662 C 123.768 144.004,126.480 146.810,126.451 146.897 C 126.388 147.084,124.305 147.800,122.227 148.348 C 121.412 148.563,120.745 148.794,120.745 148.861 C 120.745 148.928,120.294 151.880,119.742 155.421 C 118.675 162.269,118.530 162.805,117.515 163.660 C 116.376 164.618,116.501 164.606,107.381 164.606 L 98.969 164.606 98.051 164.056 C 96.301 163.007,96.342 163.155,94.567 151.397 C 94.122 148.451,94.331 148.784,92.661 148.346 C 88.729 147.315,83.424 145.161,79.936 143.180 C 78.867 142.573,77.907 142.109,77.802 142.149 C 77.697 142.190,75.186 143.992,72.222 146.154 C 65.770 150.860,65.641 150.923,63.590 150.364 C 62.718 150.126,51.360 138.912,50.782 137.719 C 49.798 135.687,49.880 135.509,55.024 128.463 L 58.945 123.092 58.088 121.594 C 55.967 117.888,53.856 112.827,52.800 108.914 C 52.507 107.830,52.252 106.920,52.232 106.892 C 52.213 106.863,49.273 106.386,45.700 105.831 C 38.825 104.763,38.221 104.606,37.396 103.666 C 36.391 102.521,36.410 102.711,36.410 93.565 C 36.410 84.313,36.393 84.477,37.477 83.347 C 38.367 82.419,38.680 82.338,45.510 81.272 C 49.121 80.708,52.122 80.195,52.179 80.132 C 52.237 80.069,52.445 79.407,52.642 78.662 C 53.786 74.337,56.220 68.521,58.361 64.996 L 58.964 64.003 57.707 62.272 C 57.016 61.321,55.171 58.790,53.607 56.648 C 48.957 50.277,48.761 51.113,56.790 43.045 C 63.039 36.767,63.344 36.523,64.962 36.519 C 66.263 36.515,65.950 36.324,72.531 41.130 L 77.915 45.062 78.881 44.488 C 82.815 42.151,88.089 39.935,92.490 38.771 C 93.268 38.565,93.963 38.344,94.036 38.279 C 94.109 38.214,94.626 35.243,95.185 31.677 C 96.376 24.086,96.556 23.588,98.391 22.793 C 99.290 22.404,115.543 22.397,116.475 22.786 M110.758 68.421 C 125.363 70.188,135.834 83.955,133.548 98.386 L 133.268 100.152 147.301 114.217 C 162.192 129.141,162.357 129.323,163.424 131.989 C 168.243 144.022,155.686 155.530,144.040 149.755 C 142.207 148.846,142.290 148.924,127.434 134.101 L 113.378 120.076 111.939 120.351 C 94.760 123.629,78.674 107.625,81.695 90.262 C 82.883 83.433,82.319 83.260,92.716 93.633 C 102.114 103.009,101.736 102.709,104.149 102.709 C 106.425 102.709,106.584 102.603,111.142 98.076 C 115.707 93.541,115.923 93.218,115.911 90.940 C 115.898 88.630,116.101 88.883,106.791 79.594 C 98.036 70.859,98.084 70.916,98.690 70.008 C 99.464 68.849,106.570 67.914,110.758 68.421 " stroke="none" fill="#8cc444" fill-rule="evenodd"></path>
    <path id="path2" d="M347.203 159.526 C 347.203 159.852,347.238 159.985,347.280 159.822 C 347.323 159.659,347.323 159.392,347.280 159.229 C 347.238 159.066,347.203 159.200,347.203 159.526 M367.694 159.526 C 367.694 159.852,367.729 159.985,367.771 159.822 C 367.814 159.659,367.814 159.392,367.771 159.229 C 367.729 159.066,367.694 159.200,367.694 159.526 M347.203 163.421 C 347.203 163.747,347.238 163.880,347.280 163.717 C 347.323 163.554,347.323 163.287,347.280 163.124 C 347.238 162.961,347.203 163.095,347.203 163.421 M367.694 163.421 C 367.694 163.747,367.729 163.880,367.771 163.717 C 367.814 163.554,367.814 163.287,367.771 163.124 C 367.729 162.961,367.694 163.095,367.694 163.421 M210.152 192.506 L 209.568 193.141 210.203 192.558 C 210.552 192.237,210.838 191.951,210.838 191.923 C 210.838 191.793,210.695 191.915,210.152 192.506 M375.097 192.506 L 374.513 193.141 375.148 192.558 C 375.739 192.015,375.861 191.871,375.732 191.871 C 375.703 191.871,375.418 192.157,375.097 192.506 M21.079 207.621 C 21.079 213.256,21.100 215.561,21.126 212.743 C 21.152 209.926,21.152 205.315,21.126 202.498 C 21.100 199.680,21.079 201.986,21.079 207.621 M30.562 207.621 C 30.562 213.256,30.583 215.561,30.610 212.743 C 30.636 209.926,30.636 205.315,30.610 202.498 C 30.583 199.680,30.562 201.986,30.562 207.621 M45.177 205.419 C 45.152 209.797,45.188 213.379,45.258 213.379 C 45.328 213.379,45.385 209.797,45.385 205.419 C 45.385 201.041,45.349 197.460,45.304 197.460 C 45.259 197.460,45.202 201.042,45.177 205.419 M54.779 207.621 C 54.779 213.256,54.800 215.561,54.826 212.743 C 54.852 209.926,54.852 205.315,54.826 202.498 C 54.800 199.680,54.779 201.986,54.779 207.621 M77.980 207.621 C 77.980 213.256,78.001 215.561,78.027 212.743 C 78.053 209.926,78.053 205.315,78.027 202.498 C 78.001 199.680,77.980 201.986,77.980 207.621 M109.140 207.621 C 109.140 213.256,109.161 215.561,109.187 212.743 C 109.213 209.926,109.213 205.315,109.187 202.498 C 109.161 199.680,109.140 201.986,109.140 207.621 M133.526 207.621 C 133.526 213.256,133.547 215.561,133.573 212.743 C 133.599 209.926,133.599 205.315,133.573 202.498 C 133.547 199.680,133.526 201.986,133.526 207.621 M156.726 207.621 C 156.726 213.256,156.748 215.561,156.774 212.743 C 156.800 209.926,156.800 205.315,156.774 202.498 C 156.748 199.680,156.726 201.986,156.726 207.621 M181.113 207.621 C 181.113 213.256,181.134 215.561,181.160 212.743 C 181.186 209.926,181.186 205.315,181.160 202.498 C 181.134 199.680,181.113 201.986,181.113 207.621 M199.910 207.621 C 199.910 213.256,199.931 215.561,199.958 212.743 C 199.984 209.926,199.984 205.315,199.958 202.498 C 199.931 199.680,199.910 201.986,199.910 207.621 M216.506 207.621 C 216.506 213.256,216.528 215.561,216.554 212.743 C 216.580 209.926,216.580 205.315,216.554 202.498 C 216.528 199.680,216.506 201.986,216.506 207.621 M253.085 207.621 C 253.085 213.256,253.107 215.561,253.133 212.743 C 253.159 209.926,253.159 205.315,253.133 202.498 C 253.107 199.680,253.085 201.986,253.085 207.621 M294.237 207.621 C 294.237 213.256,294.258 215.561,294.284 212.743 C 294.310 209.926,294.310 205.315,294.284 202.498 C 294.258 199.680,294.237 201.986,294.237 207.621 M312.019 207.621 C 312.019 213.256,312.040 215.561,312.066 212.743 C 312.092 209.926,312.092 205.315,312.066 202.498 C 312.040 199.680,312.019 201.986,312.019 207.621 M321.502 207.621 C 321.502 213.256,321.523 215.561,321.549 212.743 C 321.576 209.926,321.576 205.315,321.549 202.498 C 321.523 199.680,321.502 201.986,321.502 207.621 M336.913 207.621 C 336.913 213.256,336.934 215.561,336.960 212.743 C 336.986 209.926,336.986 205.315,336.960 202.498 C 336.934 199.680,336.913 201.986,336.913 207.621 M344.346 198.984 C 344.346 199.869,344.374 200.231,344.409 199.788 C 344.444 199.346,344.444 198.622,344.409 198.180 C 344.374 197.737,344.346 198.099,344.346 198.984 M364.855 207.621 C 364.855 213.256,364.876 215.561,364.903 212.743 C 364.929 209.926,364.929 205.315,364.903 202.498 C 364.876 199.680,364.855 201.986,364.855 207.621 M103.472 199.545 C 103.472 199.574,103.719 199.822,104.022 200.095 L 104.572 200.593 104.075 200.042 C 103.611 199.529,103.472 199.414,103.472 199.545 M95.893 200.121 C 96.149 200.160,96.569 200.160,96.825 200.121 C 97.081 200.082,96.871 200.051,96.359 200.051 C 95.847 200.051,95.637 200.082,95.893 200.121 M114.447 200.296 C 115.593 200.325,117.422 200.325,118.511 200.296 C 119.600 200.266,118.662 200.242,116.427 200.242 C 114.191 200.242,113.300 200.267,114.447 200.296 M162.033 200.296 C 163.180 200.325,165.009 200.325,166.098 200.296 C 167.187 200.266,166.249 200.242,164.014 200.242 C 161.778 200.242,160.887 200.267,162.033 200.296 M185.230 200.294 C 185.722 200.329,186.484 200.328,186.924 200.294 C 187.363 200.259,186.960 200.231,186.029 200.231 C 185.097 200.232,184.738 200.260,185.230 200.294 M205.217 200.296 C 206.363 200.325,208.192 200.325,209.282 200.296 C 210.371 200.266,209.433 200.242,207.197 200.242 C 204.962 200.242,204.071 200.267,205.217 200.296 M220.703 200.294 C 221.238 200.328,222.115 200.328,222.650 200.294 C 223.186 200.261,222.748 200.233,221.677 200.233 C 220.605 200.233,220.167 200.261,220.703 200.294 M257.203 200.294 C 257.695 200.329,258.457 200.328,258.896 200.294 C 259.336 200.259,258.933 200.231,258.002 200.231 C 257.070 200.232,256.711 200.260,257.203 200.294 M298.180 200.293 C 298.575 200.329,299.223 200.329,299.619 200.293 C 300.015 200.258,299.691 200.229,298.899 200.229 C 298.108 200.229,297.784 200.258,298.180 200.293 M370.162 200.296 C 371.308 200.325,373.137 200.325,374.226 200.296 C 375.316 200.266,374.378 200.242,372.142 200.242 C 369.907 200.242,369.016 200.267,370.162 200.296 M354.185 209.145 C 354.185 213.942,354.207 215.904,354.234 213.506 C 354.260 211.107,354.260 207.182,354.234 204.784 C 354.207 202.386,354.185 204.348,354.185 209.145 M119.255 207.405 L 119.221 208.799 115.792 208.849 L 112.362 208.898 115.797 208.937 C 119.729 208.981,119.434 209.120,119.347 207.266 L 119.288 206.012 119.255 207.405 M166.841 207.405 L 166.808 208.799 163.378 208.849 L 159.949 208.898 163.384 208.937 C 167.316 208.981,167.021 209.120,166.934 207.266 L 166.875 206.012 166.841 207.405 M210.025 207.405 L 209.992 208.799 206.562 208.849 L 203.133 208.898 206.568 208.937 C 210.499 208.981,210.205 209.120,210.118 207.266 L 210.059 206.012 210.025 207.405 M374.970 207.405 L 374.936 208.799 371.507 208.849 L 368.078 208.898 371.513 208.937 C 375.444 208.981,375.150 209.120,375.063 207.266 L 375.004 206.012 374.970 207.405 M298.440 208.593 C 298.979 208.626,299.817 208.626,300.303 208.592 C 300.788 208.558,300.347 208.530,299.323 208.531 C 298.298 208.531,297.901 208.559,298.440 208.593 M184.843 209.252 C 186.056 209.378,187.431 209.389,187.358 209.272 C 187.314 209.202,186.617 209.157,185.807 209.172 C 184.998 209.187,184.564 209.223,184.843 209.252 M220.703 209.270 C 221.238 209.304,222.115 209.304,222.650 209.270 C 223.186 209.236,222.748 209.209,221.677 209.209 C 220.605 209.209,220.167 209.236,220.703 209.270 M256.816 209.252 C 258.029 209.378,259.403 209.389,259.331 209.272 C 259.287 209.202,258.590 209.157,257.780 209.172 C 256.971 209.187,256.537 209.223,256.816 209.252 M236.325 212.142 C 240.114 212.263,243.653 212.267,243.581 212.151 C 243.538 212.081,241.545 212.040,239.152 212.059 C 236.759 212.078,235.487 212.116,236.325 212.142 M277.477 212.142 C 281.265 212.263,284.805 212.267,284.733 212.151 C 284.689 212.081,282.696 212.040,280.303 212.059 C 277.910 212.078,276.638 212.116,277.477 212.142 M103.884 215.284 L 103.387 215.834 103.937 215.337 C 104.240 215.063,104.488 214.815,104.488 214.786 C 104.488 214.655,104.348 214.771,103.884 215.284 M114.447 215.029 C 115.593 215.059,117.422 215.058,118.511 215.029 C 119.600 215.000,118.662 214.976,116.427 214.976 C 114.191 214.976,113.300 215.000,114.447 215.029 M162.033 215.029 C 163.180 215.059,165.009 215.058,166.098 215.029 C 167.187 215.000,166.249 214.976,164.014 214.976 C 161.778 214.976,160.887 215.000,162.033 215.029 M205.217 215.029 C 206.363 215.059,208.192 215.058,209.282 215.029 C 210.371 215.000,209.433 214.976,207.197 214.976 C 204.962 214.976,204.071 215.000,205.217 215.029 M298.349 215.027 C 298.838 215.062,299.638 215.062,300.127 215.027 C 300.616 214.993,300.216 214.965,299.238 214.965 C 298.260 214.965,297.860 214.993,298.349 215.027 M370.162 215.029 C 371.308 215.059,373.137 215.058,374.226 215.029 C 375.316 215.000,374.378 214.976,372.142 214.976 C 369.907 214.976,369.016 215.000,370.162 215.029 M95.893 215.193 C 96.149 215.232,96.569 215.232,96.825 215.193 C 97.081 215.154,96.871 215.123,96.359 215.123 C 95.847 215.123,95.637 215.154,95.893 215.193 " stroke="none" fill="#a3aa9a" fill-rule="evenodd"></path>
    <path id="path3" d="M352.794 5.875 C 352.957 5.917,353.224 5.917,353.387 5.875 C 353.550 5.832,353.417 5.797,353.091 5.797 C 352.765 5.797,352.631 5.832,352.794 5.875 M352.712 7.232 C 352.922 7.273,353.227 7.271,353.389 7.229 C 353.551 7.187,353.378 7.153,353.006 7.155 C 352.633 7.157,352.501 7.192,352.712 7.232 M369.009 13.933 C 369.009 13.959,369.600 14.549,370.322 15.246 L 371.634 16.511 370.368 15.199 C 369.193 13.980,369.009 13.809,369.009 13.933 M198.007 32.345 C 198.007 32.671,198.042 32.805,198.085 32.642 C 198.127 32.479,198.127 32.212,198.085 32.049 C 198.042 31.886,198.007 32.019,198.007 32.345 M378.197 32.430 C 378.199 32.803,378.233 32.935,378.274 32.725 C 378.314 32.514,378.313 32.209,378.270 32.047 C 378.228 31.885,378.195 32.058,378.197 32.430 M379.548 32.345 C 379.548 32.671,379.583 32.805,379.626 32.642 C 379.668 32.479,379.668 32.212,379.626 32.049 C 379.583 31.886,379.548 32.019,379.548 32.345 M56.815 43.057 L 50.889 49.026 56.859 43.100 C 62.407 37.592,62.904 37.087,62.785 37.087 C 62.761 37.087,60.075 39.773,56.815 43.057 M82.091 42.687 C 81.742 42.872,81.456 43.060,81.456 43.107 C 81.456 43.182,82.794 42.557,82.966 42.401 C 83.161 42.224,82.653 42.391,82.091 42.687 M164.476 50.974 C 164.476 51.300,164.511 51.433,164.554 51.270 C 164.596 51.107,164.596 50.840,164.554 50.677 C 164.511 50.514,164.476 50.648,164.476 50.974 M104.276 51.940 C 104.486 51.980,104.829 51.980,105.038 51.940 C 105.248 51.900,105.076 51.867,104.657 51.867 C 104.238 51.867,104.066 51.900,104.276 51.940 M109.952 51.942 C 110.209 51.981,110.590 51.980,110.798 51.940 C 111.007 51.900,110.796 51.868,110.330 51.869 C 109.865 51.870,109.694 51.903,109.952 51.942 M124.824 55.611 C 124.996 55.769,127.011 56.728,127.011 56.652 C 127.011 56.557,125.055 55.546,124.871 55.546 C 124.806 55.546,124.785 55.575,124.824 55.611 M79.668 62.362 L 79.170 62.913 79.721 62.415 C 80.023 62.142,80.271 61.894,80.271 61.865 C 80.271 61.734,80.131 61.849,79.668 62.362 M136.749 63.844 C 137.112 64.217,137.448 64.522,137.495 64.522 C 137.541 64.522,137.282 64.217,136.918 63.844 C 136.554 63.472,136.218 63.167,136.172 63.167 C 136.125 63.167,136.385 63.472,136.749 63.844 M138.357 65.591 C 138.357 65.620,138.605 65.867,138.908 66.141 L 139.458 66.638 138.961 66.088 C 138.497 65.575,138.357 65.460,138.357 65.591 M56.639 68.094 C 56.490 68.382,56.398 68.647,56.435 68.684 C 56.471 68.721,56.628 68.485,56.783 68.160 C 57.131 67.430,57.011 67.374,56.639 68.094 M105.885 68.371 C 106.234 68.407,106.806 68.407,107.155 68.371 C 107.504 68.334,107.218 68.304,106.520 68.304 C 105.821 68.304,105.536 68.334,105.885 68.371 M108.340 68.370 C 108.643 68.407,109.138 68.407,109.441 68.370 C 109.744 68.332,109.496 68.301,108.891 68.301 C 108.285 68.301,108.038 68.332,108.340 68.370 M104.318 77.138 C 107.438 80.258,110.028 82.811,110.074 82.811 C 110.121 82.811,107.607 80.258,104.488 77.138 C 101.369 74.018,98.778 71.465,98.732 71.465 C 98.685 71.465,101.199 74.018,104.318 77.138 M124.471 74.397 C 124.471 74.426,124.718 74.674,125.021 74.947 L 125.572 75.445 125.074 74.894 C 124.611 74.381,124.471 74.266,124.471 74.397 M84.187 85.394 C 84.229 85.417,87.957 89.094,92.471 93.565 L 100.677 101.693 92.549 93.522 C 88.079 89.028,84.351 85.351,84.265 85.351 C 84.180 85.351,84.144 85.370,84.187 85.394 M148.896 88.738 C 148.896 89.064,148.931 89.198,148.974 89.035 C 149.016 88.872,149.016 88.605,148.974 88.442 C 148.931 88.279,148.896 88.412,148.896 88.738 M149.069 90.686 C 149.071 91.058,149.106 91.191,149.146 90.980 C 149.187 90.770,149.185 90.465,149.143 90.303 C 149.100 90.141,149.067 90.313,149.069 90.686 M116.043 90.940 C 116.043 91.266,116.078 91.399,116.120 91.236 C 116.163 91.073,116.163 90.807,116.120 90.644 C 116.078 90.481,116.043 90.614,116.043 90.940 M65.755 91.363 C 65.757 91.829,65.790 91.999,65.829 91.742 C 65.867 91.485,65.866 91.104,65.826 90.895 C 65.786 90.687,65.754 90.898,65.755 91.363 M81.496 91.787 C 81.496 92.113,81.531 92.246,81.573 92.083 C 81.616 91.920,81.616 91.653,81.573 91.490 C 81.531 91.327,81.496 91.461,81.496 91.787 M133.658 92.210 C 133.660 92.583,133.695 92.715,133.735 92.504 C 133.776 92.294,133.774 91.989,133.732 91.827 C 133.690 91.665,133.656 91.837,133.658 92.210 M81.335 94.412 C 81.337 94.877,81.370 95.048,81.409 94.790 C 81.447 94.533,81.446 94.152,81.406 93.943 C 81.366 93.735,81.334 93.946,81.335 94.412 M111.177 98.052 C 109.223 100.008,107.662 101.609,107.708 101.609 C 107.755 101.609,109.392 100.008,111.346 98.052 C 113.301 96.097,114.861 94.496,114.815 94.496 C 114.768 94.496,113.131 96.097,111.177 98.052 M65.758 95.851 C 65.758 96.363,65.790 96.573,65.828 96.317 C 65.867 96.061,65.867 95.641,65.828 95.385 C 65.790 95.129,65.758 95.339,65.758 95.851 M149.069 96.444 C 149.071 96.816,149.106 96.949,149.146 96.738 C 149.187 96.527,149.185 96.223,149.143 96.061 C 149.100 95.899,149.067 96.071,149.069 96.444 M133.658 96.782 C 133.660 97.155,133.695 97.287,133.735 97.077 C 133.776 96.866,133.774 96.561,133.732 96.399 C 133.690 96.237,133.656 96.410,133.658 96.782 M81.496 97.036 C 81.496 97.362,81.531 97.496,81.573 97.333 C 81.616 97.170,81.616 96.903,81.573 96.740 C 81.531 96.577,81.496 96.710,81.496 97.036 M65.916 98.052 C 65.916 98.378,65.951 98.512,65.993 98.349 C 66.036 98.186,66.036 97.919,65.993 97.756 C 65.951 97.593,65.916 97.727,65.916 98.052 M133.108 100.015 C 133.108 100.100,139.337 106.381,146.952 113.972 L 160.796 127.773 146.994 113.893 C 139.403 106.260,133.173 99.979,133.150 99.936 C 133.127 99.894,133.108 99.929,133.108 100.015 M148.372 101.525 C 148.343 101.955,160.239 113.904,160.522 113.729 C 160.626 113.665,160.710 113.522,160.709 113.411 C 160.707 113.290,160.641 113.311,160.543 113.463 C 160.352 113.761,148.584 102.138,148.464 101.532 C 148.397 101.194,148.394 101.193,148.372 101.525 M103.683 102.916 C 103.939 102.954,104.359 102.954,104.615 102.916 C 104.871 102.877,104.661 102.845,104.149 102.845 C 103.637 102.845,103.427 102.877,103.683 102.916 M177.298 103.768 L 176.715 104.403 177.350 103.819 C 177.941 103.276,178.063 103.133,177.933 103.133 C 177.905 103.133,177.619 103.419,177.298 103.768 M37.087 103.355 C 37.087 103.384,37.335 103.632,37.638 103.906 L 38.188 104.403 37.691 103.853 C 37.227 103.340,37.087 103.224,37.087 103.355 M89.924 113.887 C 90.240 114.213,90.536 114.479,90.583 114.479 C 90.630 114.479,90.409 114.213,90.093 113.887 C 89.777 113.561,89.481 113.294,89.434 113.294 C 89.387 113.294,89.608 113.561,89.924 113.887 M104.361 120.523 C 104.524 120.566,104.790 120.566,104.953 120.523 C 105.116 120.481,104.983 120.446,104.657 120.446 C 104.331 120.446,104.198 120.481,104.361 120.523 M106.647 120.701 C 107.136 120.735,107.936 120.735,108.425 120.701 C 108.914 120.666,108.514 120.638,107.536 120.638 C 106.558 120.638,106.158 120.666,106.647 120.701 M77.815 122.947 C 78.743 123.878,79.541 124.640,79.587 124.640 C 79.634 124.640,78.913 123.878,77.985 122.947 C 77.057 122.015,76.260 121.253,76.213 121.253 C 76.166 121.253,76.887 122.015,77.815 122.947 M87.722 130.312 C 87.722 130.426,89.775 131.450,89.851 131.374 C 89.885 131.340,89.420 131.069,88.818 130.772 C 88.215 130.475,87.722 130.268,87.722 130.312 M120.322 140.728 C 123.674 144.081,126.455 146.825,126.501 146.825 C 126.548 146.825,123.843 144.081,120.491 140.728 C 117.139 137.375,114.358 134.632,114.312 134.632 C 114.265 134.632,116.970 137.375,120.322 140.728 M103.175 135.087 C 103.338 135.130,103.605 135.130,103.768 135.087 C 103.931 135.045,103.798 135.010,103.472 135.010 C 103.146 135.010,103.012 135.045,103.175 135.087 M110.965 135.087 C 111.128 135.130,111.395 135.130,111.558 135.087 C 111.721 135.045,111.588 135.010,111.262 135.010 C 110.936 135.010,110.802 135.045,110.965 135.087 M106.139 135.265 C 106.814 135.298,107.919 135.298,108.594 135.265 C 109.270 135.233,108.717 135.207,107.367 135.207 C 106.016 135.207,105.464 135.233,106.139 135.265 M56.816 144.115 C 59.982 147.282,62.610 149.873,62.657 149.873 C 62.703 149.873,60.151 147.282,56.986 144.115 C 53.820 140.948,51.192 138.357,51.145 138.357 C 51.098 138.357,53.650 140.948,56.816 144.115 M160.277 147.206 L 159.780 147.756 160.330 147.259 C 160.633 146.985,160.881 146.738,160.881 146.708 C 160.881 146.578,160.741 146.693,160.277 147.206 M340.809 161.389 C 340.809 168.700,340.830 171.691,340.855 168.036 C 340.881 164.380,340.881 158.398,340.855 154.742 C 340.830 151.086,340.809 154.077,340.809 161.389 M378.197 159.102 C 378.199 159.475,378.233 159.607,378.274 159.397 C 378.314 159.186,378.313 158.881,378.270 158.719 C 378.228 158.558,378.195 158.730,378.197 159.102 M198.007 159.187 C 198.007 159.513,198.042 159.646,198.085 159.483 C 198.127 159.320,198.127 159.054,198.085 158.891 C 198.042 158.728,198.007 158.861,198.007 159.187 M379.548 159.187 C 379.548 159.513,379.583 159.646,379.626 159.483 C 379.668 159.320,379.668 159.054,379.626 158.891 C 379.583 158.728,379.548 158.861,379.548 159.187 M117.602 163.463 L 117.104 164.014 117.655 163.516 C 117.957 163.243,118.205 162.995,118.205 162.966 C 118.205 162.835,118.065 162.950,117.602 163.463 M98.730 164.429 C 98.870 164.524,99.130 164.602,99.308 164.604 C 99.742 164.607,99.607 164.510,98.984 164.371 C 98.613 164.288,98.544 164.304,98.730 164.429 M370.195 176.376 C 369.501 177.075,368.971 177.646,369.018 177.646 C 369.064 177.646,369.670 177.075,370.364 176.376 C 371.058 175.677,371.588 175.106,371.541 175.106 C 371.494 175.106,370.889 175.677,370.195 176.376 M188.558 178.366 L 188.061 178.916 188.611 178.419 C 189.124 177.955,189.240 177.815,189.109 177.815 C 189.080 177.815,188.832 178.063,188.558 178.366 M352.712 184.370 C 352.922 184.411,353.227 184.409,353.389 184.367 C 353.551 184.325,353.378 184.291,353.006 184.293 C 352.633 184.295,352.501 184.330,352.712 184.370 M352.712 185.725 C 352.922 185.766,353.227 185.764,353.389 185.722 C 353.551 185.679,353.378 185.646,353.006 185.648 C 352.633 185.650,352.501 185.685,352.712 185.725 M69.811 207.621 C 69.811 207.947,69.846 208.080,69.888 207.917 C 69.931 207.754,69.931 207.487,69.888 207.324 C 69.846 207.161,69.811 207.295,69.811 207.621 M89.116 207.621 C 89.116 207.947,89.151 208.080,89.194 207.917 C 89.236 207.754,89.236 207.487,89.194 207.324 C 89.151 207.161,89.116 207.295,89.116 207.621 M148.557 207.621 C 148.557 207.947,148.592 208.080,148.635 207.917 C 148.678 207.754,148.678 207.487,148.635 207.324 C 148.592 207.161,148.557 207.295,148.557 207.621 " stroke="none" fill="#c7e3a1" fill-rule="evenodd"></path>
  </g>
</svg>