<?xml version="1.0" encoding="utf-8"?>
<!-- Generator: Adobe Illustrator 22.1.0, SVG Export Plug-In . SVG Version: 6.00 Build 0)  -->
<svg version="1.1" id="search" xmlns="http://www.w3.org/2000/svg" xmlns:xlink="http://www.w3.org/1999/xlink" x="0px" y="0px"
	 viewBox="0 0 86.2 87.4" style="enable-background:new 0 0 86.2 87.4;" xml:space="preserve">
<path fill="#586168" d="M12.1,85.3l20.1-20.1c5.4,3.4,11.9,5.4,18.8,5.4c19.5,0,35.3-15.8,35.3-35.3C86.2,15.8,70.4,0,50.9,0
	C31.4,0,15.6,15.8,15.6,35.3c0,7.5,2.3,14.4,6.3,20.2L2.1,75.4c-1.4,1.4-2.1,3.2-2.1,5c0,1.8,0.7,3.6,2.1,5
	C4.8,88.1,9.3,88.1,12.1,85.3z M27,35.3c0-13.2,10.7-23.9,23.9-23.9s23.9,10.7,23.9,23.9c0,13.2-10.7,23.9-23.9,23.9
	S27,48.5,27,35.3z"/>
</svg>
