<svg id="update" data-name="Calque 1" xmlns="http://www.w3.org/2000/svg" viewBox="0 0 54 44">
  <title>icn_mise_a_jour_orange</title>
  <path  d="M45.42,20.74A1.33,1.33,0,0,1,44.1,19.6a17.1,17.1,0,0,0-4.89-9.81,17.27,17.27,0,0,0-29,8.29,1.33,1.33,0,0,1-2.59-.6,19.93,19.93,0,0,1,39.14,1.75,1.32,1.32,0,0,1-1.13,1.5Z"/>
  <polygon  points="52.63 9.48 50.54 8.31 44.77 18.59 34.94 12.08 33.62 14.08 45.6 22 52.63 9.48"/>
  <path  d="M27,41.92A19.91,19.91,0,0,1,7.27,24.77,1.33,1.33,0,1,1,9.9,24.4a17.1,17.1,0,0,0,4.89,9.81A17.28,17.28,0,0,0,44,25.3a1.32,1.32,0,1,1,2.6.51A19.92,19.92,0,0,1,27,41.92Z"/>
  <polygon  points="1.37 34.52 3.46 35.69 9.23 25.41 19.06 31.92 20.38 29.92 8.4 22 1.37 34.52"/>
</svg>
