<svg id="alerteBatterie" data-name="Calque 1" xmlns="http://www.w3.org/2000/svg" viewBox="0 0 56 40">
  <title>icn_batterie_rouge</title>
  <path fill="#ed4337" d="M7.64,39.25A.77.77,0,0,1,7.11,39,.75.75,0,0,1,7.1,38l36-37a.75.75,0,1,1,1.07,1l-36,37A.74.74,0,0,1,7.64,39.25Z"/>
  <polygon fill="#f99f9d" points="34.34 6.76 1.11 6.76 1.11 34.24 7.59 34.24 34.34 6.76"/>
  <polygon fill="#f99f9d" points="42.71 6.76 15.96 34.24 50.64 34.24 50.64 6.76 42.71 6.76"/>
  <rect fill="#f99f9d" x="49.64" y="14.5" width="5" height="13"/>
  <polygon fill="none" points="50.01 33.98 50.02 27.05 54.35 27.06 54.38 15.06 50.05 15.05 50.07 7.25 42.25 7.23 16.3 33.9 50.01 33.98"/>
  <polygon fill="none" points="1.68 7.13 1.62 33.86 7.95 33.88 33.89 7.21 1.68 7.13"/>
  <polygon fill="#ed4336" points="1.62 33.86 1.68 7.13 33.89 7.21 34.87 6.21 0.68 6.13 0.61 34.86 6.98 34.87 7.95 33.88 1.62 33.86"/>
  <polygon fill="#ed4336" points="51.05 14.05 51.07 6.25 43.22 6.23 42.25 7.23 50.07 7.25 50.05 15.05 54.38 15.06 54.35 27.06 50.02 27.05 50.01 33.98 16.3 33.9 15.33 34.89 51 34.98 51.02 28.05 55.35 28.06 55.39 14.06 51.05 14.05"/>
</svg>
