<?xml version="1.0" encoding="utf-8"?>
<!-- Generator: Adobe Illustrator 22.1.0, SVG Export Plug-In . SVG Version: 6.00 Build 0)  -->
<svg version="1.1" id="ben" xmlns="http://www.w3.org/2000/svg" xmlns:xlink="http://www.w3.org/1999/xlink" x="0px" y="0px"
	 viewBox="0 0 119.9 185" style="enable-background:new 0 0 119.9 185;" xml:space="preserve">
<style type="text/css">
	.st0{fill:#374044;}
</style>
<g>
	<g>
		<path class="st0" d="M343.1-184.6C328.7-200.1,322.7-227,317-253c-9-40.6-19.2-86.3-65-91.7c1.2-1.8,1.9-3.9,1.9-6.2
			c0-6.2-5-11.2-11.2-11.2c-6.2,0-11.2,5-11.2,11.2c0,2.3,0.7,4.5,1.9,6.2c-44.2,5.8-56,53-66.6,95.1c-6.2,24.7-12.6,50.3-24.9,65.3
			l-1.7,2.1v2.7c0,8.8,9.6,13.6,34.2,17.3c15,2.2,33.9,3.6,54.4,4c-1.8,2.7-2.9,6-2.9,9.5c0,9.3,7.5,16.8,16.8,16.8
			c9.3,0,16.8-7.5,16.8-16.8c0-3.5-1.1-6.8-2.9-9.5c20.5-0.4,39.5-1.8,54.4-4c24.6-3.6,34.2-8.5,34.2-17.3v-2.9L343.1-184.6z
			 M242.6-172.9c-45.8,0-74.5-4.5-84.9-8c11.4-17.4,17.5-41.5,23.4-65c10.9-43.4,21.2-84.4,61.5-84.4c42,0,50.3,37.3,59.9,80.6
			c5.5,24.9,11.2,50.6,24.6,69C316.3-177.4,287.8-172.9,242.6-172.9z"/>
		<g>
			<path class="st0" d="M115.5-210.5c-4.3,9.5-6,18.6-6,28s1.7,18.5,6,28c2.3,5.1,4.4,7,8,7c4.4,0,7-3.7,7-7c0-5-7-9.7-7-28
				s7-23,7-28c0-3.3-2.6-7-7-7C119.9-217.5,117.8-215.6,115.5-210.5z"/>
			<path class="st0" d="M81.5-182.5c0,21.5,6.8,35.2,10,42c2.9,6.2,5.7,7,8.2,7c4.2,0,7-3.5,7-7c0-5.9-11.2-15.9-11.2-42
				s11.2-36.1,11.2-42c0-3.5-2.8-7-7-7c-2.5,0-5.2,0.8-8.2,7C88.3-217.7,81.5-204,81.5-182.5z"/>
		</g>
		<g>
			<path class="st0" d="M362.5-217.5c-4.4,0-7,3.7-7,7c0,5,7,9.7,7,28s-7,23-7,28c0,3.3,2.6,7,7,7c3.6,0,5.7-1.9,8-7
				c4.3-9.5,6-18.6,6-28s-1.7-18.5-6-28C368.2-215.6,366.1-217.5,362.5-217.5z"/>
			<path class="st0" d="M394.6-224.5c-2.9-6.2-5.7-7-8.2-7c-4.2,0-7,3.5-7,7c0,5.9,11.2,15.9,11.2,42s-11.2,36.1-11.2,42
				c0,3.5,2.8,7,7,7c2.5,0,5.2-0.8,8.2-7c3.2-6.8,10-20.4,10-42S397.8-217.7,394.6-224.5z"/>
		</g>
	</g>
</g>
<g id="Layer_13_9_">
	<path class="st0" d="M-178.5-140.6h-111.9c-10.3,0-18.6-8.3-18.6-18.6v-68.4c0-10.3,8.3-18.6,18.6-18.6h111.9
		c10.3,0,18.6,8.3,18.6,18.6v68.4C-159.9-148.9-168.2-140.6-178.5-140.6z M-290.4-233.8c-3.4,0-6.2,2.8-6.2,6.2v68.4
		c0,3.4,2.8,6.2,6.2,6.2h111.9c3.4,0,6.2-2.8,6.2-6.2v-68.4c0-3.4-2.8-6.2-6.2-6.2H-290.4z"/>
	<path class="st0" d="M-184.7-233.8h-99.4c-3.4,0-6.2-2.8-6.2-6.2v-37.3c0-27.5,22.3-49.7,49.7-49.7h12.4
		c27.5,0,49.7,22.3,49.7,49.7v37.3C-178.5-236.6-181.3-233.8-184.7-233.8z M-277.9-246.2h87v-31.1c0-20.6-16.7-37.3-37.3-37.3h-12.4
		c-20.6,0-37.3,16.7-37.3,37.3V-246.2z"/>
	<path class="st0" d="M-234.4-190.3c-6.9,0-12.4-5.6-12.4-12.4s5.6-12.4,12.4-12.4s12.4,5.6,12.4,12.4S-227.6-190.3-234.4-190.3z"/>
	<rect x="-240.7" y="-196.5" class="st0" width="12.4" height="24.9"/>
</g>
<g>
	<path class="st0" d="M80.7,29.7c-2.9,0-5.3-2.4-5.3-5.3v-14H44.5v14c0,2.9-2.4,5.3-5.3,5.3S34,27.4,34,24.5V5.3
		C34,2.4,36.3,0,39.2,0h41.5C83.6,0,86,2.4,86,5.3v19.2C86,27.4,83.6,29.7,80.7,29.7z"/>
	<path class="st0" d="M114.7,30.2H5.3c-2.9,0-5.3-2.4-5.3-5.3s2.4-5.3,5.3-5.3h109.4c2.9,0,5.3,2.4,5.3,5.3S117.6,30.2,114.7,30.2z"
		/>
	<path class="st0" d="M113.5,185H6.4c-2.9,0-5.3-2.4-5.3-5.3V45.6c0-2.9,2.4-5.3,5.3-5.3h107.1c2.9,0,5.3,2.4,5.3,5.3v134.2
		C118.8,182.6,116.4,185,113.5,185z M11.7,174.5h96.6V50.8H11.7V174.5z"/>
	<path class="st0" d="M33.9,167.4c-2.9,0-5.3-2.4-5.3-5.3V64.3c0-2.9,2.4-5.3,5.3-5.3s5.3,2.4,5.3,5.3v97.9
		C39.2,165.1,36.8,167.4,33.9,167.4z"/>
	<path class="st0" d="M61.5,167.4c-2.9,0-5.3-2.4-5.3-5.3V64.3c0-2.9,2.4-5.3,5.3-5.3c2.9,0,5.3,2.4,5.3,5.3v97.9
		C66.8,165.1,64.4,167.4,61.5,167.4z"/>
	<path class="st0" d="M89.1,167.4c-2.9,0-5.3-2.4-5.3-5.3V64.3c0-2.9,2.4-5.3,5.3-5.3s5.3,2.4,5.3,5.3v97.9
		C94.3,165.1,92,167.4,89.1,167.4z"/>
</g>
</svg>
