<svg id="connexion" data-name="Calque 1" xmlns="http://www.w3.org/2000/svg" viewBox="0 0 44 34">
  <path  d="M35.23,18.58a1.51,1.51,0,0,1-1-.35,19,19,0,0,0-24.39,0A1.5,1.5,0,1,1,8,15.93a22.06,22.06,0,0,1,28.23,0,1.5,1.5,0,0,1-1,2.65Z"/>
  <path d="M41.77,11.94a1.51,1.51,0,0,1-1-.37,28.45,28.45,0,0,0-37.56,0,1.5,1.5,0,0,1-2-2.25,31.46,31.46,0,0,1,41.52,0,1.49,1.49,0,0,1,.13,2.11A1.46,1.46,0,0,1,41.77,11.94Z"/>
  <path d="M15.52,25.23a1.5,1.5,0,0,1-.87-2.72,12.74,12.74,0,0,1,14.72,0A1.5,1.5,0,0,1,27.64,25a9.74,9.74,0,0,0-11.26,0A1.45,1.45,0,0,1,15.52,25.23Z"/>
  <path d="M22,32.5a1.5,1.5,0,0,1-1.07-.45,1.46,1.46,0,0,1-.43-1,1.5,1.5,0,0,1,2.56-1.07A1.56,1.56,0,0,1,23.49,31a1.36,1.36,0,0,1-.11.56,1.31,1.31,0,0,1-.32.48A1.46,1.46,0,0,1,22,32.5Z"/>
</svg>
