<svg id="Calque_1" data-name="Calque 1" xmlns="http://www.w3.org/2000/svg" viewBox="0 0 24 24"><defs><style>.cls-1{fill:#374044;}</style></defs><title>courriel</title><path class="cls-1" d="M22.74,4.92a1.73,1.73,0,0,0-.64-.62h0a1.78,1.78,0,0,0-.84-.22H2.76a1.65,1.65,0,0,0-.84.22h0a1.63,1.63,0,0,0-.63.59,1.57,1.57,0,0,0-.29,1V18.16a1.8,1.8,0,0,0,.24.9,1.68,1.68,0,0,0,.62.62,1.8,1.8,0,0,0,.9.24H21.24a1.8,1.8,0,0,0,.9-.24,1.68,1.68,0,0,0,.62-.62,1.8,1.8,0,0,0,.24-.9V5.84A1.65,1.65,0,0,0,22.74,4.92Zm-1.5,0h.07l-8.06,7a1.71,1.71,0,0,1-2.11,0L2.74,5Zm-6.32,6.27-.8.41L21.46,19a.85.85,0,0,1-.22,0H2.76a.4.4,0,0,1-.22,0l7.19-7.15-.65-.58L1.92,18.38a.4.4,0,0,1,0-.22V5.84A.92.92,0,0,1,2,5.47l8.62,7.23a2.6,2.6,0,0,0,1.63.62,2.54,2.54,0,0,0,1.63-.66l8.2-7.17a.81.81,0,0,1,.07.35V18.16a.4.4,0,0,1,0,.22Z"/></svg>