<svg id="Calque_1" data-name="Calque 1" xmlns="http://www.w3.org/2000/svg" viewBox="0 0 50.44 23.65"><defs><style>.cls-1{fill:#005abb;}</style></defs><path class="cls-1" d="M48.44,9.83H6.83l6.41-6.42A2,2,0,0,0,10.42.58L.59,10.41l0,0a1.78,1.78,0,0,0-.22.26l-.06.11c0,.08-.09.15-.13.24a.65.65,0,0,1,0,.13c0,.08,0,.16-.07.24a1.75,1.75,0,0,0,0,.4,1.72,1.72,0,0,0,0,.39c0,.09,0,.17.07.25a.5.5,0,0,1,0,.13l.13.23.06.11a1.86,1.86,0,0,0,.22.27l0,0,9.83,9.83a2,2,0,0,0,2.82,0,2,2,0,0,0,0-2.83L6.83,13.83H48.44a2,2,0,0,0,0-4Z"/></svg>