<svg id="Calque_1" data-name="Calque 1" xmlns="http://www.w3.org/2000/svg" viewBox="0 0 24 24"><defs><style>.cls-1{fill:none;stroke:#374044;stroke-miterlimit:10;}.cls-2{fill:#374044;}</style></defs><title>imprimante</title><path class="cls-1" d="M18.45,8.25H5.55a.5.5,0,0,1-.5-.51V2.38a.5.5,0,0,1,.5-.5h12.9a.5.5,0,0,1,.5.5V7.74A.5.5,0,0,1,18.45,8.25Z"/><path class="cls-2" d="M21.9,9.43H2.2A1.16,1.16,0,0,0,1,10.53V17a1.24,1.24,0,0,0,1.2,1.19H3.48V15.91h17v2.28H21.9A1.15,1.15,0,0,0,23,17V10.53A1.07,1.07,0,0,0,21.9,9.43ZM7.08,13.72H3.52A.55.55,0,0,1,3,13.17a.55.55,0,0,1,.55-.55H7.08a.55.55,0,0,1,.55.55A.55.55,0,0,1,7.08,13.72Zm10.24-.05a.55.55,0,0,1-.55-.55.55.55,0,1,1,1.1,0A.55.55,0,0,1,17.32,13.67Zm2.27,0a.55.55,0,0,1-.55-.55.55.55,0,0,1,1.1,0A.55.55,0,0,1,19.59,13.67Z"/><path class="cls-2" d="M18.89,20H5.11a.52.52,0,0,1-.53-.53.53.53,0,0,1,.53-.53H18.89a.54.54,0,0,1,.54.53A.53.53,0,0,1,18.89,20Z"/><path class="cls-2" d="M18.89,17.88H5.11a.53.53,0,0,1,0-1.06H18.89a.53.53,0,1,1,0,1.06Z"/><path class="cls-2" d="M18.89,22.12H5.11a.52.52,0,0,1-.53-.53.53.53,0,0,1,.53-.53H18.89a.54.54,0,0,1,.54.53A.53.53,0,0,1,18.89,22.12Z"/></svg>