<?xml version="1.0" encoding="utf-8"?>
<!-- Generator: Adobe Illustrator 22.1.0, SVG Export Plug-In . SVG Version: 6.00 Build 0)  -->
<svg version="1.1" id="login" xmlns="http://www.w3.org/2000/svg" xmlns:xlink="http://www.w3.org/1999/xlink" x="0px" y="0px"
	 viewBox="0 0 33.3 33.3" style="enable-background:new 0 0 33.3 33.3;" xml:space="preserve">
<g>
	<path fill="#DFE3E4" d="M16.8,0.4c-9,0-16.3,7.3-16.3,16.3c0,9,7.3,16.3,16.3,16.3c9,0,16.3-7.3,16.3-16.3C33.1,7.7,25.8,0.4,16.8,0.4
		z M25.9,25c-1.6-3.4-5.1-5.8-9.2-5.8c-4,0-7.5,2.4-9.2,5.8c-2-2.2-3.2-5.1-3.2-8.3c0-6.8,5.5-12.4,12.4-12.4
		c6.8,0,12.4,5.5,12.4,12.4C29.1,19.9,27.9,22.8,25.9,25z"/>
	<path fill="#586168" d="M16.8,4.4C9.9,4.4,4.4,9.9,4.4,16.7c0,3.2,1.2,6.1,3.2,8.3c1.6-3.4,5.1-5.8,9.2-5.8c-3,0-5.4-2.4-5.4-5.4
		s2.4-5.4,5.4-5.4c3,0,5.4,2.4,5.4,5.4s-2.4,5.4-5.4,5.4c4,0,7.5,2.4,9.2,5.8c2-2.2,3.2-5.1,3.2-8.3C29.1,9.9,23.6,4.4,16.8,4.4z"/>
	<circle fill="#DFE3E4" cx="16.8" cy="13.9" r="5.4"/>
</g>
</svg>
