<?xml version="1.0" encoding="utf-8"?>
<!-- Generator: Adobe Illustrator 22.1.0, SVG Export Plug-In . SVG Version: 6.00 Build 0)  -->
<svg version="1.1" id="signalAlerte" xmlns="http://www.w3.org/2000/svg" xmlns:xlink="http://www.w3.org/1999/xlink" x="0px" y="0px"
	 viewBox="0 0 19.1 16.5" style="enable-background:new 0 0 19.1 16.5;" xml:space="preserve">
<g>
	<path fill="#FFFFFF" d="M9.6,11.4c-0.5,0-1-0.4-1-0.9V6.1c0-0.5,0.4-0.9,0.9-0.9h0c0.5,0,0.9,0.4,0.9,0.9v4.4
		C10.6,11,10.2,11.4,9.6,11.4z M9.6,5.6c-0.3,0-0.5,0.2-0.5,0.5v4.4c0,0.3,0.2,0.5,0.5,0.5c0.3,0,0.5-0.2,0.5-0.5V6.1
		C10.1,5.8,9.9,5.6,9.6,5.6L9.6,5.6z"/>
	<path fill="#FFFFFF" d="M9.6,14.1c-0.5,0-0.9-0.4-0.9-0.9c0-0.5,0.4-0.9,0.9-0.9c0.5,0,0.9,0.4,0.9,0.9C10.6,13.7,10.1,14.1,9.6,14.1z
		 M9.6,12.7c-0.3,0-0.5,0.2-0.5,0.5s0.2,0.5,0.5,0.5s0.5-0.2,0.5-0.5S9.9,12.7,9.6,12.7z"/>
	<path fill="#FFFFFF" d="M17.8,16.5l-16.2,0c0,0-0.9,0.1-1.4-0.7c-0.5-0.7-0.2-1.6-0.2-1.7c0,0,0-0.1,0-0.1L8.4,0.7C8.5,0.6,9,0,9.6,0
		c0.8,0,1.2,0.8,1.2,0.8l8.2,13.4c0,0,0,0,0,0.1c0,0,0.2,0.7-0.2,1.4C18.5,16.4,17.8,16.5,17.8,16.5z M1.6,15.8l16.2,0
		c0,0,0.3-0.1,0.6-0.5c0.2-0.4,0.2-0.7,0.1-0.8L10.3,1.2c0,0-0.3-0.5-0.7-0.5C9.3,0.7,9,0.9,8.9,1.1L0.7,14.3c0,0.1-0.1,0.7,0.1,1.1
		C1.1,15.9,1.6,15.8,1.6,15.8z M9.6,12.8c-0.2,0-0.4,0.2-0.4,0.4s0.2,0.4,0.4,0.4c0.2,0,0.4-0.2,0.4-0.4S9.8,12.8,9.6,12.8z
		 M9.6,5.7c-0.2,0-0.4,0.2-0.4,0.4v4.4c0,0.2,0.2,0.4,0.4,0.4c0.2,0,0.4-0.2,0.4-0.4V6.1C10,5.9,9.8,5.7,9.6,5.7z"/>
	<path fill="#FFFFFF" d="M9.6,11.1L9.6,11.1c-0.3,0-0.6-0.3-0.6-0.6V6c0-0.3,0.3-0.6,0.6-0.6h0c0.3,0,0.6,0.3,0.6,0.6v4.5
		C10.3,10.9,10,11.1,9.6,11.1z"/>
	<circle fill="#FFFFFF" cx="9.6" cy="13.2" r="0.6"/>
</g>
</svg>
