<svg xmlns="http://www.w3.org/2000/svg" width="40" height="40" viewBox="0 0 40 40"><g transform="translate(-2487.709 -2236.937)"><path d="M2507.77,2241.936a14.97,14.97,0,0,1,14.939,15h0a14.969,14.969,0,0,1-14.938,15h-.124a14.969,14.969,0,0,1-14.938-15h0a14.969,14.969,0,0,1,14.938-15h.123Zm0,2.977h-.123a12.023,12.023,0,0,0,0,24.046h.123a12.023,12.023,0,0,0,0-24.046Zm-.378,6.5.03.03.331.346a.993.993,0,0,1,0,1.373l-2.3,2.4h6.5a.992.992,0,0,1,.992.992h0v.755a.992.992,0,0,1-.991.993h-6.507l2.3,2.4a.992.992,0,0,1,0,1.373l-.331.346a.992.992,0,0,1-1.4.03l-.03-.03-4.593-4.791a.992.992,0,0,1-.194-1.082.958.958,0,0,1,.2-.317l4.587-4.788a.993.993,0,0,1,1.4-.033Z" fill="#fff" fill-rule="evenodd"/></g><rect width="40" height="40" fill="none"/></svg>