<svg width="72" height="360" viewBox="0 0 72 360"
    xmlns="http://www.w3.org/2000/svg"
    xmlns:xlink="http://www.w3.org/1999/xlink">
    
    <defs></defs>

    <g id="clock_red" width="24" height="24">
        <path d="M22.55,12A10.55,10.55,0,1,1,12,1.45,10.55,10.55,0,0,1,22.55,12Z" fill="none" stroke="#ff081a" stroke-miterlimit="10" stroke-width="1.5"/>
        <polyline points="11.88 5.53 11.88 12.34 14.9 15.27" fill="none" stroke="#ff0a1b" stroke-linecap="round" stroke-linejoin="round" stroke-width="1.7"/>
    </g>

    <g id="promo_orange" width="24" height="24" transform="translate(0, 24)">
        <path d="M21.14,14.82l1.18-1.18a2.31,2.31,0,0,0,0-3.28L21.14,9.18a2.32,2.32,0,0,1-.68-1.65V5.86a2.32,2.32,0,0,0-2.32-2.32H16.47a2.32,2.32,0,0,1-1.65-.68L13.64,1.68a2.31,2.31,0,0,0-3.28,0L9.18,2.86a2.32,2.32,0,0,1-1.65.68H5.86A2.32,2.32,0,0,0,3.54,5.86V7.53a2.32,2.32,0,0,1-.68,1.65L1.68,10.36a2.31,2.31,0,0,0,0,3.28l1.18,1.18a2.32,2.32,0,0,1,.68,1.65v1.67a2.32,2.32,0,0,0,2.32,2.32H7.53a2.32,2.32,0,0,1,1.65.68l1.18,1.18a2.31,2.31,0,0,0,3.28,0l1.18-1.18a2.32,2.32,0,0,1,1.65-.68h1.67a2.32,2.32,0,0,0,2.32-2.32V16.47A2.32,2.32,0,0,1,21.14,14.82Z" fill="none" stroke="#ffa052" stroke-linecap="round" stroke-linejoin="round" stroke-width="1.6"/>
        <path d="M5.69,12A6.31,6.31,0,1,1,12,18.31,6.3,6.3,0,0,1,5.69,12Z" fill="none" stroke="#ffa052" stroke-linecap="round" stroke-linejoin="round" stroke-width="1.6"/>
        <path d="M15.06,14a1.14,1.14,0,1,0-1.14,1.15A1.14,1.14,0,0,0,15.06,14Z" fill="none" stroke="#ffa052" stroke-linecap="round" stroke-linejoin="round"/>
        <path d="M11.22,10a1.14,1.14,0,1,0-1.14,1.14A1.15,1.15,0,0,0,11.22,10Z" fill="none" stroke="#ffa052" stroke-linecap="round" stroke-linejoin="round"/>
        <line x1="14.53" y1="9.05" x2="9.47" y2="14.95" fill="none" stroke="#ffa052" stroke-linecap="round" stroke-linejoin="round"/>
    </g>

    <g id="new_pink" width="24" height="24" transform="translate(0, 48)">
        <polyline points="15.61 23 2.66 18.12 8.54 3.84 13.41 1 19.84 3.51 21.34 8.84 15.61 23" fill="none" stroke="#f5399b" stroke-linecap="round" stroke-linejoin="round" stroke-width="1.6"/>
        <path d="M15.13,5.88a1,1,0,0,1-.56-1.28,1,1,0,0,1,1.32-.55,1,1,0,0,1,.56,1.29" fill="none" stroke="#f5399b" stroke-linecap="round" stroke-linejoin="round"/>
        <text transform="matrix(0.38, -0.9, 0.93, 0.37, 11.74, 20.49)" font-size="6.51" fill="#f5399b" font-family="ArialMT, Arial">New</text>
    </g>

    <g id="screen_blue" width="24" height="24" transform="translate(0, 72)">
        <rect x="1" y="2.55" width="22" height="15.09" stroke-width="1.6" stroke="#2ba7d8" stroke-linecap="round" stroke-linejoin="round" fill="none"/>
        <polygon points="14.25 17.64 9.75 17.64 8.02 21.45 15.98 21.45 14.25 17.64" fill="none" stroke="#2ba7d8" stroke-linecap="round" stroke-linejoin="round" stroke-width="1.6"/>
        <line x1="4.9" y1="21.45" x2="19.08" y2="21.45" fill="none" stroke="#2ba7d8" stroke-linecap="round" stroke-linejoin="round" stroke-width="1.6"/>
        <line x1="7.31" y1="14.42" x2="16.69" y2="5.04" fill="none" stroke="#2ba7d8" stroke-linecap="round" stroke-linejoin="round"/>
        <line x1="16.07" y1="8.3" x2="13.22" y2="11.16" fill="none" stroke="#2ba7d8" stroke-linecap="round" stroke-linejoin="round"/>
    </g>

    <g id="clock_gray" width="24" height="24" transform="translate(0, 96)">
      <path d="M22.55,12A10.55,10.55,0,1,1,12,1.45,10.55,10.55,0,0,1,22.55,12Z" fill="none" stroke="#7d858d" stroke-miterlimit="10" stroke-width="1.5"/>
      <polyline points="11.88 5.53 11.88 12.34 14.9 15.27" fill="none" stroke="#7d858d" stroke-linecap="round" stroke-linejoin="round" stroke-width="1.7"/>
    </g>

    <g id="promo_gray" width="24" height="24" transform="translate(0, 120)">
      <path d="M21.14,14.82l1.18-1.18a2.31,2.31,0,0,0,0-3.28L21.14,9.18a2.32,2.32,0,0,1-.68-1.65V5.86a2.32,2.32,0,0,0-2.32-2.32H16.47a2.32,2.32,0,0,1-1.65-.68L13.64,1.68a2.31,2.31,0,0,0-3.28,0L9.18,2.86a2.32,2.32,0,0,1-1.65.68H5.86A2.32,2.32,0,0,0,3.54,5.86V7.53a2.32,2.32,0,0,1-.68,1.65L1.68,10.36a2.31,2.31,0,0,0,0,3.28l1.18,1.18a2.32,2.32,0,0,1,.68,1.65v1.67a2.32,2.32,0,0,0,2.32,2.32H7.53a2.32,2.32,0,0,1,1.65.68l1.18,1.18a2.31,2.31,0,0,0,3.28,0l1.18-1.18a2.32,2.32,0,0,1,1.65-.68h1.67a2.32,2.32,0,0,0,2.32-2.32V16.47A2.32,2.32,0,0,1,21.14,14.82Z" fill="none" stroke="#7d858d" stroke-linecap="round" stroke-linejoin="round" stroke-width="1.6"/>
      <path d="M5.69,12A6.31,6.31,0,1,1,12,18.31,6.3,6.3,0,0,1,5.69,12Z" fill="none" stroke="#7d858d" stroke-linecap="round" stroke-linejoin="round" stroke-width="1.6"/>
      <path d="M15.06,14a1.14,1.14,0,1,0-1.14,1.15A1.14,1.14,0,0,0,15.06,14Z" fill="none" stroke="#7d858d" stroke-linecap="round" stroke-linejoin="round"/>
      <path d="M11.22,10a1.14,1.14,0,1,0-1.14,1.14A1.15,1.15,0,0,0,11.22,10Z" fill="none" stroke="#7d858d" stroke-linecap="round" stroke-linejoin="round"/>
      <line x1="14.53" y1="9.05" x2="9.47" y2="14.95" fill="none" stroke="#7d858d" stroke-linecap="round" stroke-linejoin="round"/>
    </g>

    <g id="new_gray" width="24" height="24" transform="translate(0, 144)">
      <polyline points="15.61 23 2.66 18.12 8.54 3.84 13.41 1 19.84 3.51 21.34 8.84 15.61 23" fill="none" stroke="#7d858d" stroke-linecap="round" stroke-linejoin="round" stroke-width="1.6"/>
      <path d="M15.13,5.88a1,1,0,0,1-.56-1.28,1,1,0,0,1,1.32-.55,1,1,0,0,1,.56,1.29" fill="none" stroke="#7d858d" stroke-linecap="round" stroke-linejoin="round"/>
      <text transform="matrix(0.38, -0.9, 0.93, 0.37, 11.74, 20.49)" font-size="6.51" fill="#7d858d" font-family="ArialMT, Arial">New</text>
    </g>

    <g id="screen_gray" width="24" height="24" transform="translate(0, 168)">
      <rect x="1" y="2.55" width="22" height="15.09" stroke-width="1.6" stroke="#7d858d" stroke-linecap="round" stroke-linejoin="round" fill="none"/>
      <polygon points="14.25 17.64 9.75 17.64 8.02 21.45 15.98 21.45 14.25 17.64" fill="none" stroke="#7d858d" stroke-linecap="round" stroke-linejoin="round" stroke-width="1.6"/>
      <line x1="4.9" y1="21.45" x2="19.08" y2="21.45" fill="none" stroke="#7d858d" stroke-linecap="round" stroke-linejoin="round" stroke-width="1.6"/>
      <line x1="7.31" y1="14.42" x2="16.69" y2="5.04" fill="none" stroke="#7d858d" stroke-linecap="round" stroke-linejoin="round"/>
      <line x1="16.07" y1="8.3" x2="13.22" y2="11.16" fill="none" stroke="#7d858d" stroke-linecap="round" stroke-linejoin="round"/>
    </g>

    <g id="chevron-right" width="24" height="24" transform="translate(0, 192)">
      <path d="M4.89,21.16,14.05,12,4.89,2.82,7.7,0l12,12L7.7,24Z" fill="#7d858d"/>
    </g>

    <g id="exclu" width="24" height="24" transform="translate(0, 216)">
      <path fill="#4d76b1" d="M12,0A12,12 0 0,1 24,12A12,12 0 0,1 12,24A12,12 0 0,1 0,12A12,12 0 0,1 12,0M12,2A10,10 0 0,0 2,12C2,14.4 2.85,16.6 4.26,18.33L18.33,4.26C16.6,2.85 14.4,2 12,2M12,22A10,10 0 0,0 22,12C22,9.6 21.15,7.4 19.74,5.67L5.67,19.74C7.4,21.15 9.6,22 12,22Z" />
    </g>

    <g id="non-commandable" width="24" height="24" transform="translate(0, 240)">
      <polyline points="1 2.7 4.92 3.95 8.14 15.13 6.97 18.33 20.3 18.33" fill="none" stroke="#848484" stroke-linecap="round" stroke-linejoin="round"/>
      <polyline points="6.15 6.18 23 6.18 19.6 14.57 8.15 14.57" fill="none" stroke="#848484" stroke-linecap="round" stroke-linejoin="round"/>
      <line x1="6.8" y1="10.23" x2="21.36" y2="10.23" fill="none" stroke="#848484" stroke-linecap="round" stroke-linejoin="round"/>
      <line x1="11.61" y1="6.69" x2="11.61" y2="14.32" fill="none" stroke="#848484" stroke-linecap="round" stroke-linejoin="round"/>
      <line x1="16.71" y1="6.69" x2="16.71" y2="14.32" fill="none" stroke="#848484" stroke-linecap="round" stroke-linejoin="round"/>
      <path d="M9.93,21.1A.94.94,0,1,1,9,20.16.94.94,0,0,1,9.93,21.1Z" fill="none" stroke="#848484" stroke-linecap="round" stroke-linejoin="round"/>
      <path d="M18,21.1a.94.94,0,1,1-.94-.94A.94.94,0,0,1,18,21.1Z" fill="none" stroke="#848484" stroke-linecap="round" stroke-linejoin="round"/>
      <path d="M20.88,21.62a.43.43,0,0,1-.35-.17L5.64,2.69a.44.44,0,0,1,.07-.63.45.45,0,0,1,.63.07L21.23,20.9a.44.44,0,0,1-.07.63A.47.47,0,0,1,20.88,21.62Z" fill="#fff" stroke="#848484" stroke-linecap="round" stroke-linejoin="round"/>
    </g>

    <g id="planning-48h" width="24" height="24" transform="translate(0, 264)">
      <path d="M14.44,14.14h3.48a2.65,2.65,0,0,1,1.82.94,4.52,4.52,0,0,1,.64,2.29v3.82H18.73" fill="none" stroke="#ff9e52" stroke-linejoin="round" stroke-width="0.75"/>
      <circle cx="17.07" cy="21.24" r="1.76" fill="none" stroke="#ff9e52" stroke-linejoin="round" stroke-width="0.75"/>
      <polyline points="3.86 12.03 14.44 12.03 14.44 21.24 10.19 21.19 10.19 21.19" fill="none" stroke="#ff9e52" stroke-linejoin="round" stroke-width="0.75"/>
      <circle cx="8.42" cy="21.19" r="1.76" fill="none" stroke="#ff9e52" stroke-linejoin="round" stroke-width="0.75"/>
      <line x1="3.86" y1="13.29" x2="8.81" y2="13.29" fill="none" stroke="#ff9e52" stroke-linejoin="round" stroke-width="0.75"/>
      <line x1="4.49" y1="14.64" x2="9.44" y2="14.64" fill="none" stroke="#ff9e52" stroke-linejoin="round" stroke-width="0.75"/>
      <line x1="5.6" y1="15.91" x2="9.44" y2="15.91" fill="none" stroke="#ff9e52" stroke-linejoin="round" stroke-width="0.75"/>
      <polyline points="6.66 21.19 4.01 21.24 4.01 18" fill="none" stroke="#ff9e52" stroke-linejoin="round" stroke-width="0.75"/>
      <text transform="translate(3.29 9.96)" font-size="10.44" fill="#ff9e52" font-family="ArialMT, Arial">48h</text>
    </g>

    <g id="promo_t_jaune" width="24" height="24" transform="translate(0, 288)">
      <circle cx="12" cy="12" r="11" fill="#f4e911"/>
      <text transform="translate(6.96 17.77)" font-size="16.49" fill="#164f93" font-family="Arial-BoldMT, Arial" font-weight="700">T</text>
    </g>

    <g id="promo_p_rouge" width="24" height="24" transform="translate(0, 312)">
      <circle cx="12" cy="12" r="11" fill="#c1272e"/>
      <text transform="translate(6.96 17.77)" font-size="16.49" fill="#ffffff" font-family="Arial-BoldMT, Arial" font-weight="700">P</text>
    </g>

    <g id="promo_b_bleu" width="24" height="24" transform="translate(0, 336)">
      <circle cx="12" cy="12" r="11" fill="#214c9b"/>
      <text transform="translate(6.96 17.77)" font-size="16.49" fill="#ffffff" font-family="Arial-BoldMT, Arial" font-weight="700">B</text>
    </g>
  
    <!-- new column -->

    <g id="more-actions" width="24" height="24" transform="translate(24, 0)">
      <path id="ic_more_vert_24px" data-name="ic more vert 24px" d="M12,7.5A2.25,2.25,0,1,0,9.75,5.25,2.25,2.25,0,0,0,12,7.5Zm0,2.25A2.25,2.25,0,1,0,14.25,12,2.25,2.25,0,0,0,12,9.75Zm0,6.75a2.25,2.25,0,1,0,2.25,2.25A2.25,2.25,0,0,0,12,16.5Z" fill="#ffffff"/>
    </g>

    <g id="chevron-left" width="24" height="24" transform="translate(24, 24)">
      <path d="M16.64,23a1.73,1.73,0,0,1-1.21-.5L6.14,13.21a1.71,1.71,0,0,1,0-2.42L15.43,1.5a1.72,1.72,0,0,1,2.43,0,1.74,1.74,0,0,1,0,2.43L9.78,12l8.08,8.07A1.72,1.72,0,0,1,16.64,23Z" fill="#586168"/>
    </g>

    <g id="loupe" width="24" height="24" transform="translate(24, 48)">
      <path d="M22.48,19.82l-5.06-5.06A8.91,8.91,0,1,0,15,17.33l5,5a1.78,1.78,0,0,0,2.52-2.51ZM9.89,16.05a6,6,0,1,1,6-6A6,6,0,0,1,9.89,16.05Z" fill="#7d858d"/>
    </g>

    <g id="croix_gris" width="24" height="24" transform="translate(24, 72)">
      <path d="M22.52,3.94,4,22.45a1.64,1.64,0,0,1-2.31-2.32l18.5-18.5a1.63,1.63,0,1,1,2.31,2.31Z" fill="#586168"/>
      <path d="M22.29,22.37a1.63,1.63,0,0,1-2.31,0L1.48,3.87A1.64,1.64,0,0,1,3.79,1.55l18.5,18.51A1.63,1.63,0,0,1,22.29,22.37Z" fill="#586168"/>
    </g>

    <g id="croix_blanc" width="24" height="24" transform="translate(24, 96)">
      <path d="M22.52,3.94,4,22.45a1.64,1.64,0,0,1-2.31-2.32l18.5-18.5a1.63,1.63,0,1,1,2.31,2.31Z" fill="#ffffff"/>
      <path d="M22.29,22.37a1.63,1.63,0,0,1-2.31,0L1.48,3.87A1.64,1.64,0,0,1,3.79,1.55l18.5,18.51A1.63,1.63,0,0,1,22.29,22.37Z" fill="#ffffff"/>
    </g>

    <g id="pointe_bleu" width="24" height="24" transform="translate(24, 120)">
      <path d="M7.49,22.8l.14-.13,10.93-9.34a1.73,1.73,0,0,0,.6-1.32,1.75,1.75,0,0,0-.6-1.32L7.65,1.34l-.18-.16A3.33,3.33,0,0,0,6.4,1c-.6,0-1.56.51-1.56,1.14h0V21.86h0c0,.63,1,1.14,1.56,1.14A3.24,3.24,0,0,0,7.49,22.8Z" fill="#85a0ba"/>
    </g>

    <g id="broken-image" width="24" height="24" transform="translate(24, 144)">
      <path fill="#7d868e" d="M21,5V11.59L18,8.58L14,12.59L10,8.59L6,12.59L3,9.58V5A2,2 0 0,1 5,3H19A2,2 0 0,1 21,5M18,11.42L21,14.43V19A2,2 0 0,1 19,21H5A2,2 0 0,1 3,19V12.42L6,15.41L10,11.41L14,15.41" />
    </g>

    <g id="chevron-droit_fonce" width="24" height="24" transform="translate(24, 168)">
      <path d="M4.89,21.16,14.05,12,4.89,2.82,7.7,0l12,12L7.7,24Z" fill="#586168"/>
    </g>

    <g id="retour-clavier" width="24" height="24" transform="translate(24, 192)">
      <path fill="#586168" d="M19,15.59L17.59,17L14,13.41L10.41,17L9,15.59L12.59,12L9,8.41L10.41,7L14,10.59L17.59,7L19,8.41L15.41,12L19,15.59M22,3A2,2 0 0,1 24,5V19A2,2 0 0,1 22,21H7C6.31,21 5.77,20.64 5.41,20.11L0,12L5.41,3.88C5.77,3.35 6.31,3 7,3H22M22,5H7L2.28,12L7,19H22V5Z" />
    </g>

    <g id="caddie" width="24" height="24" transform="translate(24, 216)">
      <path fill="#374044" d="M19.81,18.26H7.26A.66.66,0,0,1,6.73,18a.65.65,0,0,1-.08-.59l1-2.82-2.88-10L1.45,3.52A.65.65,0,0,1,1,2.7a.64.64,0,0,1,.81-.42L5.53,3.46A.65.65,0,0,1,6,3.9L9,14.41a.64.64,0,0,1,0,.41L8.19,17H19.81a.65.65,0,0,1,0,1.3Z"/>
      <path fill="#374044" d="M19.15,14.71H8.37a.65.65,0,0,1,0-1.29H18.71l2.68-6.6H6.49a.65.65,0,0,1,0-1.29H22.35a.64.64,0,0,1,.54.28.66.66,0,0,1,.06.61l-3.2,7.89A.66.66,0,0,1,19.15,14.71Z"/>
      <path fill="#374044" d="M20.81,10.63H7.1a.65.65,0,0,1,0-1.29H20.81a.65.65,0,0,1,0,1.29Z"/>
      <path fill="#374044" d="M11.63,14.49a.65.65,0,0,1-.65-.65V6.65a.65.65,0,0,1,1.3,0v7.19A.65.65,0,0,1,11.63,14.49Z"/>
      <path fill="#374044" d="M16.44,14.49a.65.65,0,0,1-.65-.65V6.65a.65.65,0,1,1,1.29,0v7.19A.65.65,0,0,1,16.44,14.49Z"/>
      <path fill="#374044" d="M9.17,21.75a1.53,1.53,0,1,1,1.53-1.53A1.54,1.54,0,0,1,9.17,21.75Zm0-1.77a.24.24,0,0,0-.24.24c0,.26.48.26.48,0A.24.24,0,0,0,9.17,20Z"/>
      <path fill="#374044" d="M16.79,21.75a1.53,1.53,0,1,1,1.54-1.53A1.54,1.54,0,0,1,16.79,21.75Zm0-1.77a.23.23,0,0,0-.23.24c0,.26.47.26.47,0A.24.24,0,0,0,16.79,20Z"/>
    </g>

    <g id="caddie" width="24" height="24" transform="translate(24, 240)">
      <path fill="none" stroke="#374044" stroke-miterlimit="10" d="M18.45,8.25H5.55a.5.5,0,0,1-.5-.51V2.38a.5.5,0,0,1,.5-.5h12.9a.5.5,0,0,1,.5.5V7.74A.5.5,0,0,1,18.45,8.25Z"/>
      <path fill="#374044" d="M21.9,9.43H2.2A1.16,1.16,0,0,0,1,10.53V17a1.24,1.24,0,0,0,1.2,1.19H3.48V15.91h17v2.28H21.9A1.15,1.15,0,0,0,23,17V10.53A1.07,1.07,0,0,0,21.9,9.43ZM7.08,13.72H3.52A.55.55,0,0,1,3,13.17a.55.55,0,0,1,.55-.55H7.08a.55.55,0,0,1,.55.55A.55.55,0,0,1,7.08,13.72Zm10.24-.05a.55.55,0,0,1-.55-.55.55.55,0,1,1,1.1,0A.55.55,0,0,1,17.32,13.67Zm2.27,0a.55.55,0,0,1-.55-.55.55.55,0,0,1,1.1,0A.55.55,0,0,1,19.59,13.67Z"/>
      <path fill="#374044" d="M18.89,20H5.11a.52.52,0,0,1-.53-.53.53.53,0,0,1,.53-.53H18.89a.54.54,0,0,1,.54.53A.53.53,0,0,1,18.89,20Z"/>
      <path fill="#374044" d="M18.89,17.88H5.11a.53.53,0,0,1,0-1.06H18.89a.53.53,0,1,1,0,1.06Z"/>
      <path fill="#374044" d="M18.89,22.12H5.11a.52.52,0,0,1-.53-.53.53.53,0,0,1,.53-.53H18.89a.54.54,0,0,1,.54.53A.53.53,0,0,1,18.89,22.12Z"/>
    </g>

    <g id="courriel" width="24" height="24" transform="translate(24, 264)">
      <path fill="#374044" d="M22.74,4.92a1.73,1.73,0,0,0-.64-.62h0a1.78,1.78,0,0,0-.84-.22H2.76a1.65,1.65,0,0,0-.84.22h0a1.63,1.63,0,0,0-.63.59,1.57,1.57,0,0,0-.29,1V18.16a1.8,1.8,0,0,0,.24.9,1.68,1.68,0,0,0,.62.62,1.8,1.8,0,0,0,.9.24H21.24a1.8,1.8,0,0,0,.9-.24,1.68,1.68,0,0,0,.62-.62,1.8,1.8,0,0,0,.24-.9V5.84A1.65,1.65,0,0,0,22.74,4.92Zm-1.5,0h.07l-8.06,7a1.71,1.71,0,0,1-2.11,0L2.74,5Zm-6.32,6.27-.8.41L21.46,19a.85.85,0,0,1-.22,0H2.76a.4.4,0,0,1-.22,0l7.19-7.15-.65-.58L1.92,18.38a.4.4,0,0,1,0-.22V5.84A.92.92,0,0,1,2,5.47l8.62,7.23a2.6,2.6,0,0,0,1.63.62,2.54,2.54,0,0,0,1.63-.66l8.2-7.17a.81.81,0,0,1,.07.35V18.16a.4.4,0,0,1,0,.22Z"/>
    </g>

    <g id="loupe_bleu" width="24" height="24" transform="translate(24, 288)">
      <path fill="#1199e3" d="M4.18,22.48l5.06-5.06A8.91,8.91,0,1,0,6.67,15l-5,5a1.77,1.77,0,0,0,0,2.51A1.78,1.78,0,0,0,4.18,22.48ZM8,9.89a6,6,0,1,1,6,6A6,6,0,0,1,8,9.89Z"/>
    </g>

    <g id="chevron-right_white" width="24" height="24" transform="translate(24, 312)">
      <path d="M4.89,21.16,14.05,12,4.89,2.82,7.7,0l12,12L7.7,24Z" fill="#ffffff"/>
    </g>

    <g id="avertissement" width="24" height="24" transform="translate(24, 336)">
      <path fill="#ff081a" d="M11.29,9.71v5.07a.71.71,0,1,0,1.42,0V9.71a.71.71,0,0,0-1.42,0Z"/>
      <path fill="#ff081a" d="M12,17.06a.75.75,0,0,0,0,1.5.75.75,0,0,0,0-1.5Z"/>
      <path fill="#ff081a" d="M22.91,20.61,12.58,2.72a.66.66,0,0,0-1.16,0L1.09,20.61a.68.68,0,0,0,.58,1H22.33a.68.68,0,0,0,.58-1ZM2.83,20.28,12,4.39l9.17,15.89Z"/>
    </g>
  
    <!-- new column -->

    <g id="chevron_bas" width="24" height="24" transform="translate(48, 0)">
      <polyline fill="none" stroke="#7d868e" stroke-linecap="round" stroke-line-join="round" stroke-width="3px" points="22 6.98 12.04 17.02 2 7.06"/>
    </g>

    <g id="check" width="24" height="24" transform="translate(48, 24)">
      <path d="M12,1A11,11,0,1,0,23,12,11,11,0,0,0,12,1Z" fill="#11abf5"/>
      <polyline points="6 12.4 9.72 16.94 18 7.06" fill="none" stroke="#ffffff" stroke-linecap="round" stroke-linejoin="round" stroke-width="2"/>
    </g>
    
    <!-- views -->

    <view id="clock_red-view" viewBox="0 0 24 24" />
    <view id="promo_orange-view" viewBox="0 24 24 24" />
    <view id="new_pink-view" viewBox="0 48 24 24" />
    <view id="screen_blue-view" viewBox="0 72 24 24" />
    <view id="clock_gray-view" viewBox="0 96 24 24" />
    <view id="promo_gray-view" viewBox="0 120 24 24" />
    <view id="new_gray-view" viewBox="0 144 24 24" />
    <view id="screen_gray-view" viewBox="0 168 24 24" />
    <view id="chevron-right-view" viewBox="0 192 24 24" />
    <view id="exclu-view" viewBox="0 216 24 24" />
    <view id="non-commandable-view" viewBox="0 240 24 24" />
    <view id="planning-48h-view" viewBox="0 264 24 24" />
    <view id="promo_t_jaune-view" viewBox="0 288 24 24" />
    <view id="promo_p_rouge-view" viewBox="0 312 24 24" />
    <view id="promo_b_bleu-view" viewBox="0 336 24 24" />

    <view id="more-actions-view" viewBox="24 0 24 24" />
    <view id="chevron-left-view" viewBox="24 24 24 24" />
    <view id="loupe-view" viewBox="24 48 24 24" />
    <view id="croix_gris-view" viewBox="24 72 24 24" />
    <view id="croix_blanc-view" viewBox="24 96 24 24" />
    <view id="pointe_bleu-view" viewBox="24 120 24 24" />
    <view id="broken-image-view" viewBox="24 144 24 24" />
    <view id="chevron-droit_fonce-view" viewBox="24 168 24 24" />
    <view id="retour-clavier-view" viewBox="24 192 24 24" />
    <view id="caddie-view" viewBox="24 216 24 24" />
    <view id="imprimante-view" viewBox="24 240 24 24" />
    <view id="courriel-view" viewBox="24 264 24 24" />
    <view id="loupe_bleu-view" viewBox="24 288 24 24" />
    <view id="chevron-right_white-view" viewBox="24 312 24 24" />
    <view id="avertissement-view" viewBox="24 336 24 24" />

    <view id="chevron_bas-view" viewBox="48 0 24 24" />
    <view id="check-view" viewBox="48 24 24 24" />
</svg>
